<svg width="161" height="149" viewBox="0 0 161 149" fill="none" xmlns="http://www.w3.org/2000/svg">
<path d="M46.7398 101.391C46.7398 101.391 45.1376 96.9674 39.7766 95.7866C34.4148 94.6131 30.4299 97.2512 30.4299 97.2512C30.4299 97.2512 32.4331 102.375 37.6587 103.521C42.8853 104.67 46.7398 101.391 46.7398 101.391ZM53.2473 96.0344C53.2473 96.0344 55.5994 91.5559 53.3302 86.7067C51.0638 81.8592 45.6248 81.0334 45.6248 81.0334C45.6248 81.0334 43.928 85.4985 46.2545 90.4764C48.5801 95.4498 53.2473 96.0344 53.2473 96.0344ZM41.7638 90.6425C41.7638 90.6425 42.8872 86.0731 39.0812 82.1205C35.2769 78.165 30.4989 78.1458 30.4989 78.1458C30.4989 78.1458 29.3229 83.5175 33.0345 87.3759C36.745 91.2297 41.7638 90.6425 41.7638 90.6425ZM56.3177 107.447C56.3177 107.447 53.4793 103.694 48.013 104.148C42.5405 104.607 39.5107 108.299 39.5107 108.299C39.5107 108.299 42.9361 112.604 48.2682 112.161C53.6029 111.719 56.3177 107.447 56.3177 107.447Z" fill="white"/>
<path d="M46.7398 101.391C46.7398 101.391 45.1376 96.9674 39.7766 95.7866C34.4148 94.6131 30.4299 97.2512 30.4299 97.2512C30.4299 97.2512 32.4331 102.375 37.6587 103.521C42.8853 104.67 46.7398 101.391 46.7398 101.391ZM53.2473 96.0344C53.2473 96.0344 55.5994 91.5559 53.3302 86.7067C51.0638 81.8592 45.6248 81.0334 45.6248 81.0334C45.6248 81.0334 43.928 85.4985 46.2545 90.4764C48.5801 95.4498 53.2473 96.0344 53.2473 96.0344ZM41.7638 90.6425C41.7638 90.6425 42.8872 86.0731 39.0812 82.1205C35.2769 78.165 30.4989 78.1458 30.4989 78.1458C30.4989 78.1458 29.3229 83.5175 33.0345 87.3759C36.745 91.2297 41.7638 90.6425 41.7638 90.6425ZM56.3177 107.447C56.3177 107.447 53.4793 103.694 48.013 104.148C42.5405 104.607 39.5107 108.299 39.5107 108.299C39.5107 108.299 42.9361 112.604 48.2682 112.161C53.6029 111.719 56.3177 107.447 56.3177 107.447Z" fill="url(#paint0_linear_4576_4059)"/>
<path d="M46.7398 101.391C46.7398 101.391 45.1376 96.9674 39.7766 95.7866C34.4148 94.6131 30.4299 97.2512 30.4299 97.2512C30.4299 97.2512 32.4331 102.375 37.6587 103.521C42.8853 104.67 46.7398 101.391 46.7398 101.391ZM53.2473 96.0344C53.2473 96.0344 55.5994 91.5559 53.3302 86.7067C51.0638 81.8592 45.6248 81.0334 45.6248 81.0334C45.6248 81.0334 43.928 85.4985 46.2545 90.4764C48.5801 95.4498 53.2473 96.0344 53.2473 96.0344ZM41.7638 90.6425C41.7638 90.6425 42.8872 86.0731 39.0812 82.1205C35.2769 78.165 30.4989 78.1458 30.4989 78.1458C30.4989 78.1458 29.3229 83.5175 33.0345 87.3759C36.745 91.2297 41.7638 90.6425 41.7638 90.6425ZM56.3177 107.447C56.3177 107.447 53.4793 103.694 48.013 104.148C42.5405 104.607 39.5107 108.299 39.5107 108.299C39.5107 108.299 42.9361 112.604 48.2682 112.161C53.6029 111.719 56.3177 107.447 56.3177 107.447Z" fill="url(#paint1_linear_4576_4059)"/>
<path d="M44.7388 91.8753L42.5065 93.245C42.6578 93.4869 57.9105 117.425 100.607 104.217L99.8331 101.718C59.1784 114.291 45.3078 92.797 44.7388 91.8753Z" fill="white"/>
<path d="M44.7388 91.8753L42.5065 93.245C42.6578 93.4869 57.9105 117.425 100.607 104.217L99.8331 101.718C59.1784 114.291 45.3078 92.797 44.7388 91.8753Z" fill="url(#paint2_linear_4576_4059)"/>
<path d="M44.7388 91.8753L42.5065 93.245C42.6578 93.4869 57.9105 117.425 100.607 104.217L99.8331 101.718C59.1784 114.291 45.3078 92.797 44.7388 91.8753Z" fill="url(#paint3_linear_4576_4059)"/>
<path d="M98.9471 98.8519L101.812 97.9656L104.36 106.196L101.493 107.083C82.8544 112.849 69.0408 111.801 59.2208 108.471L58.8502 109.056L56.3182 107.447C56.3182 107.447 53.4792 103.694 48.0129 104.148C42.5662 104.605 39.5393 108.264 39.511 108.298C39.5168 108.306 42.9405 112.603 48.2676 112.161C53.6024 111.719 56.3182 107.447 56.3182 107.447C58.8498 109.056 58.8493 109.057 58.8486 109.058L58.8476 109.06C58.8466 109.062 58.8447 109.063 58.8436 109.065L58.8202 109.102C58.8074 109.121 58.7916 109.145 58.7731 109.173C58.7359 109.228 58.6866 109.299 58.626 109.383C58.505 109.552 58.3365 109.775 58.12 110.036C57.6885 110.557 57.0549 111.241 56.2165 111.941C54.5425 113.338 51.9646 114.864 48.5164 115.149L48.5167 115.151C44.9603 115.446 42.0995 114.148 40.2193 112.887C39.2731 112.253 38.5355 111.603 38.0284 111.106C37.7735 110.856 37.5724 110.64 37.4281 110.478C37.3558 110.397 37.2972 110.329 37.253 110.276C37.231 110.25 37.2124 110.227 37.1975 110.209C37.1901 110.2 37.1835 110.192 37.1779 110.185C37.175 110.181 37.1717 110.178 37.1693 110.175C37.1681 110.173 37.1672 110.172 37.1662 110.17L37.165 110.169C37.1643 110.168 37.1632 110.167 39.49 108.315L37.1631 110.166L35.6536 108.27L37.1265 106.474C37.0892 106.466 37.0517 106.459 37.0143 106.451C33.5298 105.686 31.1789 103.603 29.7542 101.845C29.0371 100.96 28.5239 100.122 28.1859 99.4969C28.016 99.1827 27.8869 98.9171 27.7968 98.7197C27.7517 98.6208 27.7159 98.5383 27.6892 98.475C27.6759 98.4433 27.665 98.4159 27.6561 98.394C27.6517 98.3831 27.6478 98.3731 27.6445 98.3647C27.6429 98.3607 27.6412 98.3571 27.6399 98.3537C27.6392 98.3519 27.6385 98.3494 27.6379 98.3478L27.6367 98.3459C27.6363 98.3448 27.636 98.3438 30.1394 97.3651L27.6361 98.3432L26.7534 96.0874L28.7734 94.7496L30.4295 97.2515C28.8188 94.8186 28.7755 94.751 28.7753 94.7485L28.7785 94.7471C28.7799 94.7462 28.7813 94.745 28.7828 94.744C28.786 94.7419 28.7895 94.7391 28.7932 94.7367C28.8005 94.7319 28.8092 94.7264 28.8185 94.7204C28.8374 94.7082 28.8605 94.694 28.8874 94.6772C28.9413 94.6436 29.0113 94.6006 29.0967 94.5507C29.2676 94.4508 29.5016 94.3207 29.7927 94.1749C30.3735 93.8841 31.1942 93.5245 32.2102 93.2118C33.127 92.9297 34.2165 92.6843 35.4401 92.5645C33.9274 91.9379 32.3254 90.9642 30.8737 89.4565L30.8721 89.4554L30.6453 89.2128C28.3487 86.694 27.5911 83.776 27.3878 81.5925C27.2821 80.4582 27.3207 79.4756 27.3863 78.7684C27.4192 78.4129 27.4595 78.1208 27.4941 77.9066C27.5114 77.7994 27.5273 77.711 27.5402 77.6435C27.5466 77.61 27.5523 77.5814 27.5571 77.5583C27.5595 77.5466 27.5615 77.5353 27.5633 77.5264C27.5643 77.5221 27.5655 77.5181 27.5663 77.5144C27.5667 77.5126 27.5669 77.5109 27.5673 77.5093L27.568 77.5063C27.5727 77.5061 27.6837 77.5297 30.4226 78.1293L27.5682 77.5041L28.0872 75.1359L30.5112 75.1461L30.4986 78.1461C30.51 75.3126 30.5122 75.155 30.5134 75.1463L30.5161 75.1457C30.5178 75.1457 30.5199 75.1458 30.5218 75.1458C30.5256 75.1459 30.5302 75.1457 30.5345 75.1458C30.5433 75.1459 30.5533 75.1459 30.5643 75.1461C30.5868 75.1465 30.6144 75.1472 30.6462 75.1482C30.7098 75.1502 30.7921 75.1536 30.8909 75.1595C31.0886 75.1714 31.3549 75.1935 31.6779 75.234C32.3223 75.3148 33.2041 75.4711 34.2224 75.7755C36.2566 76.3836 38.8985 77.6024 41.2436 80.0407L41.2423 80.041C41.6788 80.4944 42.0647 80.9563 42.4072 81.4205C42.4332 81.3035 42.4582 81.1927 42.4839 81.0889C42.5621 80.7727 42.6372 80.516 42.6971 80.3272C42.7271 80.2327 42.7538 80.1546 42.7749 80.0945C42.7853 80.0646 42.7937 80.0388 42.8014 80.0177C42.8053 80.0071 42.8096 79.9973 42.8127 79.989C42.8142 79.9849 42.8151 79.981 42.8164 79.9775C42.8171 79.9757 42.8181 79.9736 42.8187 79.972L42.8198 79.9704C42.8254 79.9712 42.9414 80.0137 45.5058 80.9882L42.8205 79.9674L43.6811 77.704L46.075 78.0672L45.6251 81.0335C46.0661 78.1283 46.0758 78.0684 46.0771 78.0674L46.0801 78.0681C46.0818 78.0684 46.0835 78.0688 46.0853 78.0691C46.0891 78.0697 46.0934 78.0705 46.0978 78.0712C46.1068 78.0727 46.1177 78.0742 46.1294 78.0761C46.1527 78.08 46.1812 78.0848 46.2148 78.0909C46.2824 78.103 46.3707 78.1199 46.477 78.1421C46.6894 78.1866 46.977 78.253 47.3209 78.3496C48.0048 78.5417 48.9364 78.858 49.9577 79.363C51.9871 80.3664 54.5362 82.2022 56.0481 85.4359L56.0468 85.4362C57.5128 88.5694 57.4725 91.5632 57.0939 93.7102C56.9042 94.7856 56.6266 95.6753 56.3903 96.3083C56.2716 96.6263 56.1614 96.8843 56.0758 97.073C56.033 97.1673 55.9958 97.2447 55.9666 97.3044C55.9519 97.3342 55.9392 97.36 55.9286 97.3809C55.9234 97.3912 55.9186 97.4008 55.9144 97.4089C55.9124 97.4128 55.9102 97.4167 55.9085 97.4201L55.9043 97.4267L53.247 96.0343C53.247 96.0343 55.5991 91.556 53.3299 86.7068C51.0734 81.8806 45.6724 81.0408 45.6251 81.0335C45.6205 81.0456 43.9314 85.5052 46.2548 90.4763C48.5691 95.4254 53.202 96.0285 53.247 96.0343L55.9035 97.4297L55.7487 97.7223C56.5928 98.2053 57.5073 98.6771 58.4949 99.1259C66.3486 102.694 79.2111 104.955 98.9471 98.8519ZM42.5061 93.2447C42.6574 93.4867 57.9103 117.425 100.606 104.217L99.8337 101.718C59.1795 114.29 45.3085 92.7974 44.7391 91.8752L42.5061 93.2447ZM30.4295 97.2515C30.4383 97.2739 32.4446 102.378 37.6585 103.521C42.8657 104.666 46.7112 101.416 46.7397 101.392C46.7397 101.392 45.1374 96.9669 39.7764 95.7861C34.4148 94.6126 30.4295 97.2515 30.4295 97.2515ZM39.511 108.298C38.1262 107.162 37.569 106.703 37.3446 106.518C37.3435 106.518 37.3422 106.519 37.3411 106.519L39.511 108.298ZM30.4986 78.1461C30.4865 78.2023 29.3424 83.5376 33.034 87.3756L33.3858 87.7238C37.0537 91.1934 41.7639 90.6422 41.7639 90.6422C41.7735 90.6027 42.8708 86.0559 39.0816 82.1205C35.2773 78.1651 30.4986 78.1461 30.4986 78.1461Z" fill="#20303F"/>
<path d="M112.091 101.391C112.091 101.391 113.693 96.9674 119.054 95.7866C124.416 94.6131 128.401 97.2512 128.401 97.2512C128.401 97.2512 126.398 102.375 121.172 103.521C115.946 104.67 112.091 101.391 112.091 101.391ZM105.584 96.0344C105.584 96.0344 103.232 91.5559 105.501 86.7067C107.767 81.8592 113.206 81.0334 113.206 81.0334C113.206 81.0334 114.903 85.4985 112.576 90.4764C110.251 95.4498 105.584 96.0344 105.584 96.0344ZM117.067 90.6425C117.067 90.6425 115.944 86.0731 119.75 82.1205C123.554 78.165 128.332 78.1458 128.332 78.1458C128.332 78.1458 129.508 83.5175 125.797 87.3759C122.086 91.2297 117.067 90.6425 117.067 90.6425ZM102.513 107.447C102.513 107.447 105.352 103.694 110.818 104.148C116.29 104.607 119.32 108.299 119.32 108.299C119.32 108.299 115.895 112.604 110.563 112.161C105.228 111.719 102.513 107.447 102.513 107.447Z" fill="white"/>
<path d="M112.091 101.391C112.091 101.391 113.693 96.9674 119.054 95.7866C124.416 94.6131 128.401 97.2512 128.401 97.2512C128.401 97.2512 126.398 102.375 121.172 103.521C115.946 104.67 112.091 101.391 112.091 101.391ZM105.584 96.0344C105.584 96.0344 103.232 91.5559 105.501 86.7067C107.767 81.8592 113.206 81.0334 113.206 81.0334C113.206 81.0334 114.903 85.4985 112.576 90.4764C110.251 95.4498 105.584 96.0344 105.584 96.0344ZM117.067 90.6425C117.067 90.6425 115.944 86.0731 119.75 82.1205C123.554 78.165 128.332 78.1458 128.332 78.1458C128.332 78.1458 129.508 83.5175 125.797 87.3759C122.086 91.2297 117.067 90.6425 117.067 90.6425ZM102.513 107.447C102.513 107.447 105.352 103.694 110.818 104.148C116.29 104.607 119.32 108.299 119.32 108.299C119.32 108.299 115.895 112.604 110.563 112.161C105.228 111.719 102.513 107.447 102.513 107.447Z" fill="url(#paint4_linear_4576_4059)"/>
<path d="M112.091 101.391C112.091 101.391 113.693 96.9674 119.054 95.7866C124.416 94.6131 128.401 97.2512 128.401 97.2512C128.401 97.2512 126.398 102.375 121.172 103.521C115.946 104.67 112.091 101.391 112.091 101.391ZM105.584 96.0344C105.584 96.0344 103.232 91.5559 105.501 86.7067C107.767 81.8592 113.206 81.0334 113.206 81.0334C113.206 81.0334 114.903 85.4985 112.576 90.4764C110.251 95.4498 105.584 96.0344 105.584 96.0344ZM117.067 90.6425C117.067 90.6425 115.944 86.0731 119.75 82.1205C123.554 78.165 128.332 78.1458 128.332 78.1458C128.332 78.1458 129.508 83.5175 125.797 87.3759C122.086 91.2297 117.067 90.6425 117.067 90.6425ZM102.513 107.447C102.513 107.447 105.352 103.694 110.818 104.148C116.29 104.607 119.32 108.299 119.32 108.299C119.32 108.299 115.895 112.604 110.563 112.161C105.228 111.719 102.513 107.447 102.513 107.447Z" fill="url(#paint5_linear_4576_4059)"/>
<path d="M114.092 91.8753L116.325 93.245C116.173 93.4869 100.921 117.425 58.224 104.217L58.9979 101.718C99.6526 114.291 113.523 92.797 114.092 91.8753Z" fill="white"/>
<path d="M114.092 91.8753L116.325 93.245C116.173 93.4869 100.921 117.425 58.224 104.217L58.9979 101.718C99.6526 114.291 113.523 92.797 114.092 91.8753Z" fill="url(#paint6_linear_4576_4059)"/>
<path d="M114.092 91.8753L116.325 93.245C116.173 93.4869 100.921 117.425 58.224 104.217L58.9979 101.718C99.6526 114.291 113.523 92.797 114.092 91.8753Z" fill="url(#paint7_linear_4576_4059)"/>
<path d="M59.8839 98.8519L57.0194 97.9656L54.4708 106.196L57.338 107.083C75.9765 112.849 89.7902 111.801 99.6101 108.471L99.9808 109.056L102.513 107.447C102.513 107.447 105.352 103.694 110.818 104.148C116.265 104.605 119.292 108.264 119.32 108.298C119.314 108.306 115.891 112.603 110.563 112.161C105.229 111.719 102.513 107.447 102.513 107.447C99.9811 109.056 99.9817 109.057 99.9824 109.058L99.9834 109.06C99.9844 109.062 99.9863 109.063 99.9874 109.065L100.011 109.102C100.024 109.121 100.039 109.145 100.058 109.173C100.095 109.228 100.144 109.299 100.205 109.383C100.326 109.552 100.494 109.775 100.711 110.036C101.142 110.557 101.776 111.241 102.615 111.941C104.288 113.338 106.866 114.864 110.315 115.149L110.314 115.151C113.871 115.446 116.732 114.148 118.612 112.887C119.558 112.253 120.295 111.603 120.803 111.106C121.057 110.856 121.259 110.64 121.403 110.478C121.475 110.397 121.534 110.329 121.578 110.276C121.6 110.25 121.619 110.227 121.634 110.209C121.641 110.2 121.647 110.192 121.653 110.185C121.656 110.181 121.659 110.178 121.662 110.175C121.663 110.173 121.664 110.172 121.665 110.17L121.666 110.169C121.667 110.168 121.668 110.167 119.341 108.315L121.668 110.166L123.177 108.27L121.704 106.474C121.742 106.466 121.779 106.459 121.817 106.451C125.301 105.686 127.652 103.603 129.077 101.845C129.794 100.96 130.307 100.122 130.645 99.4969C130.815 99.1827 130.944 98.9171 131.034 98.7197C131.079 98.6208 131.115 98.5383 131.142 98.475C131.155 98.4433 131.166 98.4159 131.175 98.394C131.179 98.3831 131.183 98.3731 131.186 98.3647C131.188 98.3607 131.19 98.3571 131.191 98.3537C131.192 98.3519 131.192 98.3494 131.193 98.3478L131.194 98.3459C131.195 98.3448 131.195 98.3438 128.692 97.3651L131.195 98.3432L132.078 96.0874L130.058 94.7496L128.402 97.2515C130.012 94.8186 130.055 94.751 130.056 94.7485L130.052 94.7471C130.051 94.7462 130.05 94.745 130.048 94.744C130.045 94.7419 130.042 94.7391 130.038 94.7367C130.03 94.7319 130.022 94.7264 130.012 94.7204C129.994 94.7082 129.97 94.694 129.944 94.6772C129.89 94.6436 129.82 94.6006 129.734 94.5507C129.563 94.4508 129.329 94.3207 129.038 94.1749C128.457 93.8841 127.637 93.5245 126.621 93.2118C125.704 92.9297 124.614 92.6843 123.391 92.5645C124.904 91.9379 126.506 90.9642 127.957 89.4565L127.959 89.4554L128.186 89.2128C130.482 86.694 131.24 83.776 131.443 81.5925C131.549 80.4582 131.51 79.4756 131.445 78.7684C131.412 78.4129 131.371 78.1208 131.337 77.9066C131.32 77.7994 131.304 77.711 131.291 77.6435C131.284 77.61 131.279 77.5814 131.274 77.5583C131.272 77.5466 131.27 77.5353 131.268 77.5264C131.267 77.5221 131.265 77.5181 131.265 77.5144C131.264 77.5126 131.264 77.5109 131.264 77.5093L131.263 77.5063C131.258 77.5061 131.147 77.5297 128.408 78.1293L131.263 77.5041L130.744 75.1359L128.32 75.1461L128.332 78.1461C128.321 75.3126 128.319 75.155 128.318 75.1463L128.315 75.1457C128.313 75.1457 128.311 75.1458 128.309 75.1458C128.305 75.1459 128.301 75.1457 128.296 75.1458C128.288 75.1459 128.278 75.1459 128.267 75.1461C128.244 75.1465 128.217 75.1472 128.185 75.1482C128.121 75.1502 128.039 75.1536 127.94 75.1595C127.742 75.1714 127.476 75.1935 127.153 75.234C126.509 75.3148 125.627 75.4711 124.609 75.7755C122.574 76.3836 119.933 77.6024 117.587 80.0407L117.589 80.041C117.152 80.4944 116.766 80.9563 116.424 81.4205C116.398 81.3035 116.373 81.1927 116.347 81.0889C116.269 80.7727 116.194 80.516 116.134 80.3272C116.104 80.2327 116.077 80.1546 116.056 80.0945C116.046 80.0646 116.037 80.0388 116.03 80.0177C116.026 80.0071 116.021 79.9973 116.018 79.989C116.017 79.9849 116.016 79.981 116.015 79.9775C116.014 79.9757 116.013 79.9736 116.012 79.972L116.011 79.9704C116.006 79.9712 115.89 80.0137 113.325 80.9882L116.01 79.9674L115.15 77.704L112.756 78.0672L113.206 81.0335C112.765 78.1283 112.755 78.0684 112.754 78.0674L112.751 78.0681C112.749 78.0684 112.747 78.0688 112.746 78.0691C112.742 78.0697 112.738 78.0705 112.733 78.0712C112.724 78.0727 112.713 78.0742 112.702 78.0761C112.678 78.08 112.65 78.0848 112.616 78.0909C112.549 78.103 112.46 78.1199 112.354 78.1421C112.142 78.1866 111.854 78.253 111.51 78.3496C110.826 78.5417 109.895 78.858 108.873 79.363C106.844 80.3664 104.295 82.2022 102.783 85.4359L102.784 85.4362C101.318 88.5694 101.358 91.5632 101.737 93.7102C101.927 94.7856 102.204 95.6753 102.441 96.3083C102.559 96.6263 102.67 96.8843 102.755 97.073C102.798 97.1673 102.835 97.2447 102.864 97.3044C102.879 97.3342 102.892 97.36 102.902 97.3809C102.908 97.3912 102.912 97.4008 102.917 97.4089C102.919 97.4128 102.921 97.4167 102.923 97.4201L102.927 97.4267L105.584 96.0343C105.584 96.0343 103.232 91.556 105.501 86.7068C107.758 81.8806 113.159 81.0408 113.206 81.0335C113.211 81.0456 114.9 85.5052 112.576 90.4763C110.262 95.4254 105.629 96.0285 105.584 96.0343L102.927 97.4297L103.082 97.7223C102.238 98.2053 101.324 98.6771 100.336 99.1259C92.4824 102.694 79.6199 104.955 59.8839 98.8519ZM116.325 93.2447C116.174 93.4867 100.921 117.425 58.2246 104.217L58.9973 101.718C99.6515 114.29 113.523 92.7974 114.092 91.8752L116.325 93.2447ZM128.402 97.2515C128.393 97.2739 126.386 102.378 121.172 103.521C115.965 104.666 112.12 101.416 112.091 101.392C112.091 101.392 113.694 96.9669 119.055 95.7861C124.416 94.6126 128.402 97.2515 128.402 97.2515ZM119.32 108.298C120.705 107.162 121.262 106.703 121.486 106.518C121.488 106.518 121.489 106.519 121.49 106.519L119.32 108.298ZM128.332 78.1461C128.345 78.2023 129.489 83.5376 125.797 87.3756L125.445 87.7238C121.777 91.1934 117.067 90.6422 117.067 90.6422C117.057 90.6027 115.96 86.0559 119.749 82.1205C123.554 78.1651 128.332 78.1461 128.332 78.1461Z" fill="#20303F"/>
<path d="M98.7582 114.196C104.44 103.459 100.341 90.1478 89.6042 84.4665C78.8676 78.7851 65.5559 82.8839 59.8746 93.6205C54.1933 104.357 58.2921 117.669 69.0287 123.35C79.7653 129.031 93.0769 124.933 98.7582 114.196Z" fill="white"/>
<path d="M98.7582 114.196C104.44 103.459 100.341 90.1478 89.6042 84.4665C78.8676 78.7851 65.5559 82.8839 59.8746 93.6205C54.1933 104.357 58.2921 117.669 69.0287 123.35C79.7653 129.031 93.0769 124.933 98.7582 114.196Z" fill="url(#paint8_linear_4576_4059)"/>
<path d="M98.7582 114.196C104.44 103.459 100.341 90.1478 89.6042 84.4665C78.8676 78.7851 65.5559 82.8839 59.8746 93.6205C54.1933 104.357 58.2921 117.669 69.0287 123.35C79.7653 129.031 93.0769 124.933 98.7582 114.196Z" fill="url(#paint9_linear_4576_4059)"/>
<path d="M57.2744 92.2442C63.7158 80.0715 78.8077 75.425 90.9804 81.8663C103.153 88.3077 107.8 103.4 101.358 115.572C94.9169 127.745 79.8251 132.392 67.6523 125.95C55.4797 119.509 50.8331 104.417 57.2744 92.2442ZM89.6045 84.4668C78.868 78.7856 65.5564 82.8839 59.875 93.6202L59.6152 94.126C54.3231 104.771 58.4599 117.757 69.0283 123.35C79.5971 128.942 92.6615 125.058 98.4863 114.694L98.7578 114.196C104.35 103.627 100.466 90.5632 90.1025 84.7383L89.6045 84.4668Z" fill="#20303F"/>
<defs>
<linearGradient id="paint0_linear_4576_4059" x1="22.5502" y1="88.5187" x2="89.7486" y2="72.3339" gradientUnits="userSpaceOnUse">
<stop stop-color="#1D8C21"/>
<stop offset="0.32" stop-color="#7BFB80"/>
<stop offset="0.54" stop-color="#E9FCE7"/>
<stop offset="0.77" stop-color="#51F74E"/>
<stop offset="1" stop-color="#44D441"/>
</linearGradient>
<linearGradient id="paint1_linear_4576_4059" x1="20.7516" y1="96.4796" x2="82.1053" y2="64.4007" gradientUnits="userSpaceOnUse">
<stop stop-color="#7A96AC"/>
<stop offset="0.18" stop-color="#EAEFF3"/>
<stop offset="0.31" stop-color="#C2D4E1"/>
<stop offset="0.49" stop-color="white"/>
<stop offset="0.62" stop-color="#D4DEE5"/>
<stop offset="0.79" stop-color="#ABBDC8"/>
<stop offset="0.95" stop-color="#BCCAD7"/>
</linearGradient>
<linearGradient id="paint2_linear_4576_4059" x1="22.5502" y1="88.5187" x2="89.7486" y2="72.3339" gradientUnits="userSpaceOnUse">
<stop stop-color="#1D8C21"/>
<stop offset="0.32" stop-color="#7BFB80"/>
<stop offset="0.54" stop-color="#E9FCE7"/>
<stop offset="0.77" stop-color="#51F74E"/>
<stop offset="1" stop-color="#44D441"/>
</linearGradient>
<linearGradient id="paint3_linear_4576_4059" x1="20.7516" y1="96.4796" x2="82.1053" y2="64.4007" gradientUnits="userSpaceOnUse">
<stop stop-color="#7A96AC"/>
<stop offset="0.18" stop-color="#EAEFF3"/>
<stop offset="0.31" stop-color="#C2D4E1"/>
<stop offset="0.49" stop-color="white"/>
<stop offset="0.62" stop-color="#D4DEE5"/>
<stop offset="0.79" stop-color="#ABBDC8"/>
<stop offset="0.95" stop-color="#BCCAD7"/>
</linearGradient>
<linearGradient id="paint4_linear_4576_4059" x1="136.281" y1="88.5187" x2="69.0824" y2="72.3339" gradientUnits="userSpaceOnUse">
<stop stop-color="#1D8C21"/>
<stop offset="0.32" stop-color="#7BFB80"/>
<stop offset="0.54" stop-color="#E9FCE7"/>
<stop offset="0.77" stop-color="#51F74E"/>
<stop offset="1" stop-color="#44D441"/>
</linearGradient>
<linearGradient id="paint5_linear_4576_4059" x1="138.079" y1="96.4796" x2="76.7257" y2="64.4007" gradientUnits="userSpaceOnUse">
<stop stop-color="#7A96AC"/>
<stop offset="0.18" stop-color="#EAEFF3"/>
<stop offset="0.31" stop-color="#C2D4E1"/>
<stop offset="0.49" stop-color="white"/>
<stop offset="0.62" stop-color="#D4DEE5"/>
<stop offset="0.79" stop-color="#ABBDC8"/>
<stop offset="0.95" stop-color="#BCCAD7"/>
</linearGradient>
<linearGradient id="paint6_linear_4576_4059" x1="136.281" y1="88.5187" x2="69.0824" y2="72.3339" gradientUnits="userSpaceOnUse">
<stop stop-color="#1D8C21"/>
<stop offset="0.32" stop-color="#7BFB80"/>
<stop offset="0.54" stop-color="#E9FCE7"/>
<stop offset="0.77" stop-color="#51F74E"/>
<stop offset="1" stop-color="#44D441"/>
</linearGradient>
<linearGradient id="paint7_linear_4576_4059" x1="138.079" y1="96.4796" x2="76.7257" y2="64.4007" gradientUnits="userSpaceOnUse">
<stop stop-color="#7A96AC"/>
<stop offset="0.18" stop-color="#EAEFF3"/>
<stop offset="0.31" stop-color="#C2D4E1"/>
<stop offset="0.49" stop-color="white"/>
<stop offset="0.62" stop-color="#D4DEE5"/>
<stop offset="0.79" stop-color="#ABBDC8"/>
<stop offset="0.95" stop-color="#BCCAD7"/>
</linearGradient>
<linearGradient id="paint8_linear_4576_4059" x1="66.7037" y1="81.1994" x2="91.5947" y2="127.425" gradientUnits="userSpaceOnUse">
<stop stop-color="#1D8C21"/>
<stop offset="0.32" stop-color="#7BFB80"/>
<stop offset="0.54" stop-color="#E9FCE7"/>
<stop offset="0.77" stop-color="#51F74E"/>
<stop offset="1" stop-color="#44D441"/>
</linearGradient>
<linearGradient id="paint9_linear_4576_4059" x1="57.866" y1="82.8415" x2="99.126" y2="128.582" gradientUnits="userSpaceOnUse">
<stop stop-color="#7A96AC"/>
<stop offset="0.18" stop-color="#EAEFF3"/>
<stop offset="0.31" stop-color="#C2D4E1"/>
<stop offset="0.49" stop-color="white"/>
<stop offset="0.62" stop-color="#D4DEE5"/>
<stop offset="0.79" stop-color="#ABBDC8"/>
<stop offset="0.95" stop-color="#BCCAD7"/>
</linearGradient>
</defs>
</svg>
