<svg width="161" height="149" viewBox="0 0 161 149" fill="none" xmlns="http://www.w3.org/2000/svg">
<path d="M21.5674 78.3607C21.5674 78.3607 22.3779 73.7259 18.3145 70.0349C14.2468 66.3499 9.47759 66.6564 9.47759 66.6564C9.47759 66.6564 8.66672 72.098 12.6303 75.6908C16.5925 79.288 21.5674 78.3607 21.5674 78.3607ZM29.8774 76.9503C29.8774 76.9503 34.1455 74.2351 34.5889 68.8996C35.0339 63.5669 30.7262 60.1452 30.7262 60.1452C30.7262 60.1452 27.0333 63.1747 26.5756 68.6504C26.1192 74.1216 29.8774 76.9503 29.8774 76.9503ZM33.1153 81.9767C33.3772 87.4619 37.4731 89.7804 37.4731 89.7804C37.4731 89.7804 41.3531 86.5267 41.0974 81.1854C40.8358 75.8399 36.1195 73.0101 36.1195 73.0101C36.1195 73.0101 32.8534 76.4914 33.1153 81.9767ZM45.0614 80.1854C45.0614 80.1854 42.1371 83.9646 42.9118 89.3958C43.6911 94.8357 47.9816 96.7565 47.9816 96.7565C47.9816 96.7565 51.5347 93.1564 50.7791 87.8587C50.0207 82.5626 45.0614 80.1854 45.0614 80.1854ZM60.9829 102.52C60.9829 102.52 63.3509 98.0447 61.1027 93.1906C58.8502 88.3352 53.4137 87.4922 53.4137 87.4922C53.4137 87.4922 51.7007 91.9527 54.0085 96.9335C56.3177 101.91 60.9829 102.52 60.9829 102.52ZM22.5971 66.5607C22.5971 66.5607 25.8446 63.1555 24.5089 57.8334C23.176 52.5097 19.0406 50.1164 19.0406 50.1164C19.0406 50.1164 15.3484 54.1915 16.6492 59.3849C17.9512 64.5738 22.5971 66.5607 22.5971 66.5607ZM26.8644 88.3781C26.8644 88.3781 26.269 83.7101 21.3007 81.3855C16.3252 79.0611 11.8603 80.7571 11.8603 80.7571C11.8603 80.7571 12.6905 86.1958 17.5366 88.4635C22.3841 90.7341 26.8644 88.3781 26.8644 88.3781ZM35.5684 96.9204C35.5684 96.9204 33.9492 92.5032 28.5898 91.3395C23.2232 90.1759 19.2477 92.8247 19.2477 92.8247C19.2477 92.8247 21.2646 97.9447 26.4908 99.0795C31.7213 100.208 35.5684 96.9204 35.5684 96.9204ZM45.0406 102.78C45.0406 102.78 42.1676 99.0559 36.7043 99.575C31.2351 100.09 28.2499 103.817 28.2499 103.817C28.2499 103.817 31.7237 108.085 37.0507 107.586C42.373 107.079 45.0406 102.78 45.0406 102.78ZM49.0825 105.157C43.7186 106.323 41.1953 110.38 41.1953 110.38C41.1953 110.38 45.1511 114.201 50.3774 113.067C55.6095 111.93 57.7419 107.344 57.7419 107.344C57.7419 107.344 54.4449 103.987 49.0825 105.157Z" fill="white"/>
<path d="M21.5674 78.3607C21.5674 78.3607 22.3779 73.7259 18.3145 70.0349C14.2468 66.3499 9.47759 66.6564 9.47759 66.6564C9.47759 66.6564 8.66672 72.098 12.6303 75.6908C16.5925 79.288 21.5674 78.3607 21.5674 78.3607ZM29.8774 76.9503C29.8774 76.9503 34.1455 74.2351 34.5889 68.8996C35.0339 63.5669 30.7262 60.1452 30.7262 60.1452C30.7262 60.1452 27.0333 63.1747 26.5756 68.6504C26.1192 74.1216 29.8774 76.9503 29.8774 76.9503ZM33.1153 81.9767C33.3772 87.4619 37.4731 89.7804 37.4731 89.7804C37.4731 89.7804 41.3531 86.5267 41.0974 81.1854C40.8358 75.8399 36.1195 73.0101 36.1195 73.0101C36.1195 73.0101 32.8534 76.4914 33.1153 81.9767ZM45.0614 80.1854C45.0614 80.1854 42.1371 83.9646 42.9118 89.3958C43.6911 94.8357 47.9816 96.7565 47.9816 96.7565C47.9816 96.7565 51.5347 93.1564 50.7791 87.8587C50.0207 82.5626 45.0614 80.1854 45.0614 80.1854ZM60.9829 102.52C60.9829 102.52 63.3509 98.0447 61.1027 93.1906C58.8502 88.3352 53.4137 87.4922 53.4137 87.4922C53.4137 87.4922 51.7007 91.9527 54.0085 96.9335C56.3177 101.91 60.9829 102.52 60.9829 102.52ZM22.5971 66.5607C22.5971 66.5607 25.8446 63.1555 24.5089 57.8334C23.176 52.5097 19.0406 50.1164 19.0406 50.1164C19.0406 50.1164 15.3484 54.1915 16.6492 59.3849C17.9512 64.5738 22.5971 66.5607 22.5971 66.5607ZM26.8644 88.3781C26.8644 88.3781 26.269 83.7101 21.3007 81.3855C16.3252 79.0611 11.8603 80.7571 11.8603 80.7571C11.8603 80.7571 12.6905 86.1958 17.5366 88.4635C22.3841 90.7341 26.8644 88.3781 26.8644 88.3781ZM35.5684 96.9204C35.5684 96.9204 33.9492 92.5032 28.5898 91.3395C23.2232 90.1759 19.2477 92.8247 19.2477 92.8247C19.2477 92.8247 21.2646 97.9447 26.4908 99.0795C31.7213 100.208 35.5684 96.9204 35.5684 96.9204ZM45.0406 102.78C45.0406 102.78 42.1676 99.0559 36.7043 99.575C31.2351 100.09 28.2499 103.817 28.2499 103.817C28.2499 103.817 31.7237 108.085 37.0507 107.586C42.373 107.079 45.0406 102.78 45.0406 102.78ZM49.0825 105.157C43.7186 106.323 41.1953 110.38 41.1953 110.38C41.1953 110.38 45.1511 114.201 50.3774 113.067C55.6095 111.93 57.7419 107.344 57.7419 107.344C57.7419 107.344 54.4449 103.987 49.0825 105.157Z" fill="url(#paint0_linear_4523_39635)"/>
<path d="M21.5674 78.3607C21.5674 78.3607 22.3779 73.7259 18.3145 70.0349C14.2468 66.3499 9.47759 66.6564 9.47759 66.6564C9.47759 66.6564 8.66672 72.098 12.6303 75.6908C16.5925 79.288 21.5674 78.3607 21.5674 78.3607ZM29.8774 76.9503C29.8774 76.9503 34.1455 74.2351 34.5889 68.8996C35.0339 63.5669 30.7262 60.1452 30.7262 60.1452C30.7262 60.1452 27.0333 63.1747 26.5756 68.6504C26.1192 74.1216 29.8774 76.9503 29.8774 76.9503ZM33.1153 81.9767C33.3772 87.4619 37.4731 89.7804 37.4731 89.7804C37.4731 89.7804 41.3531 86.5267 41.0974 81.1854C40.8358 75.8399 36.1195 73.0101 36.1195 73.0101C36.1195 73.0101 32.8534 76.4914 33.1153 81.9767ZM45.0614 80.1854C45.0614 80.1854 42.1371 83.9646 42.9118 89.3958C43.6911 94.8357 47.9816 96.7565 47.9816 96.7565C47.9816 96.7565 51.5347 93.1564 50.7791 87.8587C50.0207 82.5626 45.0614 80.1854 45.0614 80.1854ZM60.9829 102.52C60.9829 102.52 63.3509 98.0447 61.1027 93.1906C58.8502 88.3352 53.4137 87.4922 53.4137 87.4922C53.4137 87.4922 51.7007 91.9527 54.0085 96.9335C56.3177 101.91 60.9829 102.52 60.9829 102.52ZM22.5971 66.5607C22.5971 66.5607 25.8446 63.1555 24.5089 57.8334C23.176 52.5097 19.0406 50.1164 19.0406 50.1164C19.0406 50.1164 15.3484 54.1915 16.6492 59.3849C17.9512 64.5738 22.5971 66.5607 22.5971 66.5607ZM26.8644 88.3781C26.8644 88.3781 26.269 83.7101 21.3007 81.3855C16.3252 79.0611 11.8603 80.7571 11.8603 80.7571C11.8603 80.7571 12.6905 86.1958 17.5366 88.4635C22.3841 90.7341 26.8644 88.3781 26.8644 88.3781ZM35.5684 96.9204C35.5684 96.9204 33.9492 92.5032 28.5898 91.3395C23.2232 90.1759 19.2477 92.8247 19.2477 92.8247C19.2477 92.8247 21.2646 97.9447 26.4908 99.0795C31.7213 100.208 35.5684 96.9204 35.5684 96.9204ZM45.0406 102.78C45.0406 102.78 42.1676 99.0559 36.7043 99.575C31.2351 100.09 28.2499 103.817 28.2499 103.817C28.2499 103.817 31.7237 108.085 37.0507 107.586C42.373 107.079 45.0406 102.78 45.0406 102.78ZM49.0825 105.157C43.7186 106.323 41.1953 110.38 41.1953 110.38C41.1953 110.38 45.1511 114.201 50.3774 113.067C55.6095 111.93 57.7419 107.344 57.7419 107.344C57.7419 107.344 54.4449 103.987 49.0825 105.157Z" fill="black" style="mix-blend-mode:hue"/>
<path d="M24.5648 69.11L21.9469 69.1879C21.9579 69.473 23.2829 97.8266 66.8927 107.606L67.4644 105.053C25.9418 95.7383 24.6 70.1926 24.5648 69.11Z" fill="white"/>
<path d="M24.5648 69.11L21.9469 69.1879C21.9579 69.473 23.2829 97.8266 66.8927 107.606L67.4644 105.053C25.9418 95.7383 24.6 70.1926 24.5648 69.11Z" fill="url(#paint1_linear_4523_39635)"/>
<path d="M24.5648 69.11L21.9469 69.1879C21.9579 69.473 23.2829 97.8266 66.8927 107.606L67.4644 105.053C25.9418 95.7383 24.6 70.1926 24.5648 69.11Z" fill="black" style="mix-blend-mode:hue"/>
<path d="M136.933 78.3607C136.933 78.3607 136.122 73.7259 140.185 70.0349C144.253 66.3499 149.022 66.6564 149.022 66.6564C149.022 66.6564 149.833 72.098 145.87 75.6908C141.907 79.288 136.933 78.3607 136.933 78.3607ZM128.623 76.9503C128.623 76.9503 124.354 74.2351 123.911 68.8996C123.466 63.5669 127.774 60.1452 127.774 60.1452C127.774 60.1452 131.467 63.1747 131.924 68.6504C132.381 74.1216 128.623 76.9503 128.623 76.9503ZM125.385 81.9767C125.123 87.4619 121.027 89.7804 121.027 89.7804C121.027 89.7804 117.147 86.5267 117.403 81.1854C117.664 75.8399 122.38 73.0101 122.38 73.0101C122.38 73.0101 125.646 76.4914 125.385 81.9767ZM113.439 80.1853C113.439 80.1853 116.363 83.9646 115.588 89.3958C114.809 94.8357 110.518 96.7565 110.518 96.7565C110.518 96.7565 106.965 93.1564 107.721 87.8587C108.479 82.5626 113.439 80.1853 113.439 80.1853ZM97.5171 102.52C97.5171 102.52 95.1491 98.0447 97.3972 93.1906C99.6498 88.3352 105.086 87.4922 105.086 87.4922C105.086 87.4922 106.799 91.9527 104.491 96.9335C102.182 101.91 97.5171 102.52 97.5171 102.52ZM135.903 66.5607C135.903 66.5607 132.655 63.1555 133.991 57.8334C135.324 52.5097 139.459 50.1164 139.459 50.1164C139.459 50.1164 143.151 54.1915 141.851 59.3849C140.549 64.5738 135.903 66.5607 135.903 66.5607ZM131.636 88.3781C131.636 88.3781 132.231 83.7101 137.199 81.3855C142.175 79.0611 146.64 80.7571 146.64 80.7571C146.64 80.7571 145.809 86.1958 140.963 88.4635C136.116 90.7341 131.636 88.3781 131.636 88.3781ZM122.932 96.9204C122.932 96.9204 124.551 92.5032 129.91 91.3395C135.277 90.1759 139.252 92.8247 139.252 92.8247C139.252 92.8247 137.235 97.9447 132.009 99.0795C126.779 100.208 122.932 96.9204 122.932 96.9204ZM113.459 102.78C113.459 102.78 116.332 99.0559 121.796 99.575C127.265 100.09 130.25 103.817 130.25 103.817C130.25 103.817 126.776 108.085 121.449 107.586C116.127 107.079 113.459 102.78 113.459 102.78ZM109.417 105.157C114.781 106.323 117.305 110.38 117.305 110.38C117.305 110.38 113.349 114.201 108.123 113.067C102.89 111.93 100.758 107.344 100.758 107.344C100.758 107.344 104.055 103.987 109.417 105.157Z" fill="white"/>
<path d="M136.933 78.3607C136.933 78.3607 136.122 73.7259 140.185 70.0349C144.253 66.3499 149.022 66.6564 149.022 66.6564C149.022 66.6564 149.833 72.098 145.87 75.6908C141.907 79.288 136.933 78.3607 136.933 78.3607ZM128.623 76.9503C128.623 76.9503 124.354 74.2351 123.911 68.8996C123.466 63.5669 127.774 60.1452 127.774 60.1452C127.774 60.1452 131.467 63.1747 131.924 68.6504C132.381 74.1216 128.623 76.9503 128.623 76.9503ZM125.385 81.9767C125.123 87.4619 121.027 89.7804 121.027 89.7804C121.027 89.7804 117.147 86.5267 117.403 81.1854C117.664 75.8399 122.38 73.0101 122.38 73.0101C122.38 73.0101 125.646 76.4914 125.385 81.9767ZM113.439 80.1853C113.439 80.1853 116.363 83.9646 115.588 89.3958C114.809 94.8357 110.518 96.7565 110.518 96.7565C110.518 96.7565 106.965 93.1564 107.721 87.8587C108.479 82.5626 113.439 80.1853 113.439 80.1853ZM97.5171 102.52C97.5171 102.52 95.1491 98.0447 97.3972 93.1906C99.6498 88.3352 105.086 87.4922 105.086 87.4922C105.086 87.4922 106.799 91.9527 104.491 96.9335C102.182 101.91 97.5171 102.52 97.5171 102.52ZM135.903 66.5607C135.903 66.5607 132.655 63.1555 133.991 57.8334C135.324 52.5097 139.459 50.1164 139.459 50.1164C139.459 50.1164 143.151 54.1915 141.851 59.3849C140.549 64.5738 135.903 66.5607 135.903 66.5607ZM131.636 88.3781C131.636 88.3781 132.231 83.7101 137.199 81.3855C142.175 79.0611 146.64 80.7571 146.64 80.7571C146.64 80.7571 145.809 86.1958 140.963 88.4635C136.116 90.7341 131.636 88.3781 131.636 88.3781ZM122.932 96.9204C122.932 96.9204 124.551 92.5032 129.91 91.3395C135.277 90.1759 139.252 92.8247 139.252 92.8247C139.252 92.8247 137.235 97.9447 132.009 99.0795C126.779 100.208 122.932 96.9204 122.932 96.9204ZM113.459 102.78C113.459 102.78 116.332 99.0559 121.796 99.575C127.265 100.09 130.25 103.817 130.25 103.817C130.25 103.817 126.776 108.085 121.449 107.586C116.127 107.079 113.459 102.78 113.459 102.78ZM109.417 105.157C114.781 106.323 117.305 110.38 117.305 110.38C117.305 110.38 113.349 114.201 108.123 113.067C102.89 111.93 100.758 107.344 100.758 107.344C100.758 107.344 104.055 103.987 109.417 105.157Z" fill="url(#paint2_linear_4523_39635)"/>
<path d="M136.933 78.3607C136.933 78.3607 136.122 73.7259 140.185 70.0349C144.253 66.3499 149.022 66.6564 149.022 66.6564C149.022 66.6564 149.833 72.098 145.87 75.6908C141.907 79.288 136.933 78.3607 136.933 78.3607ZM128.623 76.9503C128.623 76.9503 124.354 74.2351 123.911 68.8996C123.466 63.5669 127.774 60.1452 127.774 60.1452C127.774 60.1452 131.467 63.1747 131.924 68.6504C132.381 74.1216 128.623 76.9503 128.623 76.9503ZM125.385 81.9767C125.123 87.4619 121.027 89.7804 121.027 89.7804C121.027 89.7804 117.147 86.5267 117.403 81.1854C117.664 75.8399 122.38 73.0101 122.38 73.0101C122.38 73.0101 125.646 76.4914 125.385 81.9767ZM113.439 80.1853C113.439 80.1853 116.363 83.9646 115.588 89.3958C114.809 94.8357 110.518 96.7565 110.518 96.7565C110.518 96.7565 106.965 93.1564 107.721 87.8587C108.479 82.5626 113.439 80.1853 113.439 80.1853ZM97.5171 102.52C97.5171 102.52 95.1491 98.0447 97.3972 93.1906C99.6498 88.3352 105.086 87.4922 105.086 87.4922C105.086 87.4922 106.799 91.9527 104.491 96.9335C102.182 101.91 97.5171 102.52 97.5171 102.52ZM135.903 66.5607C135.903 66.5607 132.655 63.1555 133.991 57.8334C135.324 52.5097 139.459 50.1164 139.459 50.1164C139.459 50.1164 143.151 54.1915 141.851 59.3849C140.549 64.5738 135.903 66.5607 135.903 66.5607ZM131.636 88.3781C131.636 88.3781 132.231 83.7101 137.199 81.3855C142.175 79.0611 146.64 80.7571 146.64 80.7571C146.64 80.7571 145.809 86.1958 140.963 88.4635C136.116 90.7341 131.636 88.3781 131.636 88.3781ZM122.932 96.9204C122.932 96.9204 124.551 92.5032 129.91 91.3395C135.277 90.1759 139.252 92.8247 139.252 92.8247C139.252 92.8247 137.235 97.9447 132.009 99.0795C126.779 100.208 122.932 96.9204 122.932 96.9204ZM113.459 102.78C113.459 102.78 116.332 99.0559 121.796 99.575C127.265 100.09 130.25 103.817 130.25 103.817C130.25 103.817 126.776 108.085 121.449 107.586C116.127 107.079 113.459 102.78 113.459 102.78ZM109.417 105.157C114.781 106.323 117.305 110.38 117.305 110.38C117.305 110.38 113.349 114.201 108.123 113.067C102.89 111.93 100.758 107.344 100.758 107.344C100.758 107.344 104.055 103.987 109.417 105.157Z" fill="black" style="mix-blend-mode:hue"/>
<path d="M133.935 69.11L136.553 69.1879C136.542 69.473 135.217 97.8266 91.6072 107.606L91.0356 105.053C132.558 95.7383 133.9 70.1926 133.935 69.11Z" fill="white"/>
<path d="M133.935 69.11L136.553 69.1879C136.542 69.473 135.217 97.8266 91.6072 107.606L91.0356 105.053C132.558 95.7383 133.9 70.1926 133.935 69.11Z" fill="url(#paint3_linear_4523_39635)"/>
<path d="M133.935 69.11L136.553 69.1879C136.542 69.473 135.217 97.8266 91.6072 107.606L91.0356 105.053C132.558 95.7383 133.9 70.1926 133.935 69.11Z" fill="black" style="mix-blend-mode:hue"/>
<path d="M141.683 48.1024L139.46 50.1165C141.571 48.2031 141.678 48.1081 141.684 48.1042L141.686 48.1054C141.687 48.1067 141.688 48.1087 141.689 48.1101C141.692 48.113 141.696 48.1161 141.699 48.1195C141.705 48.1263 141.711 48.1344 141.719 48.1431C141.735 48.1609 141.754 48.1826 141.777 48.2086C141.821 48.2607 141.879 48.33 141.947 48.4144C142.084 48.583 142.264 48.8164 142.469 49.1083C142.878 49.6892 143.4 50.5224 143.872 51.559C144.811 53.6187 145.628 56.6511 144.761 60.1134L144.761 60.1156C144.251 62.145 143.345 63.7852 142.344 65.081C143.465 64.5765 144.533 64.2491 145.468 64.0379C146.505 63.8038 147.396 63.708 148.044 63.6714C148.369 63.653 148.637 63.6488 148.835 63.6505C148.934 63.6514 149.016 63.6534 149.08 63.6558C149.112 63.657 149.139 63.6589 149.162 63.66C149.173 63.6606 149.183 63.6601 149.192 63.6606C149.196 63.6609 149.2 63.6619 149.204 63.6621C149.206 63.6622 149.208 63.6623 149.209 63.6624L149.213 63.6619C149.214 63.6623 149.213 63.6954 149.023 66.6561C149.023 66.6561 144.253 66.3502 140.185 70.0353C136.147 73.7034 136.923 78.3036 136.933 78.3602C136.933 78.3602 141.907 79.2877 145.869 75.6907C149.833 72.0979 149.023 66.6561 149.023 66.6561C151.837 66.2366 151.982 66.2163 151.99 66.2164L151.99 66.2194C151.99 66.2211 151.99 66.2228 151.991 66.2246C151.991 66.2285 151.992 66.2332 151.993 66.2377C151.994 66.2466 151.996 66.2571 151.997 66.2686C152 66.2921 152.005 66.3212 152.009 66.3553C152.017 66.4234 152.026 66.5123 152.036 66.6202C152.056 66.8363 152.077 67.1309 152.086 67.488C152.103 68.1981 152.076 69.1807 151.894 70.3053C151.532 72.5398 150.528 75.5168 147.884 77.9137L147.883 77.9133C147.855 77.9386 147.827 77.9636 147.799 77.9886L149.971 78.8135L149.605 81.2102L146.64 80.7574L147.635 78.1326C147.634 78.1335 147.633 78.1344 147.632 78.1353C147.53 78.4075 147.276 79.0834 146.64 80.7574C146.64 80.7574 142.174 79.0613 137.199 81.3857C132.254 83.6994 131.641 88.334 131.636 88.3778C131.647 88.3836 136.122 90.7312 140.963 88.4637C145.792 86.2043 146.634 80.7968 146.64 80.7574C149.605 81.2101 149.606 81.2112 149.605 81.2124L149.605 81.215C149.604 81.2166 149.604 81.2182 149.604 81.2199C149.603 81.2237 149.603 81.2285 149.602 81.233C149.601 81.242 149.598 81.2521 149.596 81.2637C149.592 81.2871 149.588 81.3159 149.582 81.3497C149.57 81.4173 149.553 81.5057 149.531 81.6121C149.486 81.8245 149.418 82.1115 149.322 82.4552C149.129 83.139 148.813 84.0699 148.308 85.091C147.304 87.1196 145.467 89.6679 142.235 91.1804C142.227 91.1841 142.219 91.1873 142.211 91.191L142.931 91.6707L142.044 93.9243L139.252 92.8249L139.765 92.0529C139.615 92.2789 139.445 92.5359 139.252 92.8249C139.252 92.8249 135.277 90.1758 129.91 91.3392C124.58 92.4965 122.95 96.872 122.932 96.92C122.95 96.9355 126.791 100.205 132.01 99.0793L132.49 98.9612C137.346 97.633 139.242 92.8517 139.252 92.8249C141.932 93.8803 142.039 93.9233 142.043 93.9261L142.042 93.9287C142.041 93.9303 142.04 93.9326 142.039 93.9344C142.038 93.9378 142.037 93.9415 142.035 93.9454C142.032 93.9539 142.028 93.964 142.023 93.975C142.014 93.9969 142.003 94.0241 141.99 94.0557C141.963 94.1189 141.927 94.2011 141.881 94.2998C141.791 94.4969 141.661 94.7618 141.491 95.0755C141.151 95.6994 140.637 96.5371 139.918 97.4205C138.489 99.1756 136.133 101.253 132.647 102.01L134.105 103.832L132.577 105.71L130.25 103.816L132.455 102.05C132.454 102.05 132.452 102.05 132.45 102.05C132.233 102.225 131.678 102.673 130.25 103.816C130.25 103.816 127.265 100.09 121.796 99.5752C116.355 99.0582 113.483 102.75 113.459 102.78C113.459 102.78 116.127 107.079 121.45 107.586C126.776 108.085 130.25 103.816 130.25 103.816C132.455 105.611 132.57 105.706 132.575 105.712L132.574 105.714C132.573 105.715 132.572 105.717 132.571 105.719C132.568 105.722 132.565 105.725 132.563 105.729C132.557 105.736 132.55 105.744 132.542 105.753C132.527 105.771 132.508 105.793 132.486 105.819C132.441 105.871 132.382 105.938 132.308 106.019C132.162 106.179 131.959 106.394 131.701 106.641C131.188 107.133 130.444 107.774 129.491 108.398C127.597 109.638 124.722 110.905 121.169 110.573L121.165 110.573C121.09 110.566 121.016 110.557 120.942 110.548L121.132 110.853L119.389 112.537L117.304 110.38L118.071 109.902L118.07 109.902C117.844 110.042 117.591 110.202 117.304 110.38C117.282 110.344 114.913 106.567 109.912 105.274L109.417 105.156C104.055 103.988 100.758 107.344 100.758 107.344C100.782 107.395 102.92 111.936 108.123 113.067C113.326 114.196 117.269 110.414 117.304 110.38C119.389 112.537 119.388 112.538 119.387 112.539L119.386 112.541C119.384 112.542 119.382 112.543 119.381 112.545C119.378 112.547 119.376 112.55 119.372 112.553C119.366 112.56 119.358 112.567 119.35 112.575C119.333 112.592 119.311 112.612 119.285 112.635C119.235 112.681 119.168 112.741 119.086 112.812C118.922 112.954 118.694 113.142 118.409 113.356C117.841 113.783 117.026 114.331 116.005 114.837C113.978 115.841 110.973 116.755 107.487 115.999L107.485 115.999C104.105 115.264 101.749 113.416 100.272 111.812C99.532 111.009 98.9938 110.248 98.634 109.676C98.4687 109.413 98.3389 109.186 98.243 109.01C96.338 109.556 94.3464 110.066 92.264 110.533L89.3357 111.19L87.4521 102.782L90.3787 102.126C91.5863 101.855 92.7576 101.57 93.8936 101.273C93.8092 100.943 93.7298 100.587 93.6615 100.208C93.2749 98.0622 93.2219 95.0672 94.6751 91.9296L94.6755 91.9283C96.1779 88.6899 98.7215 86.8458 100.748 85.8358C101.768 85.3276 102.698 85.0079 103.381 84.8136C103.725 84.7159 104.012 84.6488 104.225 84.6037C104.331 84.5811 104.419 84.5637 104.486 84.5513C104.52 84.5452 104.549 84.5406 104.573 84.5367C104.584 84.5347 104.595 84.5326 104.604 84.5312C104.608 84.5305 104.612 84.5297 104.616 84.5291C104.618 84.5289 104.62 84.5288 104.621 84.5286L104.624 84.5281C104.626 84.5316 104.638 84.6145 104.927 86.4738L104.927 86.4725L104.627 84.528L105.604 84.3766C106.441 82.4092 107.684 80.91 108.808 79.8517C109.637 79.0711 110.435 78.4974 111.033 78.1142C111.334 77.9214 111.589 77.7729 111.779 77.6684C111.874 77.6162 111.954 77.575 112.015 77.5437C112.045 77.5282 112.071 77.5144 112.092 77.5039C112.103 77.4987 112.113 77.4937 112.121 77.4897C112.125 77.4878 112.129 77.4863 112.133 77.4847L112.14 77.481C112.141 77.4808 112.154 77.5074 113.379 80.0643L112.141 77.4801L114.328 76.4323L115.124 77.462C115.784 75.6379 116.794 74.1812 117.738 73.1097C118.491 72.255 119.233 71.6095 119.792 71.1721C120.074 70.9522 120.314 70.7814 120.493 70.6597C120.583 70.5987 120.658 70.5499 120.716 70.513C120.745 70.4946 120.77 70.4787 120.79 70.4663C120.8 70.4601 120.81 70.4542 120.818 70.4495C120.821 70.4473 120.824 70.445 120.827 70.4431L120.835 70.439C120.838 70.4422 120.865 70.4888 121.227 71.0923C121.227 71.09 121.226 71.0876 121.226 71.0853L120.837 70.4381L121.068 70.2991C121.005 69.9269 120.954 69.5435 120.921 69.1484C120.625 65.5913 121.923 62.7309 123.184 60.8511C123.819 59.905 124.47 59.168 124.968 58.6611C125.218 58.4064 125.434 58.2055 125.596 58.0613C125.677 57.989 125.745 57.93 125.798 57.8858C125.824 57.8639 125.847 57.8455 125.865 57.8305C125.874 57.823 125.883 57.8165 125.89 57.8107C125.893 57.8079 125.897 57.8046 125.9 57.8022C125.901 57.8011 125.902 57.8001 125.903 57.7991L125.906 57.7977C125.91 57.8004 125.979 57.8861 127.701 60.0533L125.907 57.7959L127.804 56.2896L129.676 57.8257L127.774 60.1451C129.676 57.8257 129.678 57.827 129.678 57.8278L129.68 57.8291C129.682 57.8301 129.683 57.8313 129.684 57.8325C129.687 57.8349 129.691 57.8377 129.694 57.8405C129.701 57.8462 129.709 57.8528 129.718 57.8601C129.735 57.8745 129.756 57.8917 129.78 57.9124C129.828 57.9541 129.889 58.0093 129.962 58.0764C130.108 58.2104 130.302 58.3955 130.527 58.6308C130.6 58.7081 130.676 58.793 130.756 58.8815C130.823 58.3078 130.928 57.7143 131.082 57.103C131.903 53.8222 133.588 51.4509 135.05 49.9119C135.782 49.1414 136.469 48.5677 136.988 48.177C137.248 47.9812 137.468 47.8291 137.634 47.7205C137.716 47.6662 137.786 47.6224 137.84 47.589C137.868 47.5724 137.892 47.5588 137.911 47.5472C137.921 47.5415 137.929 47.5358 137.937 47.5313C137.941 47.5291 137.945 47.5273 137.948 47.5254C137.95 47.5245 137.951 47.523 137.952 47.5223L137.955 47.5209C137.956 47.5209 137.98 47.5596 139.354 49.9337L137.956 47.52L140.055 46.3056L141.683 48.1024ZM133.935 69.11C133.9 70.1926 132.558 95.7383 91.036 105.053L91.6068 107.606C135.217 97.8268 136.542 69.4728 136.553 69.1877L133.935 69.11ZM113.438 80.1857C113.387 80.2103 108.475 82.5906 107.721 87.8593C106.965 93.1567 110.519 96.7567 110.519 96.7567C110.543 96.7455 114.548 94.9381 115.505 89.8955L115.588 89.396C116.266 84.644 114.112 81.1563 113.563 80.3585L113.438 80.1857C113.926 79.8086 114.314 79.5092 114.622 79.2712L114.621 79.269L113.438 80.1857ZM105.086 87.4924C105.038 87.5 99.6398 88.357 97.3973 93.1905C95.1492 98.0446 97.5172 102.521 97.5172 102.521C97.5409 102.517 101.902 101.935 104.268 97.387L104.491 96.9333C106.794 91.9631 105.093 87.5114 105.086 87.4924ZM122.38 73.0101C122.346 73.0308 117.663 75.8595 117.402 81.1851C117.146 86.5264 121.027 89.7809 121.027 89.7809C121.027 89.7809 124.871 87.6047 125.349 82.482L125.385 81.977C125.647 76.4917 122.38 73.0101 122.38 73.0101ZM20.5433 47.5203L19.0402 50.1166C20.4595 47.6641 20.5397 47.5285 20.5451 47.5216L20.5478 47.5224C20.5493 47.5232 20.551 47.5244 20.5526 47.5253C20.5559 47.5272 20.56 47.5294 20.5637 47.5316C20.5712 47.536 20.5799 47.5411 20.5894 47.5467C20.6087 47.5583 20.6323 47.5726 20.6594 47.5893C20.7136 47.6226 20.7832 47.6665 20.866 47.7208C21.0316 47.8294 21.2516 47.9811 21.5117 48.1768C22.0306 48.5675 22.7178 49.1417 23.4498 49.9123C24.912 51.4516 26.5976 53.823 27.4193 57.1048L27.4179 57.1044C27.5711 57.7149 27.6762 58.3075 27.7424 58.8805C27.8232 58.792 27.9 58.7083 27.9739 58.631C28.199 58.3956 28.3918 58.2103 28.5377 58.0763C28.6108 58.0092 28.6728 57.9548 28.7209 57.9131C28.7449 57.8924 28.765 57.8741 28.7822 57.8597C28.7908 57.8524 28.7994 57.846 28.8062 57.8403C28.8095 57.8376 28.8123 57.8346 28.8152 57.8323C28.8166 57.8311 28.8185 57.8298 28.8199 57.8287L28.8216 57.8278C28.8261 57.8313 28.9055 57.9259 30.6455 60.0468L28.8238 57.8255L30.6961 56.2901L32.5922 57.7959L30.7264 60.1454C32.5542 57.8444 32.5923 57.7974 32.594 57.7971L32.5962 57.7993C32.5975 57.8003 32.5988 57.8015 32.6002 57.8027C32.6032 57.8051 32.6065 57.8079 32.61 57.8107C32.6171 57.8165 32.6257 57.8232 32.6349 57.8307C32.6532 57.8456 32.6756 57.864 32.7017 57.886C32.7543 57.9301 32.8225 57.9887 32.9037 58.0608C33.0658 58.2051 33.2823 58.4058 33.5326 58.6606C34.0304 59.1674 34.6812 59.9052 35.3161 60.8513C36.5774 62.7312 37.8757 65.5918 37.5789 69.149L37.5776 69.1486C37.5447 69.5434 37.4935 69.9264 37.4302 70.2983L37.6632 70.438L37.2732 71.0874C37.2728 71.0892 37.272 71.0909 37.2716 71.0927C37.6344 70.4888 37.6622 70.4424 37.665 70.4392L37.6676 70.4401C37.6691 70.4409 37.6709 70.442 37.6725 70.443C37.6757 70.4449 37.679 70.4475 37.6827 70.4498C37.6905 70.4545 37.7001 70.4599 37.7102 70.4662C37.7302 70.4786 37.7546 70.4942 37.7833 70.5125C37.8413 70.5494 37.9169 70.5984 38.0069 70.6594C38.1865 70.7812 38.4267 70.9523 38.7081 71.1723C39.2676 71.6096 40.008 72.2553 40.7609 73.11C41.7048 74.1815 42.7138 75.6384 43.3744 77.4623L44.172 76.4326L46.3581 77.48L45.0619 80.1856C46.3586 77.4803 46.3596 77.4803 46.3607 77.4808L46.3625 77.4821C46.3641 77.4828 46.3657 77.4842 46.3674 77.485C46.3708 77.4867 46.3748 77.4881 46.3789 77.49C46.387 77.494 46.3966 77.4986 46.4071 77.5038C46.4284 77.5143 46.4548 77.5274 46.4854 77.543C46.5465 77.5744 46.6259 77.6168 46.7211 77.6691C46.9112 77.7736 47.1664 77.9214 47.467 78.1141C48.0649 78.4973 48.8629 79.0706 49.6922 79.8512C50.8161 80.9092 52.0567 82.4088 52.8937 84.3753L53.8736 84.5274L53.5711 86.4718C53.5714 86.4728 53.5714 86.4738 53.5716 86.4748C53.8738 84.5277 53.8752 84.5281 53.8762 84.5282L53.8784 84.5282C53.8801 84.5284 53.8818 84.5295 53.8837 84.5298C53.8875 84.5304 53.8919 84.5301 53.8964 84.5308C53.9053 84.5323 53.9155 84.5347 53.9271 84.5367C53.9505 84.5406 53.9797 84.5455 54.0135 84.5517C54.081 84.564 54.169 84.5808 54.2751 84.6033C54.4874 84.6485 54.7754 84.7164 55.1191 84.8141C55.8023 85.0083 56.7317 85.3275 57.7511 85.8355C59.7775 86.8454 62.3219 88.6893 63.8244 91.928L63.8253 91.9297C65.2785 95.0673 65.2249 98.0627 64.8383 100.208C64.77 100.587 64.689 100.942 64.6047 101.272C65.7412 101.57 66.9132 101.855 68.1213 102.126L71.0472 102.782L69.1642 111.19L66.2357 110.533C64.1531 110.066 62.1612 109.557 60.256 109.01C60.1601 109.187 60.0319 109.413 59.8668 109.676C59.5071 110.248 58.9679 111.008 58.2281 111.811C56.751 113.415 54.3949 115.264 51.014 115.999C47.5275 116.755 44.5225 115.841 42.4949 114.837C41.4743 114.331 40.6583 113.784 40.0908 113.357C39.8055 113.142 39.578 112.954 39.4138 112.812C39.3318 112.741 39.2655 112.681 39.2149 112.634C39.1896 112.611 39.1675 112.591 39.1502 112.575L39.1145 112.541L39.1127 112.539C39.1118 112.539 39.111 112.537 41.1951 110.38C41.2143 110.399 45.164 114.199 50.3776 113.067C55.6096 111.93 57.7424 107.344 57.7424 107.344C57.7424 107.344 54.6476 104.194 49.5788 105.06L49.083 105.157C43.7191 106.323 41.1951 110.38 41.1951 110.38C40.9078 110.201 40.6532 110.042 40.4271 109.902L41.1951 110.38L39.1104 112.537L37.3675 110.853L37.5557 110.549C37.4826 110.557 37.4092 110.566 37.3352 110.573L37.33 110.574C33.7775 110.906 30.9032 109.638 29.0094 108.398C28.0563 107.774 27.3113 107.132 26.7987 106.64C26.541 106.393 26.3376 106.179 26.1915 106.019C26.1183 105.939 26.0587 105.871 26.0139 105.819C25.9916 105.793 25.973 105.771 25.9578 105.753C25.9502 105.744 25.9438 105.735 25.938 105.728C25.9352 105.724 25.9323 105.722 25.9299 105.719C25.9287 105.717 25.9274 105.715 25.9263 105.714L25.9245 105.713C25.9238 105.712 25.9236 105.711 28.2503 103.817C28.2883 103.864 31.753 108.082 37.0506 107.586C42.3463 107.081 45.0137 102.823 45.0402 102.78C45.0256 102.761 42.1536 99.0578 36.7042 99.5756C31.2413 100.09 28.257 103.809 28.2503 103.817C26.8204 102.672 26.2644 102.224 26.048 102.05C26.0466 102.05 26.0451 102.05 26.0437 102.05L28.2503 103.817L25.9232 105.71L24.3941 103.831L25.8527 102.011C22.367 101.254 20.0122 99.1757 18.5835 97.4208C17.8643 96.5374 17.3486 95.7002 17.0092 95.0762C16.8385 94.7624 16.7088 94.497 16.6182 94.2998C16.5728 94.201 16.5368 94.1187 16.5099 94.0555C16.4965 94.0239 16.486 93.9965 16.477 93.9745C16.4726 93.9637 16.4684 93.954 16.465 93.9455C16.4633 93.9414 16.4614 93.9374 16.4599 93.9339C16.4593 93.9323 16.4591 93.9306 16.4585 93.9291L16.4572 93.9265C16.4568 93.9254 16.4689 93.9192 19.1979 92.8442L16.4562 93.9248L15.5686 91.671L16.2888 91.1905C16.281 91.1869 16.2732 91.1833 16.2654 91.1797L16.265 91.181C13.0327 89.6684 11.1967 87.1189 10.1926 85.0902C9.68733 84.0693 9.37071 83.1386 9.1782 82.4549C9.08143 82.1113 9.0142 81.8242 8.9696 81.6118C8.94727 81.5055 8.93029 81.4172 8.91813 81.3496C8.91206 81.3159 8.90734 81.2868 8.90347 81.2634C8.90157 81.252 8.89981 81.2418 8.8984 81.233C8.89768 81.2285 8.89651 81.2238 8.89591 81.2199C8.89564 81.2182 8.89561 81.2163 8.89536 81.2147L8.89531 81.2125C8.89512 81.2113 8.89466 81.2099 11.8341 80.7612L8.8948 81.2095L8.52852 78.8135L10.6994 77.9885C10.671 77.9631 10.6422 77.938 10.6138 77.9123C7.97125 75.5158 6.96781 72.5395 6.60638 70.3057C6.42447 69.1812 6.39622 68.1986 6.41387 67.4885C6.42276 67.1314 6.44287 66.8368 6.46289 66.6207C6.47291 66.5124 6.48294 66.423 6.49127 66.3548C6.49543 66.3207 6.49962 66.2916 6.50281 66.2681C6.50439 66.2564 6.50606 66.2459 6.50733 66.2369C6.50794 66.2327 6.50828 66.2287 6.50881 66.2251C6.50909 66.2232 6.50972 66.2207 6.50998 66.219L6.50993 66.2168C6.5101 66.2156 6.5103 66.2146 9.16893 66.6107L6.51074 66.2142L6.86701 63.8181L9.28487 63.6623L9.47709 66.6564C9.28994 63.7447 9.28598 63.6646 9.28705 63.6623L9.29055 63.6626C9.29221 63.6625 9.29399 63.6622 9.29578 63.6621C9.29959 63.6619 9.30402 63.6612 9.30842 63.6609C9.3172 63.6604 9.32743 63.6599 9.33853 63.6594C9.36094 63.6582 9.38807 63.6574 9.41971 63.6562C9.48325 63.6538 9.56531 63.6514 9.66422 63.6505C9.86221 63.6488 10.13 63.6524 10.4549 63.6708C11.1035 63.7074 11.9943 63.8036 13.0312 64.0377C13.9669 64.249 15.0342 64.578 16.1552 65.0827C15.1546 63.7867 14.2492 62.1451 13.7397 60.1151L13.7388 60.1134C12.8719 56.6513 13.6882 53.6188 14.6272 51.5591C15.0998 50.5225 15.622 49.6892 16.0306 49.1083C16.236 48.8163 16.4163 48.583 16.5528 48.4143C16.6212 48.3299 16.6789 48.2611 16.7237 48.209C16.7459 48.1832 16.7651 48.1612 16.7807 48.1435C16.7886 48.1346 16.7959 48.1258 16.802 48.119C16.805 48.1157 16.808 48.1128 16.8105 48.11C16.8118 48.1087 16.8128 48.1073 16.8139 48.106L16.8161 48.1038C16.8203 48.106 16.9048 48.1817 18.9826 50.0642L16.8173 48.102L18.4456 46.3057L20.5433 47.5203ZM151.633 63.8176L151.989 66.2142L149.023 66.6561L149.215 63.6627L151.633 63.8176ZM127.774 60.1451C127.754 60.1607 123.467 63.5794 123.911 68.8999L123.964 69.3923C124.617 74.4022 128.623 76.9503 128.623 76.9503C128.39 77.3164 128.189 77.6286 128.019 77.8964L128.019 77.8981L128.623 76.9503C128.646 76.9328 132.379 74.1048 131.924 68.6505C131.466 63.1748 127.774 60.1451 127.774 60.1451ZM21.9467 69.1875C21.9577 69.4726 23.2829 97.8264 66.8921 107.606L67.4649 105.053C25.943 95.7385 24.6004 70.1934 24.5652 69.1101L21.9467 69.1875ZM139.46 50.1165C139.46 50.1165 135.324 52.5099 133.992 57.8336L133.879 58.3264C132.859 63.3455 135.879 66.5361 135.903 66.5606C135.903 66.5606 140.263 64.6961 141.719 59.862L141.85 59.385C143.147 54.208 139.483 50.1421 139.46 50.1165ZM53.4138 87.492C53.4138 87.492 51.7004 91.9527 54.008 96.9334L54.2317 97.3874C56.5956 101.93 60.9492 102.516 60.9827 102.52C60.9867 102.513 63.2032 98.3161 61.3001 93.6449L61.1027 93.1903C58.8553 88.3465 53.4391 87.4959 53.4138 87.492ZM45.0619 80.1856C45.0619 80.1856 42.1373 83.9644 42.9117 89.3954C43.691 94.8353 47.9816 96.7569 47.9816 96.7569C47.9816 96.7569 51.5349 93.1562 50.7793 87.8585C50.025 82.5922 45.1169 80.2121 45.0619 80.1856ZM19.2472 92.8247L19.345 93.047C19.8027 94.0428 21.918 98.0863 26.4902 99.0793L26.9773 99.173C31.958 100.006 35.5688 96.9204 35.5688 96.9204C35.5688 96.9204 33.9489 92.5031 28.5895 91.3394C23.223 90.176 19.2472 92.8247 19.2472 92.8247C19.0545 92.5354 18.8847 92.2793 18.7341 92.0532L19.2472 92.8247ZM36.1197 73.0103C36.1077 73.0231 32.8534 76.5014 33.1147 81.9765L33.1513 82.4819C33.6298 87.6046 37.4731 89.7808 37.4731 89.7808C37.4731 89.7808 41.1144 86.727 41.1097 81.6803L41.0974 81.1852C40.8368 75.8637 36.1615 73.0355 36.1197 73.0103ZM43.8775 79.2711C44.1668 79.4948 44.5272 79.7722 44.9743 80.1182L43.8761 79.2685L43.8775 79.2711ZM11.8606 80.7571C11.862 80.7664 12.6945 86.1974 17.536 88.4633C22.3836 90.7339 26.8647 88.3784 26.8647 88.3784C26.8647 88.3784 26.2688 83.7102 21.3005 81.3856C16.3484 79.0722 11.9023 80.7414 11.8606 80.7571ZM30.7264 60.1454C30.7164 60.1536 27.0329 63.1822 26.5759 68.6505C26.1766 73.4381 29.004 76.2024 29.7168 76.8183L29.8771 76.95C29.8771 76.95 34.1452 74.235 34.5886 68.8995C35.0316 63.5903 30.7639 60.1753 30.7264 60.1454ZM9.47709 66.6564C9.47355 66.6803 8.67542 72.1058 12.6302 75.6907C16.5777 79.2745 21.5304 78.3677 21.5672 78.3609C21.5672 78.3609 22.3781 73.7254 18.3146 70.0344C14.247 66.3495 9.47709 66.6564 9.47709 66.6564ZM11.8606 80.7571C11.2245 79.0826 10.9693 78.4074 10.8666 78.1353C10.8658 78.1346 10.8644 78.1344 10.8635 78.1337L11.8606 80.7571ZM19.0402 50.1166C19.0017 50.1593 15.3554 54.2186 16.6489 59.3844L16.7809 59.8615C18.2371 64.6959 22.5974 66.5606 22.5974 66.5606C22.6254 66.5311 25.8388 63.1325 24.5092 57.8337C23.1764 52.51 19.0402 50.1166 19.0402 50.1166Z" fill="#20303F"/>
<path d="M99.0529 114.197C104.734 103.46 100.635 90.1485 89.8988 84.4672C79.1622 78.7859 65.8506 82.8847 60.1693 93.6213C54.4879 104.358 58.5867 117.669 69.3233 123.351C80.0599 129.032 93.3716 124.933 99.0529 114.197Z" fill="white"/>
<path d="M99.0529 114.197C104.734 103.46 100.635 90.1485 89.8988 84.4672C79.1622 78.7859 65.8506 82.8847 60.1693 93.6213C54.4879 104.358 58.5867 117.669 69.3233 123.351C80.0599 129.032 93.3716 124.933 99.0529 114.197Z" fill="url(#paint4_linear_4523_39635)"/>
<path d="M99.0529 114.197C104.734 103.46 100.635 90.1485 89.8988 84.4672C79.1622 78.7859 65.8506 82.8847 60.1693 93.6213C54.4879 104.358 58.5867 117.669 69.3233 123.351C80.0599 129.032 93.3716 124.933 99.0529 114.197Z" fill="black" style="mix-blend-mode:hue"/>
<path d="M57.5691 92.245C64.0105 80.0723 79.1024 75.4257 91.2751 81.867C103.448 88.3085 108.094 103.4 101.653 115.573C95.2116 127.746 80.1198 132.392 67.947 125.951C55.7744 119.51 51.1278 104.418 57.5691 92.245ZM89.8992 84.4676C79.1627 78.7864 65.8511 82.8847 60.1697 93.6209L59.9099 94.1268C54.6178 104.772 58.7546 117.758 69.323 123.35C79.8918 128.943 92.9562 125.059 98.781 114.695L99.0525 114.197C104.645 103.628 100.761 90.5639 90.3972 84.7391L89.8992 84.4676Z" fill="#20303F"/>
<path d="M73.4937 99.6831C73.4937 98.0148 74.0959 96.6517 75.3003 95.5938C76.5129 94.5277 78.0794 93.9946 80 93.9946C81.8473 93.9946 83.3529 94.4748 84.5166 95.4351C85.6803 96.3872 86.2622 97.6038 86.2622 99.085C86.2622 99.6139 86.1808 100.127 86.0181 100.623C85.8634 101.111 85.6112 101.604 85.2612 102.1C84.9194 102.588 84.5736 103.032 84.2236 103.431C83.8737 103.821 83.418 104.297 82.8564 104.859L78.5596 108.997V109.07H86.5063V112H73.7012V109.522L80.3418 103.125C81.237 102.23 81.8473 101.51 82.1729 100.965C82.5065 100.42 82.6733 99.8418 82.6733 99.2314C82.6733 98.5641 82.4089 98.0026 81.8799 97.5469C81.3509 97.0911 80.6836 96.8633 79.8779 96.8633C79.0234 96.8633 78.3154 97.1318 77.7539 97.6689C77.1924 98.1979 76.9116 98.8693 76.9116 99.6831V99.7441H73.4937V99.6831Z" fill="#21303F"/>
<defs>
<linearGradient id="paint0_linear_4523_39635" x1="137.215" y1="44.2865" x2="23.7624" y2="104.321" gradientUnits="userSpaceOnUse">
<stop stop-color="#FFD60A"/>
<stop offset="0.25" stop-color="#FFE770"/>
<stop offset="0.5" stop-color="#FFD60A"/>
<stop offset="0.75" stop-color="#FFE870"/>
<stop offset="1" stop-color="#FFD60A"/>
</linearGradient>
<linearGradient id="paint1_linear_4523_39635" x1="137.215" y1="44.2865" x2="23.7624" y2="104.321" gradientUnits="userSpaceOnUse">
<stop stop-color="#FFD60A"/>
<stop offset="0.25" stop-color="#FFE770"/>
<stop offset="0.5" stop-color="#FFD60A"/>
<stop offset="0.75" stop-color="#FFE870"/>
<stop offset="1" stop-color="#FFD60A"/>
</linearGradient>
<linearGradient id="paint2_linear_4523_39635" x1="137.215" y1="44.2865" x2="23.7624" y2="104.321" gradientUnits="userSpaceOnUse">
<stop stop-color="#FFD60A"/>
<stop offset="0.25" stop-color="#FFE770"/>
<stop offset="0.5" stop-color="#FFD60A"/>
<stop offset="0.75" stop-color="#FFE870"/>
<stop offset="1" stop-color="#FFD60A"/>
</linearGradient>
<linearGradient id="paint3_linear_4523_39635" x1="137.215" y1="44.2865" x2="23.7624" y2="104.321" gradientUnits="userSpaceOnUse">
<stop stop-color="#FFD60A"/>
<stop offset="0.25" stop-color="#FFE770"/>
<stop offset="0.5" stop-color="#FFD60A"/>
<stop offset="0.75" stop-color="#FFE870"/>
<stop offset="1" stop-color="#FFD60A"/>
</linearGradient>
<linearGradient id="paint4_linear_4523_39635" x1="156.896" y1="78.6475" x2="31.0086" y2="78.6475" gradientUnits="userSpaceOnUse">
<stop stop-color="#FFD60A"/>
<stop offset="0.25" stop-color="#FFE770"/>
<stop offset="0.5" stop-color="#FFD60A"/>
<stop offset="0.75" stop-color="#FFE870"/>
<stop offset="1" stop-color="#FFD60A"/>
</linearGradient>
</defs>
</svg>
