<svg width="162" height="149" viewBox="0 0 162 149" fill="none" xmlns="http://www.w3.org/2000/svg">
<path d="M47.3725 101.391C47.3725 101.391 45.7702 96.9674 40.4093 95.7866C35.0475 94.6131 31.0626 97.2512 31.0626 97.2512C31.0626 97.2512 33.0658 102.375 38.2914 103.521C43.5179 104.67 47.3725 101.391 47.3725 101.391ZM53.88 96.0344C53.88 96.0344 56.2321 91.5559 53.9629 86.7067C51.6964 81.8592 46.2575 81.0334 46.2575 81.0334C46.2575 81.0334 44.5607 85.4985 46.8872 90.4764C49.2128 95.4498 53.88 96.0344 53.88 96.0344ZM42.3965 90.6425C42.3965 90.6425 43.5199 86.0731 39.7139 82.1205C35.9096 78.165 31.1316 78.1458 31.1316 78.1458C31.1316 78.1458 29.9555 83.5175 33.6672 87.3759C37.3777 91.2297 42.3965 90.6425 42.3965 90.6425ZM56.9504 107.447C56.9504 107.447 54.112 103.694 48.6457 104.148C43.1732 104.607 40.1434 108.299 40.1434 108.299C40.1434 108.299 43.5688 112.604 48.9009 112.161C54.2356 111.719 56.9504 107.447 56.9504 107.447Z" fill="white"/>
<path d="M47.3725 101.391C47.3725 101.391 45.7702 96.9674 40.4093 95.7866C35.0475 94.6131 31.0626 97.2512 31.0626 97.2512C31.0626 97.2512 33.0658 102.375 38.2914 103.521C43.5179 104.67 47.3725 101.391 47.3725 101.391ZM53.88 96.0344C53.88 96.0344 56.2321 91.5559 53.9629 86.7067C51.6964 81.8592 46.2575 81.0334 46.2575 81.0334C46.2575 81.0334 44.5607 85.4985 46.8872 90.4764C49.2128 95.4498 53.88 96.0344 53.88 96.0344ZM42.3965 90.6425C42.3965 90.6425 43.5199 86.0731 39.7139 82.1205C35.9096 78.165 31.1316 78.1458 31.1316 78.1458C31.1316 78.1458 29.9555 83.5175 33.6672 87.3759C37.3777 91.2297 42.3965 90.6425 42.3965 90.6425ZM56.9504 107.447C56.9504 107.447 54.112 103.694 48.6457 104.148C43.1732 104.607 40.1434 108.299 40.1434 108.299C40.1434 108.299 43.5688 112.604 48.9009 112.161C54.2356 111.719 56.9504 107.447 56.9504 107.447Z" fill="#CCCCCC"/>
<path d="M45.3715 91.8753L43.1391 93.245C43.2905 93.4869 58.5432 117.425 101.24 104.217L100.466 101.718C59.8111 114.291 45.9405 92.797 45.3715 91.8753Z" fill="white"/>
<path d="M45.3715 91.8753L43.1391 93.245C43.2905 93.4869 58.5432 117.425 101.24 104.217L100.466 101.718C59.8111 114.291 45.9405 92.797 45.3715 91.8753Z" fill="#CCCCCC"/>
<path d="M99.5798 98.8519L102.444 97.9657L104.993 106.196L102.126 107.083C83.4871 112.849 69.6735 111.801 59.8535 108.471L59.4829 109.056L56.9509 107.447C56.9509 107.447 54.1119 103.694 48.6456 104.148C43.1989 104.605 40.172 108.264 40.1437 108.299C40.1495 108.306 43.5732 112.603 48.9003 112.161C54.2351 111.719 56.9509 107.447 56.9509 107.447C59.4825 109.056 59.482 109.057 59.4813 109.059L59.4803 109.06C59.4793 109.062 59.4774 109.063 59.4763 109.065L59.4528 109.102C59.4401 109.121 59.4243 109.145 59.4058 109.173C59.3686 109.228 59.3193 109.299 59.2587 109.383C59.1377 109.552 58.9692 109.775 58.7526 110.036C58.3212 110.557 57.6876 111.241 56.8492 111.941C55.1752 113.338 52.5973 114.864 49.1491 115.149L49.1494 115.151C45.593 115.446 42.7321 114.148 40.8519 112.887C39.9058 112.253 39.1682 111.603 38.6611 111.106C38.4062 110.856 38.2051 110.64 38.0608 110.478C37.9885 110.397 37.9299 110.329 37.8857 110.276C37.8637 110.25 37.8451 110.227 37.8301 110.209C37.8228 110.2 37.8162 110.192 37.8106 110.185C37.8077 110.181 37.8044 110.178 37.802 110.175C37.8008 110.173 37.7999 110.172 37.7989 110.17L37.7977 110.169C37.797 110.168 37.7959 110.167 40.1227 108.315L37.7958 110.166L36.2863 108.27L37.7592 106.474C37.7219 106.466 37.6844 106.459 37.647 106.451C34.1625 105.686 31.8116 103.603 30.3869 101.845C29.6698 100.96 29.1565 100.122 28.8186 99.497C28.6487 99.1827 28.5196 98.9172 28.4295 98.7197C28.3844 98.6208 28.3486 98.5383 28.3219 98.475C28.3086 98.4434 28.2977 98.416 28.2888 98.394C28.2843 98.3831 28.2805 98.3731 28.2772 98.3648C28.2756 98.3608 28.2739 98.3572 28.2726 98.3538C28.2719 98.352 28.2712 98.3495 28.2706 98.3479L28.2694 98.346C28.269 98.3449 28.2687 98.3439 30.7721 97.3651L28.2688 98.3433L27.3861 96.0875L29.4061 94.7497L31.0622 97.2515C29.4515 94.8186 29.4082 94.751 29.408 94.7486L29.4112 94.7471C29.4126 94.7462 29.414 94.745 29.4155 94.744C29.4187 94.7419 29.4222 94.7391 29.4259 94.7367C29.4332 94.7319 29.4419 94.7264 29.4512 94.7204C29.4701 94.7083 29.4932 94.694 29.52 94.6773C29.574 94.6436 29.644 94.6007 29.7294 94.5508C29.9003 94.4508 30.1343 94.3207 30.4254 94.175C31.0062 93.8842 31.8269 93.5246 32.8429 93.2119C33.7597 92.9297 34.8492 92.6843 36.0727 92.5646C34.5601 91.9379 32.9581 90.9642 31.5064 89.4565L31.5048 89.4554C29.0306 86.8833 28.2304 83.8465 28.0205 81.5926C27.9148 80.4583 27.9534 79.4757 28.0189 78.7684C28.0519 78.4129 28.0922 78.1209 28.1268 77.9066C28.1441 77.7994 28.16 77.711 28.1729 77.6435C28.1793 77.61 28.185 77.5814 28.1898 77.5583C28.1922 77.5467 28.1941 77.5354 28.196 77.5265C28.197 77.5221 28.1982 77.5181 28.199 77.5145C28.1994 77.5127 28.1996 77.5109 28.1999 77.5093L28.2007 77.5063C28.2054 77.5061 28.3164 77.5297 31.0553 78.1294L28.2009 77.5041L28.7199 75.1359L31.1439 75.1461L31.1313 78.1462C31.1427 75.3126 31.1449 75.155 31.1461 75.1463L31.1488 75.1457C31.1505 75.1457 31.1526 75.1459 31.1545 75.1459C31.1583 75.1459 31.1629 75.1458 31.1672 75.1458C31.176 75.1459 31.186 75.146 31.197 75.1462C31.2195 75.1466 31.2471 75.1473 31.2789 75.1482C31.3425 75.1502 31.4248 75.1537 31.5236 75.1596C31.7213 75.1714 31.9876 75.1935 32.3105 75.234C32.955 75.3148 33.8368 75.4711 34.8551 75.7755C36.8893 76.3836 39.5312 77.6024 41.8763 80.0407L41.8749 80.041C42.3115 80.4945 42.6974 80.9564 43.0399 81.4205C43.0659 81.3035 43.0909 81.1927 43.1166 81.0889C43.1948 80.7727 43.2699 80.5161 43.3298 80.3272C43.3598 80.2327 43.3865 80.1547 43.4076 80.0945C43.418 80.0646 43.4264 80.0388 43.4341 80.0177C43.438 80.0071 43.4422 79.9973 43.4453 79.989C43.4468 79.985 43.4478 79.981 43.4491 79.9775C43.4498 79.9757 43.4508 79.9737 43.4514 79.972L43.4525 79.9704C43.4581 79.9713 43.5741 80.0138 46.1385 80.9883L43.4532 79.9674L44.3137 77.7041L46.7077 78.0672L46.2578 81.0336C46.6988 78.1283 46.7085 78.0685 46.7098 78.0674L46.7128 78.0682C46.7145 78.0684 46.7162 78.0689 46.718 78.0691C46.7218 78.0697 46.7261 78.0706 46.7305 78.0713C46.7395 78.0727 46.7503 78.0743 46.7621 78.0762C46.7854 78.08 46.8139 78.0849 46.8475 78.0909C46.9151 78.103 47.0034 78.1199 47.1097 78.1422C47.3221 78.1866 47.6097 78.2531 47.9535 78.3496C48.6375 78.5417 49.5691 78.858 50.5904 79.363C52.6198 80.3664 55.1689 82.2023 56.6808 85.4359L56.6795 85.4362C58.1455 88.5694 58.1052 91.5633 57.7266 93.7102C57.5369 94.7856 57.2593 95.6754 57.023 96.3084C56.9042 96.6263 56.7941 96.8844 56.7085 97.0731C56.6657 97.1673 56.6285 97.2448 56.5993 97.3044C56.5846 97.3343 56.5719 97.3601 56.5613 97.3809C56.5561 97.3912 56.5513 97.4008 56.5471 97.4089C56.5451 97.4128 56.5429 97.4168 56.5411 97.4202L56.537 97.4268L53.8797 96.0343C53.8797 96.0343 56.2318 91.5561 53.9626 86.7068C51.706 81.8806 46.3051 81.0408 46.2578 81.0336C46.2532 81.0456 44.5641 85.5052 46.8875 90.4763C49.2018 95.4255 53.8346 96.0285 53.8797 96.0343L56.5362 97.4298L56.3814 97.7224C57.2255 98.2053 58.1399 98.6772 59.1275 99.1259C66.9813 102.695 79.8438 104.955 99.5798 98.8519ZM43.1388 93.2448C43.2901 93.4867 58.543 117.425 101.239 104.217L100.466 101.718C59.8122 114.291 45.9412 92.7975 45.3718 91.8752L43.1388 93.2448ZM31.0622 97.2515C31.071 97.274 33.0773 102.378 38.2912 103.521C43.4984 104.666 47.3439 101.416 47.3724 101.392C47.3724 101.392 45.7701 96.9669 40.4091 95.7861C35.0475 94.6127 31.0622 97.2515 31.0622 97.2515ZM40.1437 108.299C38.7589 107.162 38.2017 106.703 37.9773 106.519C37.9762 106.518 37.9749 106.519 37.9738 106.519L40.1437 108.299ZM31.1313 78.1462C31.1192 78.2023 29.9751 83.5376 33.6667 87.3756L34.0185 87.7238C37.6864 91.1934 42.3966 90.6422 42.3966 90.6422C42.4062 90.6027 43.5035 86.056 39.7143 82.1206C35.91 78.1651 31.1313 78.1462 31.1313 78.1462Z" fill="#20303F"/>
<path d="M112.724 101.391C112.724 101.391 114.326 96.9674 119.687 95.7866C125.049 94.6131 129.034 97.2512 129.034 97.2512C129.034 97.2512 127.031 102.375 121.805 103.521C116.578 104.67 112.724 101.391 112.724 101.391ZM106.216 96.0344C106.216 96.0344 103.864 91.5559 106.133 86.7067C108.4 81.8592 113.839 81.0334 113.839 81.0334C113.839 81.0334 115.536 85.4985 113.209 90.4764C110.884 95.4498 106.216 96.0344 106.216 96.0344ZM117.7 90.6425C117.7 90.6425 116.576 86.0731 120.382 82.1205C124.187 78.165 128.965 78.1458 128.965 78.1458C128.965 78.1458 130.141 83.5175 126.429 87.3759C122.719 91.2297 117.7 90.6425 117.7 90.6425ZM103.146 107.447C103.146 107.447 105.984 103.694 111.451 104.148C116.923 104.607 119.953 108.299 119.953 108.299C119.953 108.299 116.528 112.604 111.196 112.161C105.861 111.719 103.146 107.447 103.146 107.447Z" fill="white"/>
<path d="M112.724 101.391C112.724 101.391 114.326 96.9674 119.687 95.7866C125.049 94.6131 129.034 97.2512 129.034 97.2512C129.034 97.2512 127.031 102.375 121.805 103.521C116.578 104.67 112.724 101.391 112.724 101.391ZM106.216 96.0344C106.216 96.0344 103.864 91.5559 106.133 86.7067C108.4 81.8592 113.839 81.0334 113.839 81.0334C113.839 81.0334 115.536 85.4985 113.209 90.4764C110.884 95.4498 106.216 96.0344 106.216 96.0344ZM117.7 90.6425C117.7 90.6425 116.576 86.0731 120.382 82.1205C124.187 78.165 128.965 78.1458 128.965 78.1458C128.965 78.1458 130.141 83.5175 126.429 87.3759C122.719 91.2297 117.7 90.6425 117.7 90.6425ZM103.146 107.447C103.146 107.447 105.984 103.694 111.451 104.148C116.923 104.607 119.953 108.299 119.953 108.299C119.953 108.299 116.528 112.604 111.196 112.161C105.861 111.719 103.146 107.447 103.146 107.447Z" fill="#CCCCCC"/>
<path d="M114.725 91.8753L116.957 93.245C116.806 93.4869 101.553 117.425 58.8567 104.217L59.6305 101.718C100.285 114.291 114.156 92.797 114.725 91.8753Z" fill="white"/>
<path d="M114.725 91.8753L116.957 93.245C116.806 93.4869 101.553 117.425 58.8567 104.217L59.6305 101.718C100.285 114.291 114.156 92.797 114.725 91.8753Z" fill="#CCCCCC"/>
<path d="M60.5166 98.8519L57.6521 97.9657L55.1035 106.196L57.9707 107.083C76.6092 112.849 90.4229 111.801 100.243 108.471L100.613 109.056L103.146 107.447C103.146 107.447 105.984 103.694 111.451 104.148C116.898 104.605 119.924 108.264 119.953 108.299C119.947 108.306 116.523 112.603 111.196 112.161C105.861 111.719 103.146 107.447 103.146 107.447C100.614 109.056 100.614 109.057 100.615 109.059L100.616 109.06C100.617 109.062 100.619 109.063 100.62 109.065L100.644 109.102C100.656 109.121 100.672 109.145 100.691 109.173C100.728 109.228 100.777 109.299 100.838 109.383C100.959 109.552 101.127 109.775 101.344 110.036C101.775 110.557 102.409 111.241 103.247 111.941C104.921 113.338 107.499 114.864 110.947 115.149L110.947 115.151C114.503 115.446 117.364 114.148 119.244 112.887C120.191 112.253 120.928 111.603 121.435 111.106C121.69 110.856 121.891 110.64 122.036 110.478C122.108 110.397 122.166 110.329 122.211 110.276C122.233 110.25 122.251 110.227 122.266 110.209C122.274 110.2 122.28 110.192 122.286 110.185C122.289 110.181 122.292 110.178 122.294 110.175C122.296 110.173 122.296 110.172 122.298 110.17L122.299 110.169C122.299 110.168 122.301 110.167 119.974 108.315L122.301 110.166L123.81 108.27L122.337 106.474C122.374 106.466 122.412 106.459 122.449 106.451C125.934 105.686 128.285 103.603 129.709 101.845C130.427 100.96 130.94 100.122 131.278 99.497C131.448 99.1827 131.577 98.9172 131.667 98.7197C131.712 98.6208 131.748 98.5383 131.774 98.475C131.788 98.4434 131.799 98.416 131.808 98.394C131.812 98.3831 131.816 98.3731 131.819 98.3648C131.821 98.3608 131.822 98.3572 131.824 98.3538C131.824 98.352 131.825 98.3495 131.826 98.3479L131.827 98.346C131.827 98.3449 131.828 98.3439 129.324 97.3651L131.828 98.3433L132.71 96.0875L130.69 94.7497L129.034 97.2515C130.645 94.8186 130.688 94.751 130.688 94.7486L130.685 94.7471C130.684 94.7462 130.682 94.745 130.681 94.744C130.678 94.7419 130.674 94.7391 130.671 94.7367C130.663 94.7319 130.655 94.7264 130.645 94.7204C130.626 94.7083 130.603 94.694 130.576 94.6773C130.522 94.6436 130.452 94.6007 130.367 94.5508C130.196 94.4508 129.962 94.3207 129.671 94.175C129.09 93.8842 128.269 93.5246 127.254 93.2119C126.337 92.9297 125.247 92.6843 124.024 92.5646C125.536 91.9379 127.138 90.9642 128.59 89.4565L128.592 89.4554C131.066 86.8833 131.866 83.8465 132.076 81.5926C132.182 80.4583 132.143 79.4757 132.077 78.7684C132.044 78.4129 132.004 78.1209 131.97 77.9066C131.952 77.7994 131.936 77.711 131.923 77.6435C131.917 77.61 131.911 77.5814 131.907 77.5583C131.904 77.5467 131.902 77.5354 131.9 77.5265C131.899 77.5221 131.898 77.5181 131.897 77.5145C131.897 77.5127 131.897 77.5109 131.896 77.5093L131.896 77.5063C131.891 77.5061 131.78 77.5297 129.041 78.1294L131.895 77.5041L131.376 75.1359L128.952 75.1461L128.965 78.1462C128.954 75.3126 128.951 75.155 128.95 75.1463L128.948 75.1457C128.946 75.1457 128.944 75.1459 128.942 75.1459C128.938 75.1459 128.933 75.1458 128.929 75.1458C128.92 75.1459 128.91 75.146 128.899 75.1462C128.877 75.1466 128.849 75.1473 128.817 75.1482C128.754 75.1502 128.672 75.1537 128.573 75.1596C128.375 75.1714 128.109 75.1935 127.786 75.234C127.141 75.3148 126.26 75.4711 125.241 75.7755C123.207 76.3836 120.565 77.6024 118.22 80.0407L118.221 80.041C117.785 80.4945 117.399 80.9564 117.056 81.4205C117.03 81.3035 117.005 81.1927 116.98 81.0889C116.902 80.7727 116.827 80.5161 116.767 80.3272C116.737 80.2327 116.71 80.1547 116.689 80.0945C116.678 80.0646 116.67 80.0388 116.662 80.0177C116.658 80.0071 116.654 79.9973 116.651 79.989C116.65 79.985 116.649 79.981 116.647 79.9775C116.647 79.9757 116.646 79.9737 116.645 79.972L116.644 79.9704C116.638 79.9713 116.522 80.0138 113.958 80.9883L116.643 79.9674L115.783 77.7041L113.389 78.0672L113.839 81.0336C113.398 78.1283 113.388 78.0685 113.387 78.0674L113.384 78.0682C113.382 78.0684 113.38 78.0689 113.378 78.0691C113.375 78.0697 113.37 78.0706 113.366 78.0713C113.357 78.0727 113.346 78.0743 113.334 78.0762C113.311 78.08 113.282 78.0849 113.249 78.0909C113.181 78.103 113.093 78.1199 112.987 78.1422C112.774 78.1866 112.487 78.2531 112.143 78.3496C111.459 78.5417 110.527 78.858 109.506 79.363C107.477 80.3664 104.927 82.2023 103.416 85.4359L103.417 85.4362C101.951 88.5694 101.991 91.5633 102.37 93.7102C102.56 94.7856 102.837 95.6754 103.073 96.3084C103.192 96.6263 103.302 96.8844 103.388 97.0731C103.431 97.1673 103.468 97.2448 103.497 97.3044C103.512 97.3343 103.524 97.3601 103.535 97.3809C103.54 97.3912 103.545 97.4008 103.549 97.4089C103.551 97.4128 103.553 97.4168 103.555 97.4202L103.559 97.4268L106.217 96.0343C106.217 96.0343 103.865 91.5561 106.134 86.7068C108.39 81.8806 113.791 81.0408 113.839 81.0336C113.843 81.0456 115.532 85.5052 113.209 90.4763C110.895 95.4255 106.262 96.0285 106.217 96.0343L103.56 97.4298L103.715 97.7224C102.871 98.2053 101.956 98.6772 100.969 99.1259C93.1151 102.695 80.2526 104.955 60.5166 98.8519ZM116.958 93.2448C116.806 93.4867 101.553 117.425 58.8573 104.217L59.63 101.718C100.284 114.291 114.155 92.7975 114.725 91.8752L116.958 93.2448ZM129.034 97.2515C129.025 97.274 127.019 102.378 121.805 103.521C116.598 104.666 112.752 101.416 112.724 101.392C112.724 101.392 114.326 96.9669 119.687 95.7861C125.049 94.6127 129.034 97.2515 129.034 97.2515ZM119.953 108.299C121.337 107.162 121.895 106.703 122.119 106.519C122.12 106.518 122.121 106.519 122.123 106.519L119.953 108.299ZM128.965 78.1462C128.977 78.2023 130.121 83.5376 126.43 87.3756L126.078 87.7238C122.41 91.1934 117.7 90.6422 117.7 90.6422C117.69 90.6027 116.593 86.056 120.382 82.1206C124.186 78.1651 128.965 78.1462 128.965 78.1462Z" fill="#20303F"/>
<path d="M99.3909 114.196C105.072 103.459 100.973 90.1478 90.2368 84.4664C79.5002 78.7851 66.1886 82.8839 60.5073 93.6205C54.826 104.357 58.9248 117.669 69.6614 123.35C80.398 129.031 93.7096 124.933 99.3909 114.196Z" fill="white"/>
<path d="M99.3909 114.196C105.072 103.459 100.973 90.1478 90.2368 84.4664C79.5002 78.7851 66.1886 82.8839 60.5073 93.6205C54.826 104.357 58.9248 117.669 69.6614 123.35C80.398 129.031 93.7096 124.933 99.3909 114.196Z" fill="#CCCCCC"/>
<path d="M57.9071 92.2442C64.3486 80.0716 79.4404 75.425 91.6132 81.8663C103.786 88.3077 108.432 103.4 101.991 115.572C95.5497 127.745 80.4578 132.392 68.285 125.95C56.1124 119.509 51.4658 104.417 57.9071 92.2442ZM90.2372 84.4668C79.5007 78.7856 66.1892 82.8839 60.5077 93.6202L60.2479 94.126C54.9558 104.771 59.0926 117.757 69.661 123.35C80.2299 128.942 93.2942 125.058 99.119 114.694L99.3905 114.196C104.983 103.627 101.099 90.5632 90.7352 84.7383L90.2372 84.4668Z" fill="#20303F"/>
</svg>
