<svg width="161" height="149" viewBox="0 0 161 149" fill="none" xmlns="http://www.w3.org/2000/svg">
<path d="M21.251 78.3607C21.251 78.3607 22.0615 73.7259 17.9981 70.0349C13.9305 66.3499 9.16121 66.6564 9.16121 66.6564C9.16121 66.6564 8.35034 72.098 12.3139 75.6908C16.2762 79.288 21.251 78.3607 21.251 78.3607ZM29.561 76.9503C29.561 76.9503 33.8291 74.2351 34.2726 68.8996C34.7175 63.5669 30.4099 60.1452 30.4099 60.1452C30.4099 60.1452 26.7169 63.1747 26.2592 68.6504C25.8029 74.1216 29.561 76.9503 29.561 76.9503ZM32.799 81.9767C33.0609 87.4619 37.1567 89.7804 37.1567 89.7804C37.1567 89.7804 41.0367 86.5267 40.781 81.1854C40.5195 75.8399 35.8031 73.0101 35.8031 73.0101C35.8031 73.0101 32.5371 76.4914 32.799 81.9767ZM44.745 80.1854C44.745 80.1854 41.8208 83.9646 42.5954 89.3958C43.3747 94.8357 47.6652 96.7565 47.6652 96.7565C47.6652 96.7565 51.2184 93.1564 50.4628 87.8587C49.7043 82.5626 44.745 80.1854 44.745 80.1854ZM60.6665 102.52C60.6665 102.52 63.0345 98.0447 60.7863 93.1906C58.5338 88.3352 53.0973 87.4922 53.0973 87.4922C53.0973 87.4922 51.3843 91.9527 53.6921 96.9335C56.0014 101.91 60.6665 102.52 60.6665 102.52ZM22.2808 66.5607C22.2808 66.5607 25.5282 63.1555 24.1925 57.8334C22.8596 52.5097 18.7242 50.1164 18.7242 50.1164C18.7242 50.1164 15.0321 54.1915 16.3328 59.3849C17.6348 64.5738 22.2808 66.5607 22.2808 66.5607ZM26.548 88.3781C26.548 88.3781 25.9526 83.7101 20.9843 81.3855C16.0088 79.0611 11.5439 80.7571 11.5439 80.7571C11.5439 80.7571 12.3741 86.1958 17.2202 88.4635C22.0678 90.7341 26.548 88.3781 26.548 88.3781ZM35.2521 96.9204C35.2521 96.9204 33.6329 92.5032 28.2735 91.3395C22.9068 90.1759 18.9313 92.8247 18.9313 92.8247C18.9313 92.8247 20.9482 97.9447 26.1744 99.0795C31.4049 100.208 35.2521 96.9204 35.2521 96.9204ZM44.7243 102.78C44.7243 102.78 41.8513 99.0559 36.3879 99.575C30.9187 100.09 27.9335 103.817 27.9335 103.817C27.9335 103.817 31.4074 108.085 36.7343 107.586C42.0566 107.079 44.7243 102.78 44.7243 102.78ZM48.7661 105.157C43.4022 106.323 40.8789 110.38 40.8789 110.38C40.8789 110.38 44.8347 114.201 50.061 113.067C55.2931 111.93 57.4256 107.344 57.4256 107.344C57.4256 107.344 54.1285 103.987 48.7661 105.157Z" fill="white"/>
<path d="M21.251 78.3607C21.251 78.3607 22.0615 73.7259 17.9981 70.0349C13.9305 66.3499 9.16121 66.6564 9.16121 66.6564C9.16121 66.6564 8.35034 72.098 12.3139 75.6908C16.2762 79.288 21.251 78.3607 21.251 78.3607ZM29.561 76.9503C29.561 76.9503 33.8291 74.2351 34.2726 68.8996C34.7175 63.5669 30.4099 60.1452 30.4099 60.1452C30.4099 60.1452 26.7169 63.1747 26.2592 68.6504C25.8029 74.1216 29.561 76.9503 29.561 76.9503ZM32.799 81.9767C33.0609 87.4619 37.1567 89.7804 37.1567 89.7804C37.1567 89.7804 41.0367 86.5267 40.781 81.1854C40.5195 75.8399 35.8031 73.0101 35.8031 73.0101C35.8031 73.0101 32.5371 76.4914 32.799 81.9767ZM44.745 80.1854C44.745 80.1854 41.8208 83.9646 42.5954 89.3958C43.3747 94.8357 47.6652 96.7565 47.6652 96.7565C47.6652 96.7565 51.2184 93.1564 50.4628 87.8587C49.7043 82.5626 44.745 80.1854 44.745 80.1854ZM60.6665 102.52C60.6665 102.52 63.0345 98.0447 60.7863 93.1906C58.5338 88.3352 53.0973 87.4922 53.0973 87.4922C53.0973 87.4922 51.3843 91.9527 53.6921 96.9335C56.0014 101.91 60.6665 102.52 60.6665 102.52ZM22.2808 66.5607C22.2808 66.5607 25.5282 63.1555 24.1925 57.8334C22.8596 52.5097 18.7242 50.1164 18.7242 50.1164C18.7242 50.1164 15.0321 54.1915 16.3328 59.3849C17.6348 64.5738 22.2808 66.5607 22.2808 66.5607ZM26.548 88.3781C26.548 88.3781 25.9526 83.7101 20.9843 81.3855C16.0088 79.0611 11.5439 80.7571 11.5439 80.7571C11.5439 80.7571 12.3741 86.1958 17.2202 88.4635C22.0678 90.7341 26.548 88.3781 26.548 88.3781ZM35.2521 96.9204C35.2521 96.9204 33.6329 92.5032 28.2735 91.3395C22.9068 90.1759 18.9313 92.8247 18.9313 92.8247C18.9313 92.8247 20.9482 97.9447 26.1744 99.0795C31.4049 100.208 35.2521 96.9204 35.2521 96.9204ZM44.7243 102.78C44.7243 102.78 41.8513 99.0559 36.3879 99.575C30.9187 100.09 27.9335 103.817 27.9335 103.817C27.9335 103.817 31.4074 108.085 36.7343 107.586C42.0566 107.079 44.7243 102.78 44.7243 102.78ZM48.7661 105.157C43.4022 106.323 40.8789 110.38 40.8789 110.38C40.8789 110.38 44.8347 114.201 50.061 113.067C55.2931 111.93 57.4256 107.344 57.4256 107.344C57.4256 107.344 54.1285 103.987 48.7661 105.157Z" fill="url(#paint0_linear_4523_39624)"/>
<path d="M24.2485 69.11L21.6306 69.1879C21.6415 69.473 22.9665 97.8266 66.5763 107.606L67.148 105.053C25.6254 95.7383 24.2836 70.1926 24.2485 69.11Z" fill="white"/>
<path d="M24.2485 69.11L21.6306 69.1879C21.6415 69.473 22.9665 97.8266 66.5763 107.606L67.148 105.053C25.6254 95.7383 24.2836 70.1926 24.2485 69.11Z" fill="url(#paint1_linear_4523_39624)"/>
<path d="M136.616 78.3607C136.616 78.3607 135.806 73.7259 139.869 70.0349C143.937 66.3499 148.706 66.6564 148.706 66.6564C148.706 66.6564 149.517 72.098 145.553 75.6908C141.591 79.288 136.616 78.3607 136.616 78.3607ZM128.306 76.9503C128.306 76.9503 124.038 74.2351 123.595 68.8996C123.15 63.5669 127.457 60.1452 127.457 60.1452C127.457 60.1452 131.15 63.1747 131.608 68.6504C132.064 74.1216 128.306 76.9503 128.306 76.9503ZM125.068 81.9767C124.806 87.4619 120.71 89.7804 120.71 89.7804C120.71 89.7804 116.83 86.5267 117.086 81.1854C117.348 75.8399 122.064 73.0101 122.064 73.0101C122.064 73.0101 125.33 76.4914 125.068 81.9767ZM113.122 80.1853C113.122 80.1853 116.046 83.9646 115.272 89.3958C114.492 94.8357 110.202 96.7565 110.202 96.7565C110.202 96.7565 106.649 93.1564 107.404 87.8587C108.163 82.5626 113.122 80.1853 113.122 80.1853ZM97.2007 102.52C97.2007 102.52 94.8327 98.0447 97.0809 93.1906C99.3334 88.3352 104.77 87.4922 104.77 87.4922C104.77 87.4922 106.483 91.9527 104.175 96.9335C101.866 101.91 97.2007 102.52 97.2007 102.52ZM135.586 66.5607C135.586 66.5607 132.339 63.1555 133.675 57.8334C135.008 52.5097 139.143 50.1164 139.143 50.1164C139.143 50.1164 142.835 54.1915 141.534 59.3849C140.232 64.5738 135.586 66.5607 135.586 66.5607ZM131.319 88.3781C131.319 88.3781 131.915 83.7101 136.883 81.3855C141.858 79.0611 146.323 80.7571 146.323 80.7571C146.323 80.7571 145.493 86.1958 140.647 88.4635C135.799 90.7341 131.319 88.3781 131.319 88.3781ZM122.615 96.9204C122.615 96.9204 124.234 92.5032 129.594 91.3395C134.96 90.1759 138.936 92.8247 138.936 92.8247C138.936 92.8247 136.919 97.9447 131.693 99.0795C126.462 100.208 122.615 96.9204 122.615 96.9204ZM113.143 102.78C113.143 102.78 116.016 99.0559 121.479 99.575C126.948 100.09 129.934 103.817 129.934 103.817C129.934 103.817 126.46 108.085 121.133 107.586C115.811 107.079 113.143 102.78 113.143 102.78ZM109.101 105.157C114.465 106.323 116.988 110.38 116.988 110.38C116.988 110.38 113.032 114.201 107.806 113.067C102.574 111.93 100.442 107.344 100.442 107.344C100.442 107.344 103.739 103.987 109.101 105.157Z" fill="white"/>
<path d="M136.616 78.3607C136.616 78.3607 135.806 73.7259 139.869 70.0349C143.937 66.3499 148.706 66.6564 148.706 66.6564C148.706 66.6564 149.517 72.098 145.553 75.6908C141.591 79.288 136.616 78.3607 136.616 78.3607ZM128.306 76.9503C128.306 76.9503 124.038 74.2351 123.595 68.8996C123.15 63.5669 127.457 60.1452 127.457 60.1452C127.457 60.1452 131.15 63.1747 131.608 68.6504C132.064 74.1216 128.306 76.9503 128.306 76.9503ZM125.068 81.9767C124.806 87.4619 120.71 89.7804 120.71 89.7804C120.71 89.7804 116.83 86.5267 117.086 81.1854C117.348 75.8399 122.064 73.0101 122.064 73.0101C122.064 73.0101 125.33 76.4914 125.068 81.9767ZM113.122 80.1853C113.122 80.1853 116.046 83.9646 115.272 89.3958C114.492 94.8357 110.202 96.7565 110.202 96.7565C110.202 96.7565 106.649 93.1564 107.404 87.8587C108.163 82.5626 113.122 80.1853 113.122 80.1853ZM97.2007 102.52C97.2007 102.52 94.8327 98.0447 97.0809 93.1906C99.3334 88.3352 104.77 87.4922 104.77 87.4922C104.77 87.4922 106.483 91.9527 104.175 96.9335C101.866 101.91 97.2007 102.52 97.2007 102.52ZM135.586 66.5607C135.586 66.5607 132.339 63.1555 133.675 57.8334C135.008 52.5097 139.143 50.1164 139.143 50.1164C139.143 50.1164 142.835 54.1915 141.534 59.3849C140.232 64.5738 135.586 66.5607 135.586 66.5607ZM131.319 88.3781C131.319 88.3781 131.915 83.7101 136.883 81.3855C141.858 79.0611 146.323 80.7571 146.323 80.7571C146.323 80.7571 145.493 86.1958 140.647 88.4635C135.799 90.7341 131.319 88.3781 131.319 88.3781ZM122.615 96.9204C122.615 96.9204 124.234 92.5032 129.594 91.3395C134.96 90.1759 138.936 92.8247 138.936 92.8247C138.936 92.8247 136.919 97.9447 131.693 99.0795C126.462 100.208 122.615 96.9204 122.615 96.9204ZM113.143 102.78C113.143 102.78 116.016 99.0559 121.479 99.575C126.948 100.09 129.934 103.817 129.934 103.817C129.934 103.817 126.46 108.085 121.133 107.586C115.811 107.079 113.143 102.78 113.143 102.78ZM109.101 105.157C114.465 106.323 116.988 110.38 116.988 110.38C116.988 110.38 113.032 114.201 107.806 113.067C102.574 111.93 100.442 107.344 100.442 107.344C100.442 107.344 103.739 103.987 109.101 105.157Z" fill="url(#paint2_linear_4523_39624)"/>
<path d="M133.619 69.11L136.237 69.1879C136.226 69.473 134.901 97.8266 91.2909 107.606L90.7192 105.053C132.242 95.7383 133.584 70.1926 133.619 69.11Z" fill="white"/>
<path d="M133.619 69.11L136.237 69.1879C136.226 69.473 134.901 97.8266 91.2909 107.606L90.7192 105.053C132.242 95.7383 133.584 70.1926 133.619 69.11Z" fill="url(#paint3_linear_4523_39624)"/>
<path d="M141.367 48.1024L139.143 50.1165C141.255 48.2031 141.361 48.1081 141.367 48.1042L141.369 48.1054C141.37 48.1067 141.372 48.1087 141.373 48.1101C141.375 48.113 141.379 48.1161 141.382 48.1195C141.388 48.1263 141.395 48.1344 141.402 48.1431C141.418 48.1609 141.438 48.1826 141.46 48.2086C141.505 48.2607 141.563 48.33 141.631 48.4144C141.768 48.583 141.948 48.8164 142.153 49.1083C142.562 49.6892 143.083 50.5224 143.556 51.559C144.495 53.6187 145.311 56.6511 144.444 60.1134L144.444 60.1156C143.935 62.145 143.028 63.7852 142.028 65.081C143.149 64.5765 144.216 64.2491 145.152 64.0379C146.189 63.8038 147.079 63.708 147.728 63.6714C148.053 63.653 148.321 63.6488 148.519 63.6505C148.618 63.6514 148.7 63.6534 148.764 63.6558C148.795 63.657 148.823 63.6589 148.845 63.66C148.857 63.6606 148.867 63.6601 148.876 63.6606C148.88 63.6609 148.884 63.6619 148.887 63.6621C148.889 63.6622 148.891 63.6623 148.893 63.6624L148.896 63.6619C148.897 63.6623 148.896 63.6954 148.706 66.6561C148.706 66.6561 143.937 66.3502 139.869 70.0353C135.831 73.7034 136.607 78.3036 136.616 78.3602C136.616 78.3602 141.591 79.2877 145.553 75.6907C149.516 72.0979 148.706 66.6561 148.706 66.6561C151.521 66.2366 151.666 66.2163 151.673 66.2164L151.674 66.2194C151.674 66.2211 151.674 66.2228 151.674 66.2246C151.675 66.2285 151.676 66.2332 151.677 66.2377C151.678 66.2466 151.679 66.2571 151.681 66.2686C151.684 66.2921 151.688 66.3212 151.692 66.3553C151.701 66.4234 151.71 66.5123 151.72 66.6202C151.74 66.8363 151.76 67.1309 151.769 67.488C151.787 68.1981 151.759 69.1807 151.577 70.3053C151.216 72.5398 150.212 75.5168 147.568 77.9137L147.566 77.9133C147.539 77.9386 147.511 77.9636 147.483 77.9886L149.655 78.8135L149.289 81.2102L146.324 80.7574L147.319 78.1326C147.318 78.1335 147.317 78.1344 147.316 78.1353C147.213 78.4075 146.96 79.0834 146.324 80.7574C146.324 80.7574 141.858 79.0613 136.883 81.3857C131.938 83.6994 131.325 88.334 131.319 88.3778C131.33 88.3836 135.805 90.7312 140.647 88.4637C145.475 86.2043 146.318 80.7968 146.324 80.7574C149.289 81.2101 149.289 81.2112 149.289 81.2124L149.288 81.215C149.288 81.2166 149.288 81.2182 149.287 81.2199C149.287 81.2237 149.286 81.2285 149.286 81.233C149.284 81.242 149.282 81.2521 149.28 81.2637C149.276 81.2871 149.272 81.3159 149.266 81.3497C149.253 81.4173 149.237 81.5057 149.214 81.6121C149.17 81.8245 149.102 82.1115 149.005 82.4552C148.813 83.139 148.497 84.0699 147.991 85.091C146.987 87.1196 145.151 89.6679 141.919 91.1804C141.911 91.1841 141.902 91.1873 141.894 91.191L142.614 91.6707L141.728 93.9243L138.936 92.8249L139.449 92.0529C139.299 92.2789 139.129 92.5359 138.936 92.8249C138.936 92.8249 134.96 90.1758 129.594 91.3392C124.264 92.4965 122.633 96.872 122.616 96.92C122.634 96.9355 126.475 100.205 131.693 99.0793L132.173 98.9612C137.029 97.633 138.925 92.8517 138.936 92.8249C141.615 93.8803 141.722 93.9233 141.726 93.9261L141.725 93.9287C141.725 93.9303 141.724 93.9326 141.723 93.9344C141.722 93.9378 141.72 93.9415 141.719 93.9454C141.715 93.9539 141.711 93.964 141.707 93.975C141.698 93.9969 141.687 94.0241 141.673 94.0557C141.647 94.1189 141.61 94.2011 141.565 94.2998C141.474 94.4969 141.345 94.7618 141.174 95.0755C140.835 95.6994 140.32 96.5371 139.601 97.4205C138.172 99.1756 135.817 101.253 132.33 102.01L133.789 103.832L132.261 105.71L129.934 103.816L132.139 102.05C132.137 102.05 132.136 102.05 132.134 102.05C131.917 102.225 131.361 102.673 129.934 103.816C129.934 103.816 126.949 100.09 121.479 99.5752C116.038 99.0582 113.166 102.75 113.143 102.78C113.143 102.78 115.811 107.079 121.133 107.586C126.46 108.085 129.934 103.816 129.934 103.816C132.139 105.611 132.253 105.706 132.258 105.712L132.257 105.714C132.256 105.715 132.255 105.717 132.254 105.719C132.252 105.722 132.249 105.725 132.246 105.729C132.24 105.736 132.233 105.744 132.226 105.753C132.211 105.771 132.192 105.793 132.169 105.819C132.124 105.871 132.065 105.938 131.992 106.019C131.846 106.179 131.642 106.394 131.384 106.641C130.872 107.133 130.127 107.774 129.174 108.398C127.28 109.638 124.406 110.905 120.853 110.573L120.849 110.573C120.774 110.566 120.7 110.557 120.626 110.548L120.816 110.853L119.073 112.537L116.988 110.38L117.755 109.902L117.753 109.902C117.528 110.042 117.274 110.202 116.988 110.38C116.966 110.344 114.597 106.567 109.596 105.274L109.101 105.156C103.738 103.988 100.442 107.344 100.442 107.344C100.465 107.395 102.604 111.936 107.806 113.067C113.009 114.196 116.953 110.414 116.988 110.38C119.072 112.537 119.072 112.538 119.071 112.539L119.069 112.541C119.068 112.542 119.066 112.543 119.065 112.545C119.062 112.547 119.059 112.55 119.056 112.553C119.05 112.56 119.042 112.567 119.033 112.575C119.016 112.592 118.994 112.612 118.969 112.635C118.918 112.681 118.852 112.741 118.77 112.812C118.606 112.954 118.378 113.142 118.092 113.356C117.525 113.783 116.709 114.331 115.689 114.837C113.661 115.841 110.657 116.755 107.17 115.999L107.169 115.999C103.788 115.264 101.432 113.416 99.9553 111.812C99.2156 111.009 98.6775 110.248 98.3177 109.676C98.1523 109.413 98.0226 109.186 97.9266 109.01C96.0216 109.556 94.0301 110.066 91.9477 110.533L89.0193 111.19L87.1357 102.782L90.0623 102.126C91.2699 101.855 92.4412 101.57 93.5772 101.273C93.4928 100.943 93.4135 100.587 93.3452 100.208C92.9586 98.0622 92.9055 95.0672 94.3587 91.9296L94.3591 91.9283C95.8615 88.6899 98.4051 86.8458 100.431 85.8358C101.451 85.3276 102.381 85.0079 103.065 84.8136C103.409 84.7159 103.696 84.6488 103.908 84.6037C104.015 84.5811 104.103 84.5637 104.17 84.5513C104.204 84.5452 104.233 84.5406 104.256 84.5367C104.268 84.5347 104.279 84.5326 104.288 84.5312C104.292 84.5305 104.296 84.5297 104.3 84.5291C104.302 84.5289 104.303 84.5288 104.305 84.5286L104.308 84.5281C104.31 84.5316 104.322 84.6145 104.611 86.4738L104.611 86.4725L104.31 84.528L105.287 84.3766C106.125 82.4092 107.367 80.91 108.491 79.8517C109.321 79.0711 110.119 78.4974 110.716 78.1142C111.017 77.9214 111.273 77.7729 111.463 77.6684C111.558 77.6162 111.637 77.575 111.698 77.5437C111.729 77.5282 111.754 77.5144 111.776 77.5039C111.786 77.4987 111.796 77.4937 111.805 77.4897C111.809 77.4878 111.813 77.4863 111.816 77.4847L111.823 77.481C111.824 77.4808 111.837 77.5074 113.063 80.0643L111.825 77.4801L114.012 76.4323L114.807 77.462C115.468 75.6379 116.478 74.1812 117.422 73.1097C118.175 72.255 118.916 71.6095 119.476 71.1721C119.757 70.9522 119.998 70.7814 120.177 70.6597C120.267 70.5987 120.342 70.5499 120.4 70.513C120.429 70.4946 120.453 70.4787 120.474 70.4663C120.484 70.4601 120.493 70.4542 120.501 70.4495C120.505 70.4473 120.508 70.445 120.511 70.4431L120.519 70.439C120.522 70.4422 120.548 70.4888 120.911 71.0923C120.91 71.09 120.91 71.0876 120.909 71.0853L120.521 70.4381L120.752 70.2991C120.689 69.9269 120.638 69.5435 120.605 69.1484C120.308 65.5913 121.606 62.7309 122.868 60.8511C123.503 59.905 124.153 59.168 124.651 58.6611C124.901 58.4064 125.117 58.2055 125.279 58.0613C125.361 57.989 125.429 57.93 125.482 57.8858C125.508 57.8639 125.53 57.8455 125.548 57.8305C125.558 57.823 125.566 57.8165 125.573 57.8107C125.577 57.8079 125.58 57.8046 125.583 57.8022C125.585 57.8011 125.586 57.8001 125.587 57.7991L125.59 57.7977C125.593 57.8004 125.663 57.8861 127.384 60.0533L125.591 57.7959L127.488 56.2896L129.36 57.8257L127.457 60.1451C129.36 57.8257 129.361 57.827 129.362 57.8278L129.364 57.8291C129.365 57.8301 129.367 57.8313 129.368 57.8325C129.371 57.8349 129.374 57.8377 129.378 57.8405C129.385 57.8462 129.393 57.8528 129.401 57.8601C129.418 57.8745 129.439 57.8917 129.463 57.9124C129.511 57.9541 129.573 58.0093 129.646 58.0764C129.792 58.2104 129.985 58.3955 130.21 58.6308C130.284 58.7081 130.359 58.793 130.44 58.8815C130.506 58.3078 130.612 57.7143 130.765 57.103C131.587 53.8222 133.272 51.4509 134.734 49.9119C135.466 49.1414 136.153 48.5677 136.672 48.177C136.932 47.9812 137.152 47.8291 137.317 47.7205C137.4 47.6662 137.47 47.6224 137.524 47.589C137.551 47.5724 137.575 47.5588 137.595 47.5472C137.604 47.5415 137.613 47.5358 137.621 47.5313C137.624 47.5291 137.628 47.5273 137.632 47.5254C137.633 47.5245 137.634 47.523 137.636 47.5223L137.638 47.5209C137.64 47.5209 137.664 47.5596 139.038 49.9337L137.64 47.52L139.739 46.3056L141.367 48.1024ZM133.619 69.11C133.583 70.1926 132.242 95.7383 90.7196 105.053L91.2904 107.606C134.9 97.8268 136.225 69.4728 136.236 69.1877L133.619 69.11ZM113.122 80.1857C113.071 80.2103 108.159 82.5906 107.404 87.8593C106.649 93.1567 110.202 96.7567 110.202 96.7567C110.227 96.7455 114.231 94.9381 115.188 89.8955L115.272 89.396C115.95 84.644 113.796 81.1563 113.246 80.3585L113.122 80.1857C113.609 79.8086 113.997 79.5092 114.305 79.2712L114.305 79.269L113.122 80.1857ZM104.77 87.4924C104.721 87.5 99.3234 88.357 97.0809 93.1905C94.8328 98.0446 97.2008 102.521 97.2008 102.521C97.2246 102.517 101.585 101.935 103.952 97.387L104.175 96.9333C106.478 91.9631 104.777 87.5114 104.77 87.4924ZM122.064 73.0101C122.029 73.0308 117.346 75.8595 117.086 81.1851C116.83 86.5264 120.711 89.7809 120.711 89.7809C120.711 89.7809 124.555 87.6047 125.033 82.482L125.069 81.977C125.33 76.4917 122.064 73.0101 122.064 73.0101ZM20.227 47.5203L18.7238 50.1166C20.1431 47.6641 20.2234 47.5285 20.2287 47.5216L20.2314 47.5224C20.2329 47.5232 20.2346 47.5244 20.2363 47.5253C20.2395 47.5272 20.2436 47.5294 20.2473 47.5316C20.2549 47.536 20.2635 47.5411 20.273 47.5467C20.2923 47.5583 20.3159 47.5726 20.343 47.5893C20.3972 47.6226 20.4668 47.6665 20.5496 47.7208C20.7153 47.8294 20.9353 47.9811 21.1953 48.1768C21.7142 48.5675 22.4014 49.1417 23.1334 49.9123C24.5956 51.4516 26.2813 53.823 27.1029 57.1048L27.1016 57.1044C27.2547 57.7149 27.3598 58.3075 27.426 58.8805C27.5068 58.792 27.5836 58.7083 27.6575 58.631C27.8826 58.3956 28.0754 58.2103 28.2213 58.0763C28.2944 58.0092 28.3564 57.9548 28.4045 57.9131C28.4285 57.8924 28.4486 57.8741 28.4658 57.8597C28.4744 57.8524 28.483 57.846 28.4898 57.8403C28.4931 57.8376 28.4959 57.8346 28.4988 57.8323C28.5003 57.8311 28.5022 57.8298 28.5035 57.8287L28.5052 57.8278C28.5097 57.8313 28.5891 57.9259 30.3291 60.0468L28.5074 57.8255L30.3797 56.2901L32.2758 57.7959L30.41 60.1454C32.2378 57.8444 32.2759 57.7974 32.2776 57.7971L32.2798 57.7993C32.2811 57.8003 32.2824 57.8015 32.2838 57.8027C32.2868 57.8051 32.2901 57.8079 32.2936 57.8107C32.3007 57.8165 32.3094 57.8232 32.3186 57.8307C32.3368 57.8456 32.3592 57.864 32.3854 57.886C32.438 57.9301 32.5062 57.9887 32.5873 58.0608C32.7494 58.2051 32.9659 58.4058 33.2162 58.6606C33.714 59.1674 34.3649 59.9052 34.9997 60.8513C36.261 62.7312 37.5593 65.5918 37.2625 69.149L37.2612 69.1486C37.2284 69.5434 37.1771 69.9264 37.1138 70.2983L37.3468 70.438L36.9569 71.0874C36.9564 71.0892 36.9556 71.0909 36.9552 71.0927C37.3181 70.4888 37.3459 70.4424 37.3486 70.4392L37.3513 70.4401C37.3527 70.4409 37.3545 70.442 37.3561 70.443C37.3593 70.4449 37.3626 70.4475 37.3663 70.4498C37.3741 70.4545 37.3837 70.4599 37.3938 70.4662C37.4139 70.4786 37.4382 70.4942 37.4669 70.5125C37.5249 70.5494 37.6006 70.5984 37.6905 70.6594C37.8701 70.7812 38.1103 70.9523 38.3917 71.1723C38.9512 71.6096 39.6917 72.2553 40.4445 73.11C41.3884 74.1815 42.3974 75.6384 43.0581 77.4623L43.8556 76.4326L46.0417 77.48L44.7455 80.1856C46.0423 77.4803 46.0432 77.4803 46.0444 77.4808L46.0461 77.4821C46.0477 77.4828 46.0493 77.4842 46.051 77.485C46.0544 77.4867 46.0585 77.4881 46.0625 77.49C46.0706 77.494 46.0802 77.4986 46.0908 77.5038C46.112 77.5143 46.1384 77.5274 46.169 77.543C46.2301 77.5744 46.3095 77.6168 46.4047 77.6691C46.5949 77.7736 46.85 77.9214 47.1506 78.1141C47.7485 78.4973 48.5465 79.0706 49.3758 79.8512C50.4997 80.9092 51.7403 82.4088 52.5774 84.3753L53.5572 84.5274L53.2548 86.4718C53.255 86.4728 53.255 86.4738 53.2553 86.4748C53.5575 84.5277 53.5588 84.5281 53.5599 84.5282L53.562 84.5282C53.5638 84.5284 53.5654 84.5295 53.5673 84.5298C53.5711 84.5304 53.5755 84.5301 53.58 84.5308C53.589 84.5323 53.5991 84.5347 53.6107 84.5367C53.6341 84.5406 53.6633 84.5455 53.6971 84.5517C53.7647 84.564 53.8526 84.5808 53.9587 84.6033C54.171 84.6485 54.459 84.7164 54.8027 84.8141C55.486 85.0083 56.4153 85.3275 57.4347 85.8355C59.4611 86.8454 62.0055 88.6893 63.508 91.928L63.5089 91.9297C64.9621 95.0673 64.9086 98.0627 64.5219 100.208C64.4536 100.587 64.3726 100.942 64.2883 101.272C65.4248 101.57 66.5968 101.855 67.8049 102.126L70.7308 102.782L68.8478 111.19L65.9194 110.533C63.8368 110.066 61.8448 109.557 59.9396 109.01C59.8437 109.187 59.7156 109.413 59.5505 109.676C59.1907 110.248 58.6515 111.008 57.9117 111.811C56.4346 113.415 54.0786 115.264 50.6976 115.999C47.2112 116.755 44.2061 115.841 42.1785 114.837C41.1579 114.331 40.3419 113.784 39.7745 113.357C39.4891 113.142 39.2616 112.954 39.0975 112.812C39.0154 112.741 38.9492 112.681 38.8985 112.634C38.8732 112.611 38.8511 112.591 38.8338 112.575L38.7981 112.541L38.7963 112.539C38.7954 112.539 38.7946 112.537 40.8788 110.38C40.898 110.399 44.8476 114.199 50.0612 113.067C55.2932 111.93 57.426 107.344 57.426 107.344C57.426 107.344 54.3312 104.194 49.2624 105.06L48.7666 105.157C43.4027 106.323 40.8788 110.38 40.8788 110.38C40.5914 110.201 40.3368 110.042 40.1107 109.902L40.8788 110.38L38.7941 112.537L37.0511 110.853L37.2394 110.549C37.1662 110.557 37.0928 110.566 37.0189 110.573L37.0136 110.574C33.4612 110.906 30.5868 109.638 28.6931 108.398C27.7399 107.774 26.9949 107.132 26.4823 106.64C26.2246 106.393 26.0212 106.179 25.8752 106.019C25.802 105.939 25.7423 105.871 25.6975 105.819C25.6752 105.793 25.6566 105.771 25.6414 105.753C25.6338 105.744 25.6274 105.735 25.6216 105.728C25.6189 105.724 25.6159 105.722 25.6135 105.719C25.6123 105.717 25.6111 105.715 25.6099 105.714L25.6082 105.713C25.6074 105.712 25.6072 105.711 27.9339 103.817C27.9719 103.864 31.4367 108.082 36.7342 107.586C42.0299 107.081 44.6973 102.823 44.7239 102.78C44.7093 102.761 41.8373 99.0578 36.3879 99.5756C30.9249 100.09 27.9407 103.809 27.9339 103.817C26.504 102.672 25.948 102.224 25.7317 102.05C25.7303 102.05 25.7287 102.05 25.7273 102.05L27.9339 103.817L25.6068 105.71L24.0778 103.831L25.5364 102.011C22.0506 101.254 19.6959 99.1757 18.2671 97.4208C17.548 96.5374 17.0323 95.7002 16.6928 95.0762C16.5221 94.7624 16.3925 94.497 16.3018 94.2998C16.2565 94.201 16.2204 94.1187 16.1935 94.0555C16.1801 94.0239 16.1696 93.9965 16.1607 93.9745C16.1562 93.9637 16.152 93.954 16.1486 93.9455C16.147 93.9414 16.145 93.9374 16.1436 93.9339C16.1429 93.9323 16.1427 93.9306 16.1421 93.9291L16.1408 93.9265C16.1404 93.9254 16.1526 93.9192 18.8815 92.8442L16.1399 93.9248L15.2522 91.671L15.9724 91.1905C15.9646 91.1869 15.9568 91.1833 15.949 91.1797L15.9486 91.181C12.7163 89.6684 10.8804 87.1189 9.87622 85.0902C9.37095 84.0693 9.05433 83.1386 8.86182 82.4549C8.76505 82.1113 8.69782 81.8242 8.65323 81.6118C8.63089 81.5055 8.61391 81.4172 8.60175 81.3496C8.59568 81.3159 8.59097 81.2868 8.58709 81.2634C8.58519 81.252 8.58343 81.2418 8.58202 81.233C8.58131 81.2285 8.58013 81.2238 8.57954 81.2199C8.57926 81.2182 8.57923 81.2163 8.57898 81.2147L8.57893 81.2125C8.57874 81.2113 8.57828 81.2099 11.5177 80.7612L8.57842 81.2095L8.21215 78.8135L10.383 77.9885C10.3546 77.9631 10.3258 77.938 10.2974 77.9123C7.65488 75.5158 6.65144 72.5395 6.29001 70.3057C6.1081 69.1812 6.07984 68.1986 6.0975 67.4885C6.10638 67.1314 6.12649 66.8368 6.14651 66.6207C6.15653 66.5124 6.16657 66.423 6.17489 66.3548C6.17905 66.3207 6.18324 66.2916 6.18643 66.2681C6.18801 66.2564 6.18968 66.2459 6.19096 66.2369C6.19156 66.2327 6.1919 66.2287 6.19243 66.2251C6.19271 66.2232 6.19335 66.2207 6.1936 66.219L6.19355 66.2168C6.19372 66.2156 6.19393 66.2146 8.85255 66.6107L6.19436 66.2142L6.55063 63.8181L8.96849 63.6623L9.16071 66.6564C8.97356 63.7447 8.96961 63.6646 8.97067 63.6623L8.97418 63.6626C8.97584 63.6625 8.97761 63.6622 8.97941 63.6621C8.98321 63.6619 8.98764 63.6612 8.99205 63.6609C9.00082 63.6604 9.01105 63.6599 9.02215 63.6594C9.04456 63.6582 9.07169 63.6574 9.10333 63.6562C9.16687 63.6538 9.24894 63.6514 9.34784 63.6505C9.54584 63.6488 9.81359 63.6524 10.1386 63.6708C10.7871 63.7074 11.6779 63.8036 12.7148 64.0377C13.6506 64.249 14.7178 64.578 15.8388 65.0827C14.8383 63.7867 13.9328 62.1451 13.4234 60.1151L13.4225 60.1134C12.5555 56.6513 13.3718 53.6188 14.3108 51.5591C14.7834 50.5225 15.3056 49.6892 15.7142 49.1083C15.9197 48.8163 16.0999 48.583 16.2364 48.4143C16.3048 48.3299 16.3626 48.2611 16.4073 48.209C16.4295 48.1832 16.4487 48.1612 16.4643 48.1435C16.4722 48.1346 16.4795 48.1258 16.4856 48.119C16.4886 48.1157 16.4916 48.1128 16.4942 48.11C16.4954 48.1087 16.4964 48.1073 16.4976 48.106L16.4997 48.1038C16.5039 48.106 16.5884 48.1817 18.6662 50.0642L16.501 48.102L18.1292 46.3057L20.227 47.5203ZM151.316 63.8176L151.673 66.2142L148.706 66.6561L148.899 63.6627L151.316 63.8176ZM127.457 60.1451C127.438 60.1607 123.151 63.5794 123.595 68.8999L123.647 69.3923C124.301 74.4022 128.306 76.9503 128.306 76.9503C128.073 77.3164 127.873 77.6286 127.702 77.8964L127.703 77.8981L128.306 76.9503C128.329 76.9328 132.062 74.1048 131.608 68.6505C131.15 63.1748 127.457 60.1451 127.457 60.1451ZM21.6304 69.1875C21.6413 69.4726 22.9665 97.8264 66.5757 107.606L67.1486 105.053C25.6266 95.7385 24.284 70.1934 24.2488 69.1101L21.6304 69.1875ZM139.143 50.1165C139.143 50.1165 135.008 52.5099 133.675 57.8336L133.563 58.3264C132.542 63.3455 135.563 66.5361 135.586 66.5606C135.586 66.5606 139.947 64.6961 141.403 59.862L141.534 59.385C142.831 54.208 139.166 50.1421 139.143 50.1165ZM53.0974 87.492C53.0974 87.492 51.384 91.9527 53.6917 96.9334L53.9153 97.3874C56.2792 101.93 60.6328 102.516 60.6663 102.52C60.6703 102.513 62.8868 98.3161 60.9837 93.6449L60.7863 93.1903C58.5389 88.3465 53.1227 87.4959 53.0974 87.492ZM44.7455 80.1856C44.7455 80.1856 41.8209 83.9644 42.5954 89.3954C43.3746 94.8353 47.6652 96.7569 47.6652 96.7569C47.6652 96.7569 51.2185 93.1562 50.4629 87.8585C49.7086 82.5922 44.8005 80.2121 44.7455 80.1856ZM18.9309 92.8247L19.0286 93.047C19.4863 94.0428 21.6016 98.0863 26.1738 99.0793L26.6609 99.173C31.6417 100.006 35.2524 96.9204 35.2524 96.9204C35.2524 96.9204 33.6325 92.5031 28.2731 91.3394C22.9066 90.176 18.9309 92.8247 18.9309 92.8247C18.7381 92.5354 18.5683 92.2793 18.4177 92.0532L18.9309 92.8247ZM35.8034 73.0103C35.7914 73.0231 32.5371 76.5014 32.7984 81.9765L32.8349 82.4819C33.3134 87.6046 37.1567 89.7808 37.1567 89.7808C37.1567 89.7808 40.798 86.727 40.7933 81.6803L40.781 81.1852C40.5205 75.8637 35.8451 73.0355 35.8034 73.0103ZM43.5611 79.2711C43.8504 79.4948 44.2108 79.7722 44.6579 80.1182L43.5597 79.2685L43.5611 79.2711ZM11.5442 80.7571C11.5457 80.7664 12.3782 86.1974 17.2196 88.4633C22.0672 90.7339 26.5483 88.3784 26.5483 88.3784C26.5483 88.3784 25.9524 83.7102 20.9842 81.3856C16.0321 79.0722 11.5859 80.7414 11.5442 80.7571ZM30.41 60.1454C30.4001 60.1536 26.7166 63.1822 26.2595 68.6505C25.8602 73.4381 28.6876 76.2024 29.4005 76.8183L29.5608 76.95C29.5608 76.95 33.8288 74.235 34.2722 68.8995C34.7152 63.5903 30.4475 60.1753 30.41 60.1454ZM9.16071 66.6564C9.15718 66.6803 8.35905 72.1058 12.3138 75.6907C16.2613 79.2745 21.2141 78.3677 21.2508 78.3609C21.2508 78.3609 22.0617 73.7254 17.9983 70.0344C13.9307 66.3495 9.16071 66.6564 9.16071 66.6564ZM11.5442 80.7571C10.9082 79.0826 10.6529 78.4074 10.5502 78.1353C10.5494 78.1346 10.548 78.1344 10.5472 78.1337L11.5442 80.7571ZM18.7238 50.1166C18.6853 50.1593 15.039 54.2186 16.3325 59.3844L16.4645 59.8615C17.9207 64.6959 22.281 66.5606 22.281 66.5606C22.309 66.5311 25.5225 63.1325 24.1928 57.8337C22.86 52.51 18.7238 50.1166 18.7238 50.1166Z" fill="#20303F"/>
<path d="M98.7365 114.197C104.418 103.46 100.319 90.1485 89.5824 84.4672C78.8458 78.7859 65.5342 82.8847 59.8529 93.6213C54.1716 104.358 58.2704 117.669 69.007 123.351C79.7436 129.032 93.0552 124.933 98.7365 114.197Z" fill="white"/>
<path d="M98.7365 114.197C104.418 103.46 100.319 90.1485 89.5824 84.4672C78.8458 78.7859 65.5342 82.8847 59.8529 93.6213C54.1716 104.358 58.2704 117.669 69.007 123.351C79.7436 129.032 93.0552 124.933 98.7365 114.197Z" fill="url(#paint4_linear_4523_39624)"/>
<path d="M57.2527 92.245C63.6942 80.0723 78.786 75.4257 90.9588 81.867C103.131 88.3085 107.778 103.4 101.337 115.573C94.8953 127.746 79.8034 132.392 67.6306 125.951C55.458 119.51 50.8114 104.418 57.2527 92.245ZM89.5828 84.4676C78.8463 78.7864 65.5348 82.8847 59.8533 93.6209L59.5935 94.1268C54.3014 104.772 58.4382 117.758 69.0066 123.35C79.5755 128.943 92.6398 125.059 98.4646 114.695L98.7361 114.197C104.329 103.628 100.445 90.5639 90.0808 84.7391L89.5828 84.4676Z" fill="#20303F"/>
<path d="M78.646 112V97.7666H78.5728L74.0806 100.867V97.5469L78.6338 94.3853H82.2959V112H78.646Z" fill="#21303F"/>
<defs>
<linearGradient id="paint0_linear_4523_39624" x1="136.899" y1="44.2865" x2="23.446" y2="104.321" gradientUnits="userSpaceOnUse">
<stop stop-color="#FFD60A"/>
<stop offset="0.25" stop-color="#FFE770"/>
<stop offset="0.5" stop-color="#FFD60A"/>
<stop offset="0.75" stop-color="#FFE870"/>
<stop offset="1" stop-color="#FFD60A"/>
</linearGradient>
<linearGradient id="paint1_linear_4523_39624" x1="136.899" y1="44.2865" x2="23.446" y2="104.321" gradientUnits="userSpaceOnUse">
<stop stop-color="#FFD60A"/>
<stop offset="0.25" stop-color="#FFE770"/>
<stop offset="0.5" stop-color="#FFD60A"/>
<stop offset="0.75" stop-color="#FFE870"/>
<stop offset="1" stop-color="#FFD60A"/>
</linearGradient>
<linearGradient id="paint2_linear_4523_39624" x1="136.899" y1="44.2865" x2="23.446" y2="104.321" gradientUnits="userSpaceOnUse">
<stop stop-color="#FFD60A"/>
<stop offset="0.25" stop-color="#FFE770"/>
<stop offset="0.5" stop-color="#FFD60A"/>
<stop offset="0.75" stop-color="#FFE870"/>
<stop offset="1" stop-color="#FFD60A"/>
</linearGradient>
<linearGradient id="paint3_linear_4523_39624" x1="136.899" y1="44.2865" x2="23.446" y2="104.321" gradientUnits="userSpaceOnUse">
<stop stop-color="#FFD60A"/>
<stop offset="0.25" stop-color="#FFE770"/>
<stop offset="0.5" stop-color="#FFD60A"/>
<stop offset="0.75" stop-color="#FFE870"/>
<stop offset="1" stop-color="#FFD60A"/>
</linearGradient>
<linearGradient id="paint4_linear_4523_39624" x1="156.58" y1="78.6475" x2="30.6922" y2="78.6475" gradientUnits="userSpaceOnUse">
<stop stop-color="#FFD60A"/>
<stop offset="0.25" stop-color="#FFE770"/>
<stop offset="0.5" stop-color="#FFD60A"/>
<stop offset="0.75" stop-color="#FFE870"/>
<stop offset="1" stop-color="#FFD60A"/>
</linearGradient>
</defs>
</svg>
