<svg width="161" height="149" viewBox="0 0 161 149" fill="none" xmlns="http://www.w3.org/2000/svg">
<path d="M21.8837 78.3607C21.8837 78.3607 22.6943 73.7259 18.6309 70.0349C14.5632 66.3499 9.79397 66.6564 9.79397 66.6564C9.79397 66.6564 8.98309 72.098 12.9467 75.6908C16.9089 79.288 21.8837 78.3607 21.8837 78.3607ZM30.1937 76.9503C30.1937 76.9503 34.4619 74.2351 34.9053 68.8996C35.3503 63.5669 31.0426 60.1452 31.0426 60.1452C31.0426 60.1452 27.3496 63.1747 26.892 68.6504C26.4356 74.1216 30.1937 76.9503 30.1937 76.9503ZM33.4317 81.9767C33.6936 87.4619 37.7894 89.7804 37.7894 89.7804C37.7894 89.7804 41.6694 86.5267 41.4138 81.1854C41.1522 75.8399 36.4359 73.0101 36.4359 73.0101C36.4359 73.0101 33.1698 76.4914 33.4317 81.9767ZM45.3778 80.1854C45.3778 80.1854 42.4535 83.9646 43.2282 89.3958C44.0074 94.8357 48.298 96.7565 48.298 96.7565C48.298 96.7565 51.8511 93.1564 51.0955 87.8587C50.3371 82.5626 45.3778 80.1854 45.3778 80.1854ZM61.2993 102.52C61.2993 102.52 63.6672 98.0447 61.4191 93.1906C59.1665 88.3352 53.7301 87.4922 53.7301 87.4922C53.7301 87.4922 52.017 91.9527 54.3249 96.9335C56.6341 101.91 61.2993 102.52 61.2993 102.52ZM22.9135 66.5607C22.9135 66.5607 26.161 63.1555 24.8252 57.8334C23.4924 52.5097 19.357 50.1164 19.357 50.1164C19.357 50.1164 15.6648 54.1915 16.9655 59.3849C18.2676 64.5738 22.9135 66.5607 22.9135 66.5607ZM27.1808 88.3781C27.1808 88.3781 26.5853 83.7101 21.6171 81.3855C16.6416 79.0611 12.1767 80.7571 12.1767 80.7571C12.1767 80.7571 13.0069 86.1958 17.8529 88.4635C22.7005 90.7341 27.1808 88.3781 27.1808 88.3781ZM35.8848 96.9204C35.8848 96.9204 34.2656 92.5032 28.9062 91.3395C23.5395 90.1759 19.564 92.8247 19.564 92.8247C19.564 92.8247 21.5809 97.9447 26.8072 99.0795C32.0376 100.208 35.8848 96.9204 35.8848 96.9204ZM45.357 102.78C45.357 102.78 42.484 99.0559 37.0207 99.575C31.5514 100.09 28.5663 103.817 28.5663 103.817C28.5663 103.817 32.0401 108.085 37.367 107.586C42.6894 107.079 45.357 102.78 45.357 102.78ZM49.3989 105.157C44.0349 106.323 41.5117 110.38 41.5117 110.38C41.5117 110.38 45.4674 114.201 50.6938 113.067C55.9259 111.93 58.0583 107.344 58.0583 107.344C58.0583 107.344 54.7613 103.987 49.3989 105.157Z" fill="white"/>
<path d="M21.8837 78.3607C21.8837 78.3607 22.6943 73.7259 18.6309 70.0349C14.5632 66.3499 9.79397 66.6564 9.79397 66.6564C9.79397 66.6564 8.98309 72.098 12.9467 75.6908C16.9089 79.288 21.8837 78.3607 21.8837 78.3607ZM30.1937 76.9503C30.1937 76.9503 34.4619 74.2351 34.9053 68.8996C35.3503 63.5669 31.0426 60.1452 31.0426 60.1452C31.0426 60.1452 27.3496 63.1747 26.892 68.6504C26.4356 74.1216 30.1937 76.9503 30.1937 76.9503ZM33.4317 81.9767C33.6936 87.4619 37.7894 89.7804 37.7894 89.7804C37.7894 89.7804 41.6694 86.5267 41.4138 81.1854C41.1522 75.8399 36.4359 73.0101 36.4359 73.0101C36.4359 73.0101 33.1698 76.4914 33.4317 81.9767ZM45.3778 80.1854C45.3778 80.1854 42.4535 83.9646 43.2282 89.3958C44.0074 94.8357 48.298 96.7565 48.298 96.7565C48.298 96.7565 51.8511 93.1564 51.0955 87.8587C50.3371 82.5626 45.3778 80.1854 45.3778 80.1854ZM61.2993 102.52C61.2993 102.52 63.6672 98.0447 61.4191 93.1906C59.1665 88.3352 53.7301 87.4922 53.7301 87.4922C53.7301 87.4922 52.017 91.9527 54.3249 96.9335C56.6341 101.91 61.2993 102.52 61.2993 102.52ZM22.9135 66.5607C22.9135 66.5607 26.161 63.1555 24.8252 57.8334C23.4924 52.5097 19.357 50.1164 19.357 50.1164C19.357 50.1164 15.6648 54.1915 16.9655 59.3849C18.2676 64.5738 22.9135 66.5607 22.9135 66.5607ZM27.1808 88.3781C27.1808 88.3781 26.5853 83.7101 21.6171 81.3855C16.6416 79.0611 12.1767 80.7571 12.1767 80.7571C12.1767 80.7571 13.0069 86.1958 17.8529 88.4635C22.7005 90.7341 27.1808 88.3781 27.1808 88.3781ZM35.8848 96.9204C35.8848 96.9204 34.2656 92.5032 28.9062 91.3395C23.5395 90.1759 19.564 92.8247 19.564 92.8247C19.564 92.8247 21.5809 97.9447 26.8072 99.0795C32.0376 100.208 35.8848 96.9204 35.8848 96.9204ZM45.357 102.78C45.357 102.78 42.484 99.0559 37.0207 99.575C31.5514 100.09 28.5663 103.817 28.5663 103.817C28.5663 103.817 32.0401 108.085 37.367 107.586C42.6894 107.079 45.357 102.78 45.357 102.78ZM49.3989 105.157C44.0349 106.323 41.5117 110.38 41.5117 110.38C41.5117 110.38 45.4674 114.201 50.6938 113.067C55.9259 111.93 58.0583 107.344 58.0583 107.344C58.0583 107.344 54.7613 103.987 49.3989 105.157Z" fill="url(#paint0_linear_4523_39646)"/>
<path d="M21.8837 78.3607C21.8837 78.3607 22.6943 73.7259 18.6309 70.0349C14.5632 66.3499 9.79397 66.6564 9.79397 66.6564C9.79397 66.6564 8.98309 72.098 12.9467 75.6908C16.9089 79.288 21.8837 78.3607 21.8837 78.3607ZM30.1937 76.9503C30.1937 76.9503 34.4619 74.2351 34.9053 68.8996C35.3503 63.5669 31.0426 60.1452 31.0426 60.1452C31.0426 60.1452 27.3496 63.1747 26.892 68.6504C26.4356 74.1216 30.1937 76.9503 30.1937 76.9503ZM33.4317 81.9767C33.6936 87.4619 37.7894 89.7804 37.7894 89.7804C37.7894 89.7804 41.6694 86.5267 41.4138 81.1854C41.1522 75.8399 36.4359 73.0101 36.4359 73.0101C36.4359 73.0101 33.1698 76.4914 33.4317 81.9767ZM45.3778 80.1854C45.3778 80.1854 42.4535 83.9646 43.2282 89.3958C44.0074 94.8357 48.298 96.7565 48.298 96.7565C48.298 96.7565 51.8511 93.1564 51.0955 87.8587C50.3371 82.5626 45.3778 80.1854 45.3778 80.1854ZM61.2993 102.52C61.2993 102.52 63.6672 98.0447 61.4191 93.1906C59.1665 88.3352 53.7301 87.4922 53.7301 87.4922C53.7301 87.4922 52.017 91.9527 54.3249 96.9335C56.6341 101.91 61.2993 102.52 61.2993 102.52ZM22.9135 66.5607C22.9135 66.5607 26.161 63.1555 24.8252 57.8334C23.4924 52.5097 19.357 50.1164 19.357 50.1164C19.357 50.1164 15.6648 54.1915 16.9655 59.3849C18.2676 64.5738 22.9135 66.5607 22.9135 66.5607ZM27.1808 88.3781C27.1808 88.3781 26.5853 83.7101 21.6171 81.3855C16.6416 79.0611 12.1767 80.7571 12.1767 80.7571C12.1767 80.7571 13.0069 86.1958 17.8529 88.4635C22.7005 90.7341 27.1808 88.3781 27.1808 88.3781ZM35.8848 96.9204C35.8848 96.9204 34.2656 92.5032 28.9062 91.3395C23.5395 90.1759 19.564 92.8247 19.564 92.8247C19.564 92.8247 21.5809 97.9447 26.8072 99.0795C32.0376 100.208 35.8848 96.9204 35.8848 96.9204ZM45.357 102.78C45.357 102.78 42.484 99.0559 37.0207 99.575C31.5514 100.09 28.5663 103.817 28.5663 103.817C28.5663 103.817 32.0401 108.085 37.367 107.586C42.6894 107.079 45.357 102.78 45.357 102.78ZM49.3989 105.157C44.0349 106.323 41.5117 110.38 41.5117 110.38C41.5117 110.38 45.4674 114.201 50.6938 113.067C55.9259 111.93 58.0583 107.344 58.0583 107.344C58.0583 107.344 54.7613 103.987 49.3989 105.157Z" fill="#FF6200" style="mix-blend-mode:color"/>
<path d="M24.8812 69.11L22.2633 69.1879C22.2743 69.473 23.5993 97.8266 67.2091 107.606L67.7808 105.053C26.2582 95.7383 24.9164 70.1926 24.8812 69.11Z" fill="white"/>
<path d="M24.8812 69.11L22.2633 69.1879C22.2743 69.473 23.5993 97.8266 67.2091 107.606L67.7808 105.053C26.2582 95.7383 24.9164 70.1926 24.8812 69.11Z" fill="url(#paint1_linear_4523_39646)"/>
<path d="M24.8812 69.11L22.2633 69.1879C22.2743 69.473 23.5993 97.8266 67.2091 107.606L67.7808 105.053C26.2582 95.7383 24.9164 70.1926 24.8812 69.11Z" fill="#FF6200" style="mix-blend-mode:color"/>
<path d="M137.249 78.3607C137.249 78.3607 136.438 73.7259 140.502 70.0349C144.569 66.3499 149.339 66.6564 149.339 66.6564C149.339 66.6564 150.15 72.098 146.186 75.6908C142.224 79.288 137.249 78.3607 137.249 78.3607ZM128.939 76.9503C128.939 76.9503 124.671 74.2351 124.227 68.8996C123.782 63.5669 128.09 60.1452 128.09 60.1452C128.09 60.1452 131.783 63.1747 132.241 68.6504C132.697 74.1216 128.939 76.9503 128.939 76.9503ZM125.701 81.9767C125.439 87.4619 121.343 89.7804 121.343 89.7804C121.343 89.7804 117.463 86.5267 117.719 81.1854C117.98 75.8399 122.697 73.0101 122.697 73.0101C122.697 73.0101 125.963 76.4914 125.701 81.9767ZM113.755 80.1853C113.755 80.1853 116.679 83.9646 115.904 89.3958C115.125 94.8357 110.835 96.7565 110.835 96.7565C110.835 96.7565 107.282 93.1564 108.037 87.8587C108.796 82.5626 113.755 80.1853 113.755 80.1853ZM97.8334 102.52C97.8334 102.52 95.4655 98.0447 97.7136 93.1906C99.9662 88.3352 105.403 87.4922 105.403 87.4922C105.403 87.4922 107.116 91.9527 104.808 96.9335C102.499 101.91 97.8334 102.52 97.8334 102.52ZM136.219 66.5607C136.219 66.5607 132.972 63.1555 134.307 57.8334C135.64 52.5097 139.776 50.1164 139.776 50.1164C139.776 50.1164 143.468 54.1915 142.167 59.3849C140.865 64.5738 136.219 66.5607 136.219 66.5607ZM131.952 88.3781C131.952 88.3781 132.547 83.7101 137.516 81.3855C142.491 79.0611 146.956 80.7571 146.956 80.7571C146.956 80.7571 146.126 86.1958 141.28 88.4635C136.432 90.7341 131.952 88.3781 131.952 88.3781ZM123.248 96.9204C123.248 96.9204 124.867 92.5032 130.226 91.3395C135.593 90.1759 139.569 92.8247 139.569 92.8247C139.569 92.8247 137.552 97.9447 132.326 99.0795C127.095 100.208 123.248 96.9204 123.248 96.9204ZM113.776 102.78C113.776 102.78 116.649 99.0559 122.112 99.575C127.581 100.09 130.566 103.817 130.566 103.817C130.566 103.817 127.093 108.085 121.766 107.586C116.443 107.079 113.776 102.78 113.776 102.78ZM109.734 105.157C115.098 106.323 117.621 110.38 117.621 110.38C117.621 110.38 113.665 114.201 108.439 113.067C103.207 111.93 101.074 107.344 101.074 107.344C101.074 107.344 104.371 103.987 109.734 105.157Z" fill="white"/>
<path d="M137.249 78.3607C137.249 78.3607 136.438 73.7259 140.502 70.0349C144.569 66.3499 149.339 66.6564 149.339 66.6564C149.339 66.6564 150.15 72.098 146.186 75.6908C142.224 79.288 137.249 78.3607 137.249 78.3607ZM128.939 76.9503C128.939 76.9503 124.671 74.2351 124.227 68.8996C123.782 63.5669 128.09 60.1452 128.09 60.1452C128.09 60.1452 131.783 63.1747 132.241 68.6504C132.697 74.1216 128.939 76.9503 128.939 76.9503ZM125.701 81.9767C125.439 87.4619 121.343 89.7804 121.343 89.7804C121.343 89.7804 117.463 86.5267 117.719 81.1854C117.98 75.8399 122.697 73.0101 122.697 73.0101C122.697 73.0101 125.963 76.4914 125.701 81.9767ZM113.755 80.1853C113.755 80.1853 116.679 83.9646 115.904 89.3958C115.125 94.8357 110.835 96.7565 110.835 96.7565C110.835 96.7565 107.282 93.1564 108.037 87.8587C108.796 82.5626 113.755 80.1853 113.755 80.1853ZM97.8334 102.52C97.8334 102.52 95.4655 98.0447 97.7136 93.1906C99.9662 88.3352 105.403 87.4922 105.403 87.4922C105.403 87.4922 107.116 91.9527 104.808 96.9335C102.499 101.91 97.8334 102.52 97.8334 102.52ZM136.219 66.5607C136.219 66.5607 132.972 63.1555 134.307 57.8334C135.64 52.5097 139.776 50.1164 139.776 50.1164C139.776 50.1164 143.468 54.1915 142.167 59.3849C140.865 64.5738 136.219 66.5607 136.219 66.5607ZM131.952 88.3781C131.952 88.3781 132.547 83.7101 137.516 81.3855C142.491 79.0611 146.956 80.7571 146.956 80.7571C146.956 80.7571 146.126 86.1958 141.28 88.4635C136.432 90.7341 131.952 88.3781 131.952 88.3781ZM123.248 96.9204C123.248 96.9204 124.867 92.5032 130.226 91.3395C135.593 90.1759 139.569 92.8247 139.569 92.8247C139.569 92.8247 137.552 97.9447 132.326 99.0795C127.095 100.208 123.248 96.9204 123.248 96.9204ZM113.776 102.78C113.776 102.78 116.649 99.0559 122.112 99.575C127.581 100.09 130.566 103.817 130.566 103.817C130.566 103.817 127.093 108.085 121.766 107.586C116.443 107.079 113.776 102.78 113.776 102.78ZM109.734 105.157C115.098 106.323 117.621 110.38 117.621 110.38C117.621 110.38 113.665 114.201 108.439 113.067C103.207 111.93 101.074 107.344 101.074 107.344C101.074 107.344 104.371 103.987 109.734 105.157Z" fill="url(#paint2_linear_4523_39646)"/>
<path d="M137.249 78.3607C137.249 78.3607 136.438 73.7259 140.502 70.0349C144.569 66.3499 149.339 66.6564 149.339 66.6564C149.339 66.6564 150.15 72.098 146.186 75.6908C142.224 79.288 137.249 78.3607 137.249 78.3607ZM128.939 76.9503C128.939 76.9503 124.671 74.2351 124.227 68.8996C123.782 63.5669 128.09 60.1452 128.09 60.1452C128.09 60.1452 131.783 63.1747 132.241 68.6504C132.697 74.1216 128.939 76.9503 128.939 76.9503ZM125.701 81.9767C125.439 87.4619 121.343 89.7804 121.343 89.7804C121.343 89.7804 117.463 86.5267 117.719 81.1854C117.98 75.8399 122.697 73.0101 122.697 73.0101C122.697 73.0101 125.963 76.4914 125.701 81.9767ZM113.755 80.1853C113.755 80.1853 116.679 83.9646 115.904 89.3958C115.125 94.8357 110.835 96.7565 110.835 96.7565C110.835 96.7565 107.282 93.1564 108.037 87.8587C108.796 82.5626 113.755 80.1853 113.755 80.1853ZM97.8334 102.52C97.8334 102.52 95.4655 98.0447 97.7136 93.1906C99.9662 88.3352 105.403 87.4922 105.403 87.4922C105.403 87.4922 107.116 91.9527 104.808 96.9335C102.499 101.91 97.8334 102.52 97.8334 102.52ZM136.219 66.5607C136.219 66.5607 132.972 63.1555 134.307 57.8334C135.64 52.5097 139.776 50.1164 139.776 50.1164C139.776 50.1164 143.468 54.1915 142.167 59.3849C140.865 64.5738 136.219 66.5607 136.219 66.5607ZM131.952 88.3781C131.952 88.3781 132.547 83.7101 137.516 81.3855C142.491 79.0611 146.956 80.7571 146.956 80.7571C146.956 80.7571 146.126 86.1958 141.28 88.4635C136.432 90.7341 131.952 88.3781 131.952 88.3781ZM123.248 96.9204C123.248 96.9204 124.867 92.5032 130.226 91.3395C135.593 90.1759 139.569 92.8247 139.569 92.8247C139.569 92.8247 137.552 97.9447 132.326 99.0795C127.095 100.208 123.248 96.9204 123.248 96.9204ZM113.776 102.78C113.776 102.78 116.649 99.0559 122.112 99.575C127.581 100.09 130.566 103.817 130.566 103.817C130.566 103.817 127.093 108.085 121.766 107.586C116.443 107.079 113.776 102.78 113.776 102.78ZM109.734 105.157C115.098 106.323 117.621 110.38 117.621 110.38C117.621 110.38 113.665 114.201 108.439 113.067C103.207 111.93 101.074 107.344 101.074 107.344C101.074 107.344 104.371 103.987 109.734 105.157Z" fill="#FF6200" style="mix-blend-mode:color"/>
<path d="M134.251 69.11L136.869 69.1879C136.858 69.473 135.533 97.8266 91.9236 107.606L91.3519 105.053C132.875 95.7383 134.216 70.1926 134.251 69.11Z" fill="white"/>
<path d="M134.251 69.11L136.869 69.1879C136.858 69.473 135.533 97.8266 91.9236 107.606L91.3519 105.053C132.875 95.7383 134.216 70.1926 134.251 69.11Z" fill="url(#paint3_linear_4523_39646)"/>
<path d="M134.251 69.11L136.869 69.1879C136.858 69.473 135.533 97.8266 91.9236 107.606L91.3519 105.053C132.875 95.7383 134.216 70.1926 134.251 69.11Z" fill="#FF6200" style="mix-blend-mode:color"/>
<path d="M141.999 48.1024L139.776 50.1165C141.888 48.2031 141.994 48.1081 142 48.1042L142.002 48.1054C142.003 48.1067 142.004 48.1087 142.006 48.1101C142.008 48.113 142.012 48.1161 142.015 48.1195C142.021 48.1263 142.028 48.1344 142.035 48.1431C142.051 48.1609 142.071 48.1826 142.093 48.2086C142.138 48.2607 142.195 48.33 142.264 48.4144C142.4 48.583 142.58 48.8164 142.786 49.1083C143.194 49.6892 143.716 50.5224 144.189 51.559C145.128 53.6187 145.944 56.6511 145.077 60.1134L145.077 60.1156C144.568 62.145 143.661 63.7852 142.661 65.081C143.781 64.5765 144.849 64.2491 145.785 64.0379C146.821 63.8038 147.712 63.708 148.361 63.6714C148.686 63.653 148.954 63.6488 149.152 63.6505C149.251 63.6514 149.333 63.6534 149.396 63.6558C149.428 63.657 149.456 63.6589 149.478 63.66C149.489 63.6606 149.5 63.6601 149.508 63.6606C149.513 63.6609 149.517 63.6619 149.52 63.6621C149.522 63.6622 149.524 63.6623 149.526 63.6624L149.529 63.6619C149.53 63.6623 149.529 63.6954 149.339 66.6561C149.339 66.6561 144.569 66.3502 140.502 70.0353C136.464 73.7034 137.239 78.3036 137.249 78.3602C137.249 78.3602 142.223 79.2877 146.186 75.6907C150.149 72.0979 149.339 66.6561 149.339 66.6561C152.154 66.2366 152.298 66.2163 152.306 66.2164L152.306 66.2194C152.307 66.2211 152.307 66.2228 152.307 66.2246C152.308 66.2285 152.309 66.2332 152.309 66.2377C152.311 66.2466 152.312 66.2571 152.314 66.2686C152.317 66.2921 152.321 66.3212 152.325 66.3553C152.334 66.4234 152.343 66.5123 152.353 66.6202C152.373 66.8363 152.393 67.1309 152.402 67.488C152.42 68.1981 152.392 69.1807 152.21 70.3053C151.849 72.5398 150.845 75.5168 148.201 77.9137L148.199 77.9133C148.171 77.9386 148.143 77.9636 148.115 77.9886L150.288 78.8135L149.922 81.2102L146.956 80.7574L147.952 78.1326C147.951 78.1335 147.95 78.1344 147.949 78.1353C147.846 78.4075 147.592 79.0834 146.956 80.7574C146.956 80.7574 142.491 79.0613 137.515 81.3857C132.571 83.6994 131.958 88.334 131.952 88.3778C131.963 88.3836 136.438 90.7312 141.279 88.4637C146.108 86.2043 146.95 80.7968 146.956 80.7574C149.922 81.2101 149.922 81.2112 149.922 81.2124L149.921 81.215C149.921 81.2166 149.92 81.2182 149.92 81.2199C149.92 81.2237 149.919 81.2285 149.918 81.233C149.917 81.242 149.914 81.2521 149.912 81.2637C149.909 81.2871 149.904 81.3159 149.898 81.3497C149.886 81.4173 149.869 81.5057 149.847 81.6121C149.802 81.8245 149.735 82.1115 149.638 82.4552C149.446 83.139 149.13 84.0699 148.624 85.091C147.62 87.1196 145.783 89.6679 142.551 91.1804C142.543 91.1841 142.535 91.1873 142.527 91.191L143.247 91.6707L142.36 93.9243L139.569 92.8249L140.082 92.0529C139.931 92.2789 139.761 92.5359 139.569 92.8249C139.569 92.8249 135.593 90.1758 130.227 91.3392C124.897 92.4965 123.266 96.872 123.248 96.92C123.266 96.9355 127.108 100.205 132.326 99.0793L132.806 98.9612C137.662 97.633 139.558 92.8517 139.569 92.8249C142.248 93.8803 142.355 93.9233 142.359 93.9261L142.358 93.9287C142.358 93.9303 142.356 93.9326 142.356 93.9344C142.354 93.9378 142.353 93.9415 142.352 93.9454C142.348 93.9539 142.344 93.964 142.34 93.975C142.331 93.9969 142.32 94.0241 142.306 94.0557C142.279 94.1189 142.243 94.2011 142.198 94.2998C142.107 94.4969 141.978 94.7618 141.807 95.0755C141.468 95.6994 140.953 96.5371 140.234 97.4205C138.805 99.1756 136.449 101.253 132.963 102.01L134.422 103.832L132.893 105.71L130.567 103.816L132.772 102.05C132.77 102.05 132.768 102.05 132.767 102.05C132.55 102.225 131.994 102.673 130.567 103.816C130.567 103.816 127.581 100.09 122.112 99.5752C116.671 99.0582 113.799 102.75 113.776 102.78C113.776 102.78 116.444 107.079 121.766 107.586C127.093 108.085 130.567 103.816 130.567 103.816C132.772 105.611 132.886 105.706 132.891 105.712L132.89 105.714C132.889 105.715 132.888 105.717 132.887 105.719C132.885 105.722 132.882 105.725 132.879 105.729C132.873 105.736 132.866 105.744 132.859 105.753C132.843 105.771 132.824 105.793 132.802 105.819C132.757 105.871 132.698 105.938 132.625 106.019C132.479 106.179 132.275 106.394 132.017 106.641C131.505 107.133 130.76 107.774 129.807 108.398C127.913 109.638 125.038 110.905 121.486 110.573L121.481 110.573C121.407 110.566 121.332 110.557 121.259 110.548L121.449 110.853L119.706 112.537L117.621 110.38L118.388 109.902L118.386 109.902C118.161 110.042 117.907 110.202 117.621 110.38C117.598 110.344 115.23 106.567 110.229 105.274L109.733 105.156C104.371 103.988 101.074 107.344 101.074 107.344C101.098 107.395 103.237 111.936 108.439 113.067C113.642 114.196 117.585 110.414 117.621 110.38C119.705 112.537 119.704 112.538 119.703 112.539L119.702 112.541C119.701 112.542 119.699 112.543 119.697 112.545C119.695 112.547 119.692 112.55 119.689 112.553C119.682 112.56 119.675 112.567 119.666 112.575C119.649 112.592 119.627 112.612 119.602 112.635C119.551 112.681 119.485 112.741 119.403 112.812C119.238 112.954 119.01 113.142 118.725 113.356C118.158 113.783 117.342 114.331 116.322 114.837C114.294 115.841 111.29 116.755 107.803 115.999L107.802 115.999C104.421 115.264 102.065 113.416 100.588 111.812C99.8483 111.009 99.3102 110.248 98.9504 109.676C98.7851 109.413 98.6553 109.186 98.5594 109.01C96.6543 109.556 94.6628 110.066 92.5804 110.533L89.6521 111.19L87.7685 102.782L90.6951 102.126C91.9027 101.855 93.074 101.57 94.21 101.273C94.1256 100.943 94.0462 100.587 93.9779 100.208C93.5913 98.0622 93.5383 95.0672 94.9914 91.9296L94.9918 91.9283C96.4942 88.6899 99.0379 86.8458 101.064 85.8358C102.084 85.3276 103.014 85.0079 103.698 84.8136C104.041 84.7159 104.329 84.6488 104.541 84.6037C104.647 84.5811 104.735 84.5637 104.803 84.5513C104.837 84.5452 104.866 84.5406 104.889 84.5367C104.901 84.5347 104.911 84.5326 104.92 84.5312C104.925 84.5305 104.929 84.5297 104.933 84.5291C104.934 84.5289 104.936 84.5288 104.938 84.5286L104.941 84.5281C104.942 84.5316 104.955 84.6145 105.243 86.4738L105.244 86.4725L104.943 84.528L105.92 84.3766C106.757 82.4092 108 80.91 109.124 79.8517C109.953 79.0711 110.751 78.4974 111.349 78.1142C111.65 77.9214 111.905 77.7729 112.096 77.6684C112.191 77.6162 112.27 77.575 112.331 77.5437C112.362 77.5282 112.387 77.5144 112.408 77.5039C112.419 77.4987 112.429 77.4937 112.437 77.4897C112.441 77.4878 112.446 77.4863 112.449 77.4847L112.456 77.481C112.457 77.4808 112.47 77.5074 113.696 80.0643L112.458 77.4801L114.644 76.4323L115.44 77.462C116.101 75.6379 117.111 74.1812 118.055 73.1097C118.808 72.255 119.549 71.6095 120.109 71.1721C120.39 70.9522 120.63 70.7814 120.81 70.6597C120.9 70.5987 120.975 70.5499 121.033 70.513C121.062 70.4946 121.086 70.4787 121.106 70.4663C121.116 70.4601 121.126 70.4542 121.134 70.4495C121.137 70.4473 121.141 70.445 121.144 70.4431L121.152 70.439C121.154 70.4422 121.181 70.4888 121.544 71.0923C121.543 71.09 121.543 71.0876 121.542 71.0853L121.153 70.4381L121.385 70.2991C121.321 69.9269 121.27 69.5435 121.238 69.1484C120.941 65.5913 122.239 62.7309 123.5 60.8511C124.135 59.905 124.786 59.168 125.284 58.6611C125.534 58.4064 125.75 58.2055 125.912 58.0613C125.993 57.989 126.062 57.93 126.114 57.8858C126.141 57.8639 126.163 57.8455 126.181 57.8305C126.19 57.823 126.199 57.8165 126.206 57.8107C126.21 57.8079 126.213 57.8046 126.216 57.8022C126.217 57.8011 126.219 57.8001 126.22 57.7991L126.222 57.7977C126.226 57.8004 126.296 57.8861 128.017 60.0533L126.224 57.7959L128.12 56.2896L129.993 57.8257L128.09 60.1451C129.993 57.8257 129.994 57.827 129.995 57.8278L129.997 57.8291C129.998 57.8301 129.999 57.8313 130.001 57.8325C130.004 57.8349 130.007 57.8377 130.01 57.8405C130.017 57.8462 130.025 57.8528 130.034 57.8601C130.051 57.8745 130.072 57.8917 130.096 57.9124C130.144 57.9541 130.206 58.0093 130.279 58.0764C130.425 58.2104 130.618 58.3955 130.843 58.6308C130.917 58.7081 130.992 58.793 131.073 58.8815C131.139 58.3078 131.244 57.7143 131.398 57.103C132.22 53.8222 133.905 51.4509 135.366 49.9119C136.098 49.1414 136.786 48.5677 137.304 48.177C137.565 47.9812 137.784 47.8291 137.95 47.7205C138.033 47.6662 138.103 47.6224 138.157 47.589C138.184 47.5724 138.208 47.5588 138.227 47.5472C138.237 47.5415 138.246 47.5358 138.253 47.5313C138.257 47.5291 138.261 47.5273 138.265 47.5254C138.266 47.5245 138.267 47.523 138.268 47.5223L138.271 47.5209C138.272 47.5209 138.296 47.5596 139.67 49.9337L138.273 47.52L140.371 46.3056L141.999 48.1024ZM134.251 69.11C134.216 70.1926 132.875 95.7383 91.3523 105.053L91.9232 107.606C135.533 97.8268 136.858 69.4728 136.869 69.1877L134.251 69.11ZM113.755 80.1857C113.704 80.2103 108.792 82.5906 108.037 87.8593C107.282 93.1567 110.835 96.7567 110.835 96.7567C110.86 96.7455 114.864 94.9381 115.821 89.8955L115.905 89.396C116.583 84.644 114.428 81.1563 113.879 80.3585L113.755 80.1857C114.242 79.8086 114.63 79.5092 114.938 79.2712L114.938 79.269L113.755 80.1857ZM105.402 87.4924C105.354 87.5 99.9562 88.357 97.7137 93.1905C95.4655 98.0446 97.8336 102.521 97.8336 102.521C97.8573 102.517 102.218 101.935 104.585 97.387L104.807 96.9333C107.11 91.9631 105.41 87.5114 105.402 87.4924ZM122.697 73.0101C122.662 73.0308 117.979 75.8595 117.718 81.1851C117.463 86.5264 121.343 89.7809 121.343 89.7809C121.343 89.7809 125.187 87.6047 125.666 82.482L125.701 81.977C125.963 76.4917 122.697 73.0101 122.697 73.0101ZM20.8597 47.5203L19.3565 50.1166C20.7759 47.6641 20.8561 47.5285 20.8615 47.5216L20.8641 47.5224C20.8656 47.5232 20.8674 47.5244 20.869 47.5253C20.8723 47.5272 20.8763 47.5294 20.8801 47.5316C20.8876 47.536 20.8963 47.5411 20.9058 47.5467C20.9251 47.5583 20.9487 47.5726 20.9758 47.5893C21.03 47.6226 21.0996 47.6665 21.1824 47.7208C21.348 47.8294 21.568 47.9811 21.8281 48.1768C22.347 48.5675 23.0342 49.1417 23.7662 49.9123C25.2284 51.4516 26.914 53.823 27.7356 57.1048L27.7343 57.1044C27.8875 57.7149 27.9925 58.3075 28.0588 58.8805C28.1395 58.792 28.2163 58.7083 28.2902 58.631C28.5153 58.3956 28.7081 58.2103 28.8541 58.0763C28.9271 58.0092 28.9891 57.9548 29.0373 57.9131C29.0612 57.8924 29.0814 57.8741 29.0985 57.8597C29.1072 57.8524 29.1157 57.846 29.1226 57.8403C29.1259 57.8376 29.1287 57.8346 29.1315 57.8323C29.133 57.8311 29.1349 57.8298 29.1363 57.8287L29.138 57.8278C29.1424 57.8313 29.2219 57.9259 30.9619 60.0468L29.1401 57.8255L31.0124 56.2901L32.9086 57.7959L31.0428 60.1454C32.8706 57.8444 32.9086 57.7974 32.9103 57.7971L32.9126 57.7993C32.9139 57.8003 32.9152 57.8015 32.9166 57.8027C32.9196 57.8051 32.9229 57.8079 32.9264 57.8107C32.9335 57.8165 32.9421 57.8232 32.9513 57.8307C32.9696 57.8456 32.992 57.864 33.0181 57.886C33.0707 57.9301 33.1389 57.9887 33.22 58.0608C33.3822 58.2051 33.5987 58.4058 33.8489 58.6606C34.3467 59.1674 34.9976 59.9052 35.6324 60.8513C36.8938 62.7312 38.1921 65.5918 37.8953 69.149L37.894 69.1486C37.8611 69.5434 37.8099 69.9264 37.7466 70.2983L37.9796 70.438L37.5896 71.0874C37.5892 71.0892 37.5884 71.0909 37.588 71.0927C37.9508 70.4888 37.9786 70.4424 37.9814 70.4392L37.984 70.4401C37.9855 70.4409 37.9873 70.442 37.9889 70.443C37.9921 70.4449 37.9953 70.4475 37.9991 70.4498C38.0069 70.4545 38.0165 70.4599 38.0265 70.4662C38.0466 70.4786 38.071 70.4942 38.0997 70.5125C38.1577 70.5494 38.2333 70.5984 38.3233 70.6594C38.5028 70.7812 38.7431 70.9523 39.0244 71.1723C39.5839 71.6096 40.3244 72.2553 41.0773 73.11C42.0211 74.1815 43.0302 75.6384 43.6908 77.4623L44.4884 76.4326L46.6745 77.48L45.3782 80.1856C46.675 77.4803 46.676 77.4803 46.6771 77.4808L46.6789 77.4821C46.6804 77.4828 46.682 77.4842 46.6838 77.485C46.6872 77.4867 46.6912 77.4881 46.6952 77.49C46.7034 77.494 46.713 77.4986 46.7235 77.5038C46.7448 77.5143 46.7712 77.5274 46.8017 77.543C46.8629 77.5744 46.9422 77.6168 47.0375 77.6691C47.2276 77.7736 47.4828 77.9214 47.7834 78.1141C48.3813 78.4973 49.1792 79.0706 50.0086 79.8512C51.1325 80.9092 52.3731 82.4088 53.2101 84.3753L54.19 84.5274L53.8875 86.4718C53.8877 86.4728 53.8878 86.4738 53.888 86.4748C54.1902 84.5277 54.1916 84.5281 54.1926 84.5282L54.1948 84.5282C54.1965 84.5284 54.1982 84.5295 54.2001 84.5298C54.2039 84.5304 54.2083 84.5301 54.2128 84.5308C54.2217 84.5323 54.2319 84.5347 54.2435 84.5367C54.2669 84.5406 54.2961 84.5455 54.3299 84.5517C54.3974 84.564 54.4854 84.5808 54.5914 84.6033C54.8038 84.6485 55.0918 84.7164 55.4355 84.8141C56.1187 85.0083 57.0481 85.3275 58.0675 85.8355C60.0939 86.8454 62.6383 88.6893 64.1408 91.928L64.1417 91.9297C65.5948 95.0673 65.5413 98.0627 65.1547 100.208C65.0864 100.587 65.0054 100.942 64.921 101.272C66.0576 101.57 67.2295 101.855 68.4377 102.126L71.3635 102.782L69.4806 111.19L66.5521 110.533C64.4695 110.066 62.4776 109.557 60.5724 109.01C60.4765 109.187 60.3483 109.413 60.1832 109.676C59.8234 110.248 59.2843 111.008 58.5445 111.811C57.0673 113.415 54.7113 115.264 51.3304 115.999C47.8439 116.755 44.8389 115.841 42.8112 114.837C41.7907 114.331 40.9746 113.784 40.4072 113.357C40.1218 113.142 39.8944 112.954 39.7302 112.812C39.6481 112.741 39.5819 112.681 39.5313 112.634C39.5059 112.611 39.4838 112.591 39.4666 112.575L39.4308 112.541L39.4291 112.539C39.4282 112.539 39.4273 112.537 41.5115 110.38C41.5307 110.399 45.4804 114.199 50.694 113.067C55.9259 111.93 58.0588 107.344 58.0588 107.344C58.0588 107.344 54.964 104.194 49.8952 105.06L49.3994 105.157C44.0355 106.323 41.5115 110.38 41.5115 110.38C41.2242 110.201 40.9696 110.042 40.7434 109.902L41.5115 110.38L39.4268 112.537L37.6838 110.853L37.8721 110.549C37.799 110.557 37.7255 110.566 37.6516 110.573L37.6464 110.574C34.0939 110.906 31.2196 109.638 29.3258 108.398C28.3726 107.774 27.6276 107.132 27.115 106.64C26.8573 106.393 26.654 106.179 26.5079 106.019C26.4347 105.939 26.3751 105.871 26.3303 105.819C26.308 105.793 26.2893 105.771 26.2742 105.753C26.2666 105.744 26.2602 105.735 26.2544 105.728C26.2516 105.724 26.2486 105.722 26.2463 105.719C26.2451 105.717 26.2438 105.715 26.2427 105.714L26.2409 105.713C26.2401 105.712 26.2399 105.711 28.5667 103.817C28.6047 103.864 32.0694 108.082 37.3669 107.586C42.6626 107.081 45.33 102.823 45.3566 102.78C45.342 102.761 42.47 99.0578 37.0206 99.5756C31.5576 100.09 28.5734 103.809 28.5667 103.817C27.1368 102.672 26.5807 102.224 26.3644 102.05C26.363 102.05 26.3614 102.05 26.36 102.05L28.5667 103.817L26.2395 105.71L24.7105 103.831L26.1691 102.011C22.6834 101.254 20.3286 99.1757 18.8998 97.4208C18.1807 96.5374 17.665 95.7002 17.3256 95.0762C17.1548 94.7624 17.0252 94.497 16.9346 94.2998C16.8892 94.201 16.8532 94.1187 16.8263 94.0555C16.8129 94.0239 16.8024 93.9965 16.7934 93.9745C16.789 93.9637 16.7848 93.954 16.7814 93.9455C16.7797 93.9414 16.7777 93.9374 16.7763 93.9339C16.7757 93.9323 16.7755 93.9306 16.7749 93.9291L16.7735 93.9265C16.7731 93.9254 16.7853 93.9192 19.5143 92.8442L16.7726 93.9248L15.885 91.671L16.6052 91.1905C16.5974 91.1869 16.5895 91.1833 16.5818 91.1797L16.5814 91.181C13.3491 89.6684 11.5131 87.1189 10.509 85.0902C10.0037 84.0693 9.68708 83.1386 9.49457 82.4549C9.39781 82.1113 9.33057 81.8242 9.28598 81.6118C9.26364 81.5055 9.24666 81.4172 9.2345 81.3496C9.22843 81.3159 9.22372 81.2868 9.21985 81.2634C9.21795 81.252 9.21618 81.2418 9.21477 81.233C9.21406 81.2285 9.21288 81.2238 9.21229 81.2199C9.21201 81.2182 9.21198 81.2163 9.21173 81.2147L9.21168 81.2125C9.2115 81.2113 9.21103 81.2099 12.1504 80.7612L9.21117 81.2095L8.8449 78.8135L11.0158 77.9885C10.9874 77.9631 10.9585 77.938 10.9302 77.9123C8.28763 75.5158 7.28419 72.5395 6.92276 70.3057C6.74085 69.1812 6.71259 68.1986 6.73025 67.4885C6.73913 67.1314 6.75924 66.8368 6.77926 66.6207C6.78929 66.5124 6.79932 66.423 6.80764 66.3548C6.8118 66.3207 6.81599 66.2916 6.81918 66.2681C6.82076 66.2564 6.82244 66.2459 6.82371 66.2369C6.82431 66.2327 6.82466 66.2287 6.82518 66.2251C6.82546 66.2232 6.8261 66.2207 6.82635 66.219L6.8263 66.2168C6.82648 66.2156 6.82668 66.2146 9.4853 66.6107L6.82712 66.2142L7.18338 63.8181L9.60124 63.6623L9.79346 66.6564C9.60631 63.7447 9.60236 63.6646 9.60342 63.6623L9.60693 63.6626C9.60859 63.6625 9.61036 63.6622 9.61216 63.6621C9.61596 63.6619 9.62039 63.6612 9.6248 63.6609C9.63357 63.6604 9.6438 63.6599 9.65491 63.6594C9.67731 63.6582 9.70444 63.6574 9.73609 63.6562C9.79962 63.6538 9.88169 63.6514 9.98059 63.6505C10.1786 63.6488 10.4463 63.6524 10.7713 63.6708C11.4198 63.7074 12.3107 63.8036 13.3476 64.0377C14.2833 64.249 15.3505 64.578 16.4715 65.0827C15.471 63.7867 14.5655 62.1451 14.0561 60.1151L14.0552 60.1134C13.1882 56.6513 14.0046 53.6188 14.9436 51.5591C15.4161 50.5225 15.9384 49.6892 16.347 49.1083C16.5524 48.8163 16.7327 48.583 16.8692 48.4143C16.9375 48.3299 16.9953 48.2611 17.0401 48.209C17.0623 48.1832 17.0815 48.1612 17.0971 48.1435C17.105 48.1346 17.1123 48.1258 17.1184 48.119C17.1213 48.1157 17.1244 48.1128 17.1269 48.11C17.1281 48.1087 17.1292 48.1073 17.1303 48.106L17.1324 48.1038C17.1366 48.106 17.2212 48.1817 19.299 50.0642L17.1337 48.102L18.7619 46.3057L20.8597 47.5203ZM151.949 63.8176L152.306 66.2142L149.339 66.6561L149.532 63.6627L151.949 63.8176ZM128.09 60.1451C128.07 60.1607 123.783 63.5794 124.227 68.8999L124.28 69.3923C124.934 74.4022 128.939 76.9503 128.939 76.9503C128.706 77.3164 128.505 77.6286 128.335 77.8964L128.336 77.8981L128.939 76.9503C128.962 76.9328 132.695 74.1048 132.24 68.6505C131.783 63.1748 128.09 60.1451 128.09 60.1451ZM22.2631 69.1875C22.2741 69.4726 23.5992 97.8264 67.2085 107.606L67.7813 105.053C26.2593 95.7385 24.9167 70.1934 24.8815 69.1101L22.2631 69.1875ZM139.776 50.1165C139.776 50.1165 135.641 52.5099 134.308 57.8336L134.195 58.3264C133.175 63.3455 136.196 66.5361 136.219 66.5606C136.219 66.5606 140.58 64.6961 142.036 59.862L142.167 59.385C143.463 54.208 139.799 50.1421 139.776 50.1165ZM53.7302 87.492C53.7302 87.492 52.0167 91.9527 54.3244 96.9334L54.5481 97.3874C56.912 101.93 61.2656 102.516 61.2991 102.52C61.3031 102.513 63.5195 98.3161 61.6165 93.6449L61.419 93.1903C59.1716 88.3465 53.7554 87.4959 53.7302 87.492ZM45.3782 80.1856C45.3782 80.1856 42.4536 83.9644 43.2281 89.3954C44.0074 94.8353 48.298 96.7569 48.298 96.7569C48.298 96.7569 51.8513 93.1562 51.0957 87.8585C50.3414 82.5922 45.4333 80.2121 45.3782 80.1856ZM19.5636 92.8247L19.6613 93.047C20.119 94.0428 22.2344 98.0863 26.8066 99.0793L27.2937 99.173C32.2744 100.006 35.8852 96.9204 35.8852 96.9204C35.8852 96.9204 34.2653 92.5031 28.9059 91.3394C23.5394 90.176 19.5636 92.8247 19.5636 92.8247C19.3709 92.5354 19.2011 92.2793 19.0504 92.0532L19.5636 92.8247ZM36.4361 73.0103C36.4241 73.0231 33.1698 76.5014 33.4311 81.9765L33.4677 82.4819C33.9461 87.6046 37.7895 89.7808 37.7895 89.7808C37.7895 89.7808 41.4307 86.727 41.426 81.6803L41.4137 81.1852C41.1532 75.8637 36.4779 73.0355 36.4361 73.0103ZM44.1938 79.2711C44.4832 79.4948 44.8435 79.7722 45.2906 80.1182L44.1925 79.2685L44.1938 79.2711ZM12.177 80.7571C12.1784 80.7664 13.0109 86.1974 17.8524 88.4633C22.7 90.7339 27.1811 88.3784 27.1811 88.3784C27.1811 88.3784 26.5852 83.7102 21.6169 81.3856C16.6648 79.0722 12.2187 80.7414 12.177 80.7571ZM31.0428 60.1454C31.0328 60.1536 27.3493 63.1822 26.8922 68.6505C26.4929 73.4381 29.3204 76.2024 30.0332 76.8183L30.1935 76.95C30.1935 76.95 34.4615 74.235 34.905 68.8995C35.348 63.5903 31.0802 60.1753 31.0428 60.1454ZM9.79346 66.6564C9.78993 66.6803 8.9918 72.1058 12.9465 75.6907C16.8941 79.2745 21.8468 78.3677 21.8836 78.3609C21.8836 78.3609 22.6944 73.7254 18.631 70.0344C14.5634 66.3495 9.79346 66.6564 9.79346 66.6564ZM12.177 80.7571C11.5409 79.0826 11.2857 78.4074 11.183 78.1353C11.1821 78.1346 11.1808 78.1344 11.1799 78.1337L12.177 80.7571ZM19.3565 50.1166C19.3181 50.1593 15.6718 54.2186 16.9653 59.3844L17.0973 59.8615C18.5534 64.6959 22.9137 66.5606 22.9137 66.5606C22.9417 66.5311 26.1552 63.1325 24.8256 57.8337C23.4927 52.51 19.3565 50.1166 19.3565 50.1166Z" fill="#20303F"/>
<path d="M99.3693 114.197C105.051 103.46 100.952 90.1485 90.2152 84.4672C79.4786 78.7859 66.167 82.8847 60.4856 93.6213C54.8043 104.358 58.9031 117.669 69.6397 123.351C80.3763 129.032 93.6879 124.933 99.3693 114.197Z" fill="white"/>
<path d="M99.3693 114.197C105.051 103.46 100.952 90.1485 90.2152 84.4672C79.4786 78.7859 66.167 82.8847 60.4856 93.6213C54.8043 104.358 58.9031 117.669 69.6397 123.351C80.3763 129.032 93.6879 124.933 99.3693 114.197Z" fill="url(#paint4_linear_4523_39646)"/>
<path d="M99.3693 114.197C105.051 103.46 100.952 90.1485 90.2152 84.4672C79.4786 78.7859 66.167 82.8847 60.4856 93.6213C54.8043 104.358 58.9031 117.669 69.6397 123.351C80.3763 129.032 93.6879 124.933 99.3693 114.197Z" fill="#FF6200" style="mix-blend-mode:color"/>
<path d="M57.8855 92.245C64.3269 80.0723 79.4188 75.4257 91.5915 81.867C103.764 88.3085 108.411 103.4 101.969 115.573C95.528 127.746 80.4362 132.392 68.2634 125.951C56.0908 119.51 51.4442 104.418 57.8855 92.245ZM90.2155 84.4676C79.4791 78.7864 66.1675 82.8847 60.4861 93.6209L60.2263 94.1268C54.9342 104.772 59.071 117.758 69.6394 123.35C80.2082 128.943 93.2726 125.059 99.0974 114.695L99.3689 114.197C104.961 103.628 101.077 90.5639 90.7136 84.7391L90.2155 84.4676Z" fill="#20303F"/>
<path d="M77.6562 104.31V101.648H79.7925C80.6307 101.648 81.3102 101.421 81.8311 100.965C82.3519 100.509 82.6123 99.9191 82.6123 99.1948C82.6123 98.4705 82.3641 97.8968 81.8677 97.4736C81.3713 97.0423 80.6714 96.8267 79.7681 96.8267C78.9136 96.8267 78.2218 97.0586 77.6929 97.5225C77.1639 97.9863 76.875 98.6048 76.8262 99.3779H73.4326C73.4977 97.7422 74.1203 96.436 75.3003 95.4595C76.4803 94.4829 78.0225 93.9946 79.9268 93.9946C81.766 93.9946 83.2511 94.4259 84.3823 95.2886C85.5216 96.1512 86.0913 97.2865 86.0913 98.6943C86.0913 99.7604 85.7576 100.664 85.0903 101.404C84.423 102.145 83.5441 102.613 82.4536 102.808V102.881C83.7801 102.995 84.8299 103.431 85.603 104.188C86.3843 104.936 86.7749 105.917 86.7749 107.129C86.7749 108.7 86.1279 109.97 84.834 110.938C83.5482 111.906 81.884 112.391 79.8413 112.391C77.8638 112.391 76.2646 111.894 75.0439 110.901C73.8314 109.909 73.1803 108.594 73.0908 106.958H76.6187C76.6756 107.707 76.993 108.305 77.5708 108.753C78.1567 109.201 78.9299 109.424 79.8901 109.424C80.8097 109.424 81.5625 109.188 82.1484 108.716C82.7344 108.244 83.0273 107.638 83.0273 106.897C83.0273 106.092 82.7425 105.461 82.1729 105.005C81.6032 104.542 80.8219 104.31 79.8291 104.31H77.6562Z" fill="#21303F"/>
<defs>
<linearGradient id="paint0_linear_4523_39646" x1="137.532" y1="44.2865" x2="24.0788" y2="104.321" gradientUnits="userSpaceOnUse">
<stop stop-color="#FFD60A"/>
<stop offset="0.25" stop-color="#FFE770"/>
<stop offset="0.5" stop-color="#FFD60A"/>
<stop offset="0.75" stop-color="#FFE870"/>
<stop offset="1" stop-color="#FFD60A"/>
</linearGradient>
<linearGradient id="paint1_linear_4523_39646" x1="137.532" y1="44.2865" x2="24.0788" y2="104.321" gradientUnits="userSpaceOnUse">
<stop stop-color="#FFD60A"/>
<stop offset="0.25" stop-color="#FFE770"/>
<stop offset="0.5" stop-color="#FFD60A"/>
<stop offset="0.75" stop-color="#FFE870"/>
<stop offset="1" stop-color="#FFD60A"/>
</linearGradient>
<linearGradient id="paint2_linear_4523_39646" x1="137.532" y1="44.2865" x2="24.0788" y2="104.321" gradientUnits="userSpaceOnUse">
<stop stop-color="#FFD60A"/>
<stop offset="0.25" stop-color="#FFE770"/>
<stop offset="0.5" stop-color="#FFD60A"/>
<stop offset="0.75" stop-color="#FFE870"/>
<stop offset="1" stop-color="#FFD60A"/>
</linearGradient>
<linearGradient id="paint3_linear_4523_39646" x1="137.532" y1="44.2865" x2="24.0788" y2="104.321" gradientUnits="userSpaceOnUse">
<stop stop-color="#FFD60A"/>
<stop offset="0.25" stop-color="#FFE770"/>
<stop offset="0.5" stop-color="#FFD60A"/>
<stop offset="0.75" stop-color="#FFE870"/>
<stop offset="1" stop-color="#FFD60A"/>
</linearGradient>
<linearGradient id="paint4_linear_4523_39646" x1="157.212" y1="78.6475" x2="31.325" y2="78.6475" gradientUnits="userSpaceOnUse">
<stop stop-color="#FFD60A"/>
<stop offset="0.25" stop-color="#FFE770"/>
<stop offset="0.5" stop-color="#FFD60A"/>
<stop offset="0.75" stop-color="#FFE870"/>
<stop offset="1" stop-color="#FFD60A"/>
</linearGradient>
</defs>
</svg>
