<svg width="27" height="27" viewBox="0 0 27 27" fill="none" xmlns="http://www.w3.org/2000/svg">
<circle cx="13.5007" cy="13.4997" r="13.1667" fill="white"/>
<path d="M17.1457 14.2125C17.1457 15.3031 16.6756 16.3739 15.823 17.2265L13.3561 19.7007C12.502 20.5512 11.432 21.0197 10.3443 21.0197C9.25665 21.0197 8.17633 20.546 7.31634 19.686C6.45855 18.8283 5.98633 17.7546 5.98633 16.6618C5.98633 15.569 6.45635 14.5033 7.309 13.6536L9.44465 11.518L9.41234 11.6678C9.29557 12.209 9.36167 12.8399 9.58713 13.3554L9.59961 13.3834L8.37976 14.6106C7.81133 15.179 7.49847 15.8899 7.49847 16.6111C7.49847 17.3323 7.81427 18.049 8.38711 18.6219C8.9548 19.1925 9.66645 19.5068 10.3906 19.5068C11.1147 19.5068 11.8278 19.1925 12.3992 18.6219L14.753 16.2681C15.3214 15.6997 15.6342 14.9866 15.6342 14.2617C15.6342 13.5368 15.3184 12.8193 14.7456 12.2494C14.3042 11.8081 13.7013 11.5569 12.9022 11.4827L12.8075 11.4739L13.9671 10.2988L13.9833 10.315L13.9877 10.293L13.9995 10.2952C14.7684 10.4413 15.3625 10.7329 15.8164 11.1867C16.6742 12.0445 17.1464 13.119 17.1464 14.2118L17.1457 14.2125Z" fill="#18222D"/>
<path d="M21.3344 10.0115C21.3344 11.1043 20.8644 12.1736 20.0117 13.0234L17.8738 15.1539L17.9084 15.0011C18.0295 14.4775 17.9642 13.8466 17.7343 13.3134L17.7218 13.2848L17.7439 13.2628L18.949 12.0649C19.5152 11.4958 19.8274 10.7834 19.8281 10.0608C19.8288 9.33442 19.5145 8.61837 18.9417 8.04627C18.3725 7.4771 17.6601 7.16351 16.9353 7.16351H16.9323C16.2082 7.16425 15.4944 7.47784 14.9223 8.04627L12.5692 10.4067C12.0015 10.9714 11.6894 11.6816 11.6901 12.4072C11.6909 13.1335 12.0052 13.8481 12.5766 14.4187C13.0253 14.8674 13.6282 15.1186 14.4199 15.1854L14.5154 15.1935L13.3462 16.3781L13.3227 16.3737C12.5516 16.2327 11.9567 15.9412 11.5051 15.4821C10.648 14.6244 10.1758 13.5507 10.1758 12.4571C10.1758 11.3636 10.6458 10.2958 11.4984 9.44311L13.9653 6.97624C14.8187 6.12286 15.888 5.6521 16.9764 5.65137H16.9793C18.0707 5.65137 19.1444 6.12433 20.0036 6.98358C20.8614 7.84137 21.3329 8.91654 21.3329 10.0115H21.3344Z" fill="#18222D"/>
</svg>
