<svg width="113" height="28" viewBox="0 0 113 28" fill="none" xmlns="http://www.w3.org/2000/svg">
<circle cx="13.3866" cy="14.0037" r="13.035" fill="white"/>
<path d="M16.993 14.7124C16.993 15.7921 16.5277 16.8521 15.6836 17.6962L13.2414 20.1457C12.3958 20.9877 11.3365 21.4515 10.2597 21.4515C9.18293 21.4515 8.11342 20.9826 7.26202 20.1312C6.41281 19.282 5.94531 18.219 5.94531 17.1371C5.94531 16.0553 6.41063 15.0003 7.25475 14.1591L9.36906 12.0448L9.33706 12.1931C9.22146 12.7289 9.2869 13.3535 9.51011 13.8639L9.52247 13.8915L8.31481 15.1064C7.75207 15.6692 7.44234 16.373 7.44234 17.087C7.44234 17.8009 7.75497 18.5105 8.32208 19.0777C8.8841 19.6426 9.58863 19.9538 10.3055 19.9538C11.0224 19.9538 11.7284 19.6426 12.294 19.0777L14.6243 16.7474C15.187 16.1847 15.4967 15.4787 15.4967 14.7611C15.4967 14.0435 15.1841 13.3331 14.617 12.7689C14.18 12.332 13.5831 12.0833 12.7921 12.0099L12.6983 12.0011L13.8463 10.8378L13.8623 10.8538L13.8667 10.832L13.8783 10.8342C14.6395 10.9789 15.2277 11.2675 15.6771 11.7169C16.5263 12.5661 16.9938 13.6298 16.9938 14.7116L16.993 14.7124Z" fill="#18222D"/>
<path d="M21.1408 10.551C21.1408 11.6328 20.6754 12.6914 19.8313 13.5326L17.7148 15.6419L17.749 15.4906C17.869 14.9722 17.8043 14.3477 17.5767 13.8198L17.5643 13.7915L17.5861 13.7697L18.7793 12.5838C19.3398 12.0203 19.6488 11.3151 19.6495 10.5997C19.6503 9.8806 19.3391 9.17171 18.772 8.60533C18.2085 8.04185 17.5033 7.7314 16.7856 7.7314H16.7827C16.0659 7.73213 15.3591 8.04258 14.7928 8.60533L12.4633 10.9421C11.9012 11.5012 11.5922 12.2043 11.593 12.9226C11.5937 13.6417 11.9049 14.3491 12.4705 14.9141C12.9148 15.3583 13.5117 15.607 14.2955 15.6731L14.39 15.6811L13.2325 16.8539L13.2092 16.8495C12.4458 16.7099 11.8569 16.4213 11.4097 15.9668C10.5613 15.1176 10.0938 14.0547 10.0938 12.9721C10.0938 11.8895 10.5591 10.8323 11.4032 9.9882L13.8454 7.546C14.6902 6.70115 15.7488 6.2351 16.8264 6.23438H16.8293C17.9097 6.23438 18.9727 6.7026 19.8233 7.55327C20.6725 8.40248 21.1393 9.4669 21.1393 10.551H21.1408Z" fill="#18222D"/>
<path d="M39.7916 21.2421C37.7409 21.2421 36.1168 20.5805 34.9195 19.2575C33.7287 17.9344 33.1334 16.1285 33.1334 13.8396C33.1334 11.5639 33.732 9.76458 34.9294 8.44153C36.1334 7.11186 37.7541 6.44703 39.7916 6.44703C41.4587 6.44703 42.8644 6.92333 44.0088 7.87592C45.1533 8.82191 45.8049 10.0623 45.9637 11.597H43.4432C43.2779 10.6973 42.8578 9.97627 42.183 9.43382C41.5149 8.89137 40.7178 8.62014 39.7916 8.62014C38.5612 8.62014 37.5788 9.09313 36.8445 10.0391C36.1168 10.9785 35.753 12.2453 35.753 13.8396C35.753 15.4471 36.1168 16.7205 36.8445 17.6599C37.5722 18.5993 38.5579 19.0689 39.8015 19.0689C40.7475 19.0689 41.5414 18.8275 42.183 18.3446C42.8313 17.855 43.2547 17.1803 43.4532 16.3203H45.9637C45.7387 17.855 45.0772 19.059 43.9791 19.9322C42.8809 20.8054 41.4851 21.2421 39.7916 21.2421ZM56.4319 19.7536C55.5124 20.7261 54.2753 21.2123 52.7207 21.2123C51.1662 21.2123 49.9291 20.7261 49.0096 19.7536C48.0901 18.7746 47.6303 17.4383 47.6303 15.7448C47.6303 14.0579 48.0934 12.7249 49.0195 11.7459C49.9456 10.7602 51.1794 10.2673 52.7207 10.2673C54.2687 10.2673 55.5025 10.7602 56.422 11.7459C57.3481 12.7249 57.8112 14.0579 57.8112 15.7448C57.8112 17.4383 57.3514 18.7746 56.4319 19.7536ZM50.8354 18.3346C51.2985 18.9499 51.9269 19.2575 52.7207 19.2575C53.5146 19.2575 54.143 18.9499 54.6061 18.3346C55.0692 17.7194 55.3007 16.8561 55.3007 15.7448C55.3007 14.64 55.0692 13.78 54.6061 13.1648C54.143 12.543 53.5146 12.2321 52.7207 12.2321C51.9335 12.2321 51.3051 12.543 50.8354 13.1648C50.3723 13.78 50.1408 14.64 50.1408 15.7448C50.1408 16.8561 50.3723 17.7194 50.8354 18.3346ZM59.8053 21.0039V10.4856H62.1769V12.2916H62.2265C62.5175 11.6565 62.9409 11.1637 63.4966 10.8131C64.0589 10.4625 64.737 10.2872 65.5308 10.2872C66.6819 10.2872 67.5749 10.6345 68.21 11.3291C68.8517 12.0237 69.1725 12.9829 69.1725 14.2067V21.0039H66.7017V14.7029C66.7017 13.9487 66.5231 13.3732 66.1659 12.9763C65.8153 12.5794 65.2926 12.3809 64.598 12.3809C63.8902 12.3809 63.3246 12.6124 62.9012 13.0755C62.4845 13.5386 62.2761 14.1505 62.2761 14.9113V21.0039H59.8053ZM71.5635 21.0039V10.4856H73.9351V12.2916H73.9847C74.2758 11.6565 74.6992 11.1637 75.2548 10.8131C75.8171 10.4625 76.4952 10.2872 77.289 10.2872C78.4401 10.2872 79.3331 10.6345 79.9682 11.3291C80.6099 12.0237 80.9307 12.9829 80.9307 14.2067V21.0039H78.4599V14.7029C78.4599 13.9487 78.2813 13.3732 77.9241 12.9763C77.5735 12.5794 77.0509 12.3809 76.3563 12.3809C75.6484 12.3809 75.0828 12.6124 74.6595 13.0755C74.2427 13.5386 74.0343 14.1505 74.0343 14.9113V21.0039H71.5635ZM87.8565 12.1825C87.1685 12.1825 86.593 12.4206 86.1299 12.8969C85.6735 13.3666 85.4188 13.9719 85.3659 14.7128H90.2777C90.2512 13.9653 90.0164 13.3567 89.5732 12.887C89.1299 12.4173 88.5577 12.1825 87.8565 12.1825ZM90.2876 17.8584H92.5996C92.4409 18.8573 91.9348 19.6676 91.0814 20.2895C90.2281 20.9047 89.1829 21.2123 87.9458 21.2123C86.3714 21.2123 85.1343 20.7294 84.2347 19.7635C83.335 18.7911 82.8851 17.4647 82.8851 15.7845C82.8851 14.1174 83.3317 12.7811 84.2247 11.7756C85.1244 10.7701 86.3317 10.2673 87.8466 10.2673C89.335 10.2673 90.5158 10.7469 91.3891 11.7062C92.2623 12.6588 92.6989 13.9355 92.6989 15.5364V16.3401H85.346V16.489C85.346 17.3357 85.5842 18.0171 86.0605 18.5331C86.5434 19.0491 87.1884 19.3071 87.9954 19.3071C88.5643 19.3071 89.0539 19.1781 89.464 18.9201C89.8808 18.6555 90.1553 18.3016 90.2876 17.8584ZM103.971 14.2365H101.639C101.533 13.6477 101.282 13.1747 100.885 12.8175C100.488 12.4537 99.972 12.2718 99.3369 12.2718C98.5563 12.2718 97.9345 12.5827 97.4714 13.2045C97.0083 13.8197 96.7768 14.6665 96.7768 15.7448C96.7768 16.8363 97.0083 17.6897 97.4714 18.3049C97.9345 18.9135 98.5629 19.2178 99.3567 19.2178C99.9786 19.2178 100.488 19.0524 100.885 18.7216C101.282 18.3843 101.536 17.9146 101.649 17.3126H103.981C103.882 18.4901 103.409 19.4361 102.562 20.1505C101.722 20.8584 100.643 21.2123 99.327 21.2123C97.779 21.2123 96.5486 20.7261 95.6357 19.7536C94.7227 18.7746 94.2663 17.4383 94.2663 15.7448C94.2663 14.0711 94.7227 12.7414 95.6357 11.7558C96.5486 10.7635 97.7724 10.2673 99.3071 10.2673C100.657 10.2673 101.748 10.6444 102.582 11.3985C103.422 12.1461 103.885 13.0921 103.971 14.2365ZM106.55 8.02477H109.021V10.4856H111.006V12.3908H109.021V17.8584C109.021 18.2883 109.124 18.6059 109.329 18.8109C109.534 19.016 109.855 19.1186 110.291 19.1186C110.582 19.1186 110.817 19.102 110.996 19.0689V20.9543C110.698 21.0204 110.272 21.0535 109.716 21.0535C108.578 21.0535 107.764 20.8352 107.275 20.3986C106.792 19.962 106.55 19.231 106.55 18.2057V12.3908H105.042V10.4856H106.55V8.02477Z" fill="white"/>
</svg>
