<svg width="105" height="106" viewBox="0 0 105 106" fill="none" xmlns="http://www.w3.org/2000/svg">
<rect x="0.210938" y="0.744141" width="104.49" height="104.49" rx="21.7688" fill="#EC407A"/>
<path d="M47.3084 18.7843C51.8683 18.3796 56.6876 18.7371 61.0882 19.9605C62.4874 20.3498 66.7121 21.749 67.7256 22.5241C68.3143 22.9736 68.6883 23.6697 68.5491 24.4389C68.4181 25.1645 64.0588 29.4624 63.2566 29.5638C62.2691 29.6877 58.5045 28.1092 57.0286 27.7965C33.1335 22.7188 17.1122 49.8866 31.2164 68.7169C47.7391 90.7763 81.8663 74.5084 75.3103 46.3201C74.9941 44.9587 73.7165 42.3042 74.14 41.1409C74.3358 40.6041 78.0285 36.8171 78.5559 36.587C80.5037 35.7387 81.5891 39.2238 82.1459 40.6619C93.5968 70.2494 62.577 99.142 34.7804 83.0842C7.09947 67.0912 15.1656 21.6334 47.3084 18.7843Z" fill="white"/>
<path d="M48.4882 36.0029C50.3546 35.7787 54.269 35.7952 55.9148 36.7001C57.0014 37.2971 56.3454 37.7914 55.7379 38.5347C53.0822 41.7802 51.276 42.8184 47.7555 44.7084C38.2607 49.805 44.3519 64.5522 54.3327 61.434C57.9759 60.2955 58.2755 58.0516 60.0983 55.403C60.7212 54.4981 65.1288 49.831 65.911 49.418C66.1305 49.3024 66.3275 49.155 66.5906 49.155C67.5202 49.1715 67.7845 51.616 67.8517 52.3651C69.3406 68.8961 48.8539 76.3039 38.5096 64.0177C30.394 54.3766 35.6393 37.5413 48.4858 36.0029H48.4882Z" fill="white"/>
<path d="M81.4812 13.1101C84.63 12.7668 82.8486 18.6551 83.6721 19.7935C85.0512 21.6989 88.4796 19.3145 89.8269 21.1857C90.5041 22.1259 90.2941 22.7654 89.6889 23.6526C87.9487 26.2056 83.934 28.9167 81.8906 31.4249C80.2059 32.292 77.5939 30.8504 76.1392 32.515L54.3146 54.8092C51.8642 57.3575 47.525 54.0022 49.3773 51.0504L72.1327 27.7995C73.2134 26.1407 72.0926 23.5252 72.876 21.7C73.2712 20.7798 79.4025 14.6309 80.4997 13.7531C80.7934 13.5183 81.073 13.1538 81.4812 13.1089V13.1101Z" fill="white"/>
</svg>
