<svg width="98" height="98" viewBox="0 0 98 98" fill="none" xmlns="http://www.w3.org/2000/svg">
<rect width="97.5957" height="97.5957" rx="20.3324" fill="#FF5238"/>
<rect width="97.5957" height="97.5957" rx="29.2787" fill="#FF5238"/>
<path d="M49.3413 29.0387H49.3779M61.5863 36.0359H61.6229M36.0836 36.0359H36.1202M28.8103 48.7996H28.8469M63.4283 63.4389H73.3318C74.8454 63.4622 76.3276 63.0055 77.5656 62.1343C78.8037 61.2631 79.734 60.0223 80.2233 58.5897C81.6792 53.9276 82.0802 49.0002 81.3972 44.1641C80.7141 39.328 78.9642 34.7044 76.274 30.6279C73.5838 26.5515 70.0208 23.1244 65.8429 20.5946C61.665 18.0649 56.9768 16.496 52.1179 16.0014C47.2589 15.5068 42.3507 16.0989 37.7488 17.735C33.1469 19.371 28.9664 22.0099 25.5101 25.4607C22.0537 28.9115 19.408 33.0877 17.7645 37.687C16.1211 42.2862 15.521 47.1934 16.0077 52.0532C16.6427 57.6963 18.7102 63.0834 22.0135 67.7025C25.3169 72.3216 29.7466 76.0193 34.8815 78.4443C39.17 80.5746 43.8871 81.701 48.6755 81.7381C49.6446 81.7473 50.606 81.5651 51.5046 81.2019C52.4032 80.8387 53.2212 80.3016 53.9118 79.6216C54.6023 78.9416 55.1519 78.1319 55.5289 77.239C55.9058 76.3461 56.1028 75.3876 56.1086 74.4185V71.282C56.0548 70.2818 56.2034 69.281 56.5455 68.3395C56.8877 67.3981 57.4163 66.5354 58.0997 65.8031C58.7832 65.0708 59.6074 64.484 60.523 64.0777C61.4385 63.6715 62.4267 63.4542 63.4283 63.4389Z" stroke="white" stroke-width="7.31968" stroke-linecap="round" stroke-linejoin="round"/>
</svg>
