<svg width="92" height="92" viewBox="0 0 92 92" fill="none" xmlns="http://www.w3.org/2000/svg">
<rect width="91.98" height="91.98" rx="19.1625" fill="#8C55ED"/>
<g clip-path="url(#clip0_4925_43650)">
<path d="M75.2232 35.0792L51.493 24.22C49.0206 23.105 47.0087 22.5717 44.9968 22.6202C43.0092 22.5717 40.9974 23.105 38.5008 24.22L14.7949 35.0792C13.2436 35.7821 12.4922 37.0183 12.4922 38.2545C12.4922 39.4906 13.2436 40.7027 14.7949 41.4299L24.7814 45.9868L40.1248 38.7879C39.9794 38.618 39.9309 38.4242 39.9309 38.2545C39.9309 36.7274 42.5004 35.5639 45.0939 35.5639C47.7117 35.5639 50.2327 36.7274 50.2327 38.2545C50.2327 39.8301 47.7117 41.0176 45.0939 41.0176C44.2938 41.0176 43.4941 40.8965 42.7911 40.7027L28.1507 47.5623L38.5008 52.3133C40.9974 53.4523 43.0092 53.9372 44.9968 53.9129C47.0087 53.9372 49.0206 53.4523 51.493 52.3133L75.2232 41.4299C76.7745 40.7027 77.526 39.4906 77.526 38.2545C77.526 37.0183 76.7745 35.7821 75.2232 35.0792ZM28.0537 51.1498V65.8871C32.1259 68.3595 37.9433 69.8623 44.9968 69.8623C59.2981 69.8623 68.5089 63.7299 68.5089 56.4824V48.144L52.8747 55.2946C50.0388 56.6035 47.4693 57.2579 44.9968 57.2337C42.5487 57.2579 39.9552 56.6035 37.1192 55.2946L28.0537 51.1498ZM21.5092 48.144V56.4824C21.5092 58.5911 22.7211 61.2089 24.9026 63.4389V49.7196L21.5092 48.144ZM24.9026 71.5107H28.0537V65.8871C26.8418 65.1601 25.7753 64.3358 24.9026 63.4389V71.5107ZM22.9877 71.6803V78.0551C22.9877 79.9702 24.224 81.2063 26.1388 81.2063H26.7933C28.7082 81.2063 29.9444 79.9702 29.9444 78.0551V71.6803C29.9444 69.7655 28.7082 68.5291 26.7933 68.5291H26.1388C24.224 68.5291 22.9877 69.7655 22.9877 71.6803Z" fill="white"/>
</g>
<defs>
<clipPath id="clip0_4925_43650">
<rect width="66.0518" height="70.2208" fill="white" transform="translate(12.4922 10.9902)"/>
</clipPath>
</defs>
</svg>
