<svg width="112" height="112" viewBox="0 0 112 112" fill="none" xmlns="http://www.w3.org/2000/svg">
<rect x="3.74219" y="3.74414" width="104.49" height="104.49" rx="21.7688" fill="#2EA5FF"/>
<rect x="3.74219" y="3.74414" width="104.49" height="104.49" rx="31.347" fill="#2EA5FF"/>
<path d="M52.6132 90.5403H59.3213C62.064 90.5403 64.2119 88.822 64.8728 86.1784L66.1946 80.3956L67.0537 80.0652L72.1096 83.2044C74.4227 84.6584 77.1654 84.2618 79.115 82.3122L83.7413 77.686C85.7239 75.7033 86.0544 72.9936 84.6004 70.7136L81.4612 65.6577L81.7916 64.8647L87.5744 63.5098C90.185 62.8489 91.9033 60.701 91.9033 57.9583V51.4485C91.9033 48.7058 90.218 46.5579 87.5744 45.897L81.8247 44.5092L81.4942 43.65L84.6335 38.6272C86.0874 36.3472 85.757 33.6375 83.7743 31.6218L79.1481 26.9955C77.2315 25.0459 74.4888 24.6824 72.1756 26.1033L67.1198 29.2095L66.1946 28.8791L64.8728 23.0632C64.2119 20.4197 62.064 18.7344 59.3213 18.7344H52.6132C49.8375 18.7344 47.6896 20.4197 47.0617 23.0632L45.74 28.8791L44.8147 29.2095L39.7589 26.1033C37.4127 24.6824 34.7031 25.0459 32.7865 26.9955L28.1272 31.6218C26.1775 33.6375 25.8141 36.3472 27.268 38.6272L30.4073 43.65L30.0768 44.5092L24.3601 45.897C21.7165 46.5579 20.0312 48.7058 20.0312 51.4485V57.9583C20.0312 60.701 21.7496 62.8489 24.3601 63.5098L30.1429 64.8647L30.4403 65.6577L27.3011 70.7136C25.8471 72.9936 26.2106 75.7033 28.1602 77.686L32.8195 82.3122C34.7361 84.2618 37.4788 84.6584 39.7919 83.2044L44.8478 80.0652L45.74 80.3956L47.0617 86.1784C47.6896 88.822 49.8375 90.5403 52.6132 90.5403ZM53.4724 84.4601C52.9106 84.4601 52.6132 84.2288 52.5471 83.7331L50.5645 75.6042C48.4827 75.1085 46.4669 74.2493 44.8478 73.2249L37.7101 77.6199C37.2805 77.8842 36.884 77.8512 36.4875 77.4547L33.0178 73.985C32.6212 73.6215 32.6212 73.2249 32.8856 72.7954L37.2805 65.6577C36.3553 64.0716 35.4961 62.0889 35.0005 60.0071L26.8384 58.0575C26.3428 57.9914 26.0784 57.694 26.0784 57.1322V52.2416C26.0784 51.6468 26.3097 51.4155 26.8384 51.2833L34.9674 49.3667C35.4631 47.1527 36.4214 45.104 37.2475 43.617L32.8526 36.5454C32.5882 36.0828 32.5882 35.6863 32.9517 35.2897L36.4544 31.8531C36.851 31.4896 37.2144 31.4235 37.7101 31.7209L44.7817 36.0498C46.2687 35.1245 48.4827 34.1993 50.5975 33.6705L52.5471 25.5416C52.6132 25.0459 52.9106 24.7815 53.4724 24.7815H58.4621C59.0239 24.7815 59.2882 25.0129 59.3874 25.5416L61.3701 33.7036C63.518 34.2323 65.4676 35.1245 67.1198 36.0498L74.1914 31.7209C74.687 31.4566 75.0505 31.4896 75.4471 31.8861L78.9498 35.3228C79.3463 35.6863 79.3463 36.0828 79.0489 36.5454L74.687 43.617C75.4801 45.104 76.4714 47.1527 76.9671 49.3667L85.0961 51.2833C85.6248 51.4155 85.8231 51.6468 85.8231 52.2416V57.1322C85.8231 57.694 85.5918 57.9914 85.0961 58.0575L76.9341 60.0071C76.4384 62.0889 75.5462 64.1046 74.6209 65.6577L79.0159 72.7623C79.2802 73.2249 79.2802 73.5884 78.8837 73.9519L75.414 77.4547C75.0175 77.8512 74.6209 77.8842 74.1914 77.6199L67.0868 73.2249C65.4345 74.2493 63.551 75.0754 61.3701 75.6042L59.3874 83.7331C59.2882 84.2288 59.0239 84.4601 58.4621 84.4601H53.4724ZM55.9838 67.1778C62.8571 67.1778 68.5077 61.5272 68.5077 54.6208C68.5077 47.7806 62.8571 42.13 55.9838 42.13C49.0775 42.13 43.3938 47.7806 43.3938 54.6208C43.3938 61.5272 49.0775 67.1778 55.9838 67.1778ZM55.9838 61.4611C52.2167 61.4611 49.1436 58.3879 49.1436 54.6208C49.1436 50.9198 52.2497 47.8467 55.9838 47.8467C59.6517 47.8467 62.7249 50.9198 62.7249 54.6208C62.7249 58.3549 59.6517 61.4611 55.9838 61.4611Z" fill="white"/>
<path d="M55.9806 67.1767C62.8539 67.1767 68.5045 61.5261 68.5045 54.6198C68.5045 47.7795 62.8539 42.1289 55.9806 42.1289C49.0743 42.1289 43.3906 47.7795 43.3906 54.6198C43.3906 61.5261 49.0743 67.1767 55.9806 67.1767ZM55.9806 61.46C52.2135 61.46 49.1404 58.3869 49.1404 54.6198C49.1404 50.9188 52.2466 47.8456 55.9806 47.8456C59.6486 47.8456 62.7217 50.9188 62.7217 54.6198C62.7217 58.3538 59.6486 61.46 55.9806 61.46Z" fill="#DAF5FE"/>
</svg>
