<svg width="106" height="106" viewBox="0 0 106 106" fill="none" xmlns="http://www.w3.org/2000/svg">
<rect x="0.703125" y="0.744141" width="104.49" height="104.49" rx="21.7688" fill="#28BDAF"/>
<path d="M46.3565 40.7157C46.1066 40.5704 45.7485 40.7157 45.5415 40.9098L25.577 60.7011C21.528 63.2475 17.3992 58.6097 20.5702 54.9735C27.9936 48.3371 34.4807 39.7343 41.9791 33.2932C44.241 31.3506 46.2589 30.2203 48.9825 32.2487L58.8773 42.3474L72.294 28.8447C72.4796 28.1349 69.4514 25.7064 68.8672 24.9643C68.1688 24.0782 67.6262 23.2076 67.8059 22.0023C67.9855 20.7969 68.7018 20.2836 69.812 20.1883C74.6772 19.7715 80.122 20.5218 85.0527 20.1931C86.4365 20.2157 86.7399 21.5199 86.8422 22.6895C87.1551 26.2602 87.2253 34.2079 86.8327 37.7071C86.6233 39.5794 85.3145 41.0861 83.3691 40.2202L77.6721 34.4949L61.6151 50.5714C60.1599 51.9113 57.8623 52.1031 56.2608 50.9252C53.6134 48.9778 49.2145 43.9767 46.7289 41.4017C46.5421 41.2076 46.3946 40.7395 46.3553 40.7169L46.3565 40.7157Z" fill="#F9FDFB"/>
<path d="M71.2976 49.7914C72.8765 49.527 78.8888 49.5235 80.4629 49.7914C82.0371 50.0594 83.2424 51.3219 83.6267 52.8178L83.7374 83.2081C83.7505 84.0978 82.4619 85.4722 81.6599 85.6533C78.2796 85.3996 73.8379 86.194 70.5848 85.6461C69.182 85.4103 68.3372 84.392 67.8946 83.0997L67.8125 53.4479C68.1266 51.6221 69.4331 50.1035 71.2976 49.7914Z" fill="#FBFEFD"/>
<path d="M46.798 56.9365C48.6875 56.622 56.9724 56.5934 58.8607 56.8924C59.7043 57.0258 60.4039 57.8095 60.7906 58.5336L60.9025 82.7293C60.7407 83.9418 60.0303 84.8124 58.9214 85.2722C57.2794 85.9534 50.4425 85.8808 48.4103 85.6974C46.146 85.4937 44.9181 84.6302 44.7087 82.2565C44.0685 74.9734 45.2072 66.7612 44.717 59.3781C44.8872 57.9691 45.3357 57.1782 46.7969 56.9353L46.798 56.9365Z" fill="#FBFEFD"/>
<path d="M24.4455 66.7082C26.7431 66.3759 32.9719 66.3926 35.3278 66.6451C37.4778 66.8762 38.137 68.0636 38.3095 70.0908C38.5642 73.0707 38.6332 79.5773 38.3012 82.4858C38.1037 84.2223 36.8437 85.5015 35.0898 85.7016C33.4597 85.8874 25.0868 85.9207 23.8529 85.5181C22.619 85.1156 22.0194 83.7495 21.8837 82.487C21.6005 79.85 21.5149 71.4211 21.9004 68.9236C22.1193 67.505 23.1283 66.8976 24.4455 66.707V66.7082Z" fill="#F9FDFB"/>
</svg>
