<svg width="105" height="106" viewBox="0 0 105 106" fill="none" xmlns="http://www.w3.org/2000/svg">
<rect x="0.191406" y="0.744141" width="104.49" height="104.49" rx="21.7688" fill="#795548"/>
<path d="M27.2125 31.6953V63.4775C27.2125 64.1939 29.6242 65.9094 30.5728 65.675C44.5052 64.9293 59.4549 66.6623 73.2674 65.6881C74.2701 65.6178 76.1279 65.445 76.8163 64.7052C76.9186 64.5953 77.493 63.5478 77.493 63.4775V31.6953H83.9243V64.0635C83.9243 66.5539 81.8824 69.5322 79.7454 70.7144C79.4151 70.8975 77.1992 71.8263 77.0545 71.8263H56.153L65.2752 83.6295C67.2191 86.5901 63.9436 90.172 60.9735 88.2323C59.1187 87.0194 53.1742 77.6905 52.4975 77.6905L44.1807 87.8046C42.1256 89.8555 38.8545 88.5034 38.6805 85.6643C38.6177 84.6491 39.2433 83.8844 39.7885 83.1109C42.0701 79.8733 45.1542 77.0606 47.506 73.8553L48.8448 71.8278H27.651C24.7715 71.8278 20.7812 66.8792 20.7812 64.065V31.6968H27.2125V31.6953Z" fill="#F9FBFB"/>
<path d="M55.2743 21.1519L84.5847 21.2207C88.439 21.8697 88.4507 26.8213 84.9311 27.8716L20.0399 27.8995C17.7422 27.8204 16.3844 26.2397 16.7074 23.9544C17.0304 21.669 18.134 21.5093 20.0823 21.1827L48.8475 21.1534C47.9135 15.0328 55.8985 15.2672 55.2758 21.1534L55.2743 21.1519Z" fill="#F9FBFB"/>
<path d="M45.6339 49.2704C45.3577 50.5346 43.9925 51.0928 43.136 51.897C41.2197 53.6931 39.5783 55.7499 37.6475 57.5269C36.199 58.4219 34.0884 57.6807 33.2172 56.2846C32.0187 54.3611 33.1705 53.069 34.369 51.6084C37.2295 48.1204 41.5062 44.7231 44.7335 41.4915C45.9569 41.0959 46.9319 41.4329 47.9462 42.1111C49.3903 43.078 55.709 50.4321 56.2981 50.435L67.4431 38.1763C70.2042 36.7347 73.6317 40.0602 71.3515 43.2626C68.7162 46.9616 63.1254 52.6207 59.8104 56.0106C58.2157 57.6411 56.9251 58.649 54.6435 57.3701L46.22 49.4081L45.6339 49.2704Z" fill="#F9FBFB"/>
</svg>
