<svg width="105" height="105" viewBox="0 0 105 105" fill="none" xmlns="http://www.w3.org/2000/svg">
<rect width="104.49" height="104.49" rx="21.7688" fill="#FF7043"/>
<rect width="104.49" height="104.49" rx="31.347" fill="#FF7043"/>
<g clip-path="url(#clip0_4924_36649)">
<path d="M23.7189 72.7233C28.1003 79.02 37.7813 81.1713 43.9729 76.8686C49.325 73.143 50.5057 67.3711 46.9638 62.3338C43.7893 57.7688 38.0437 56.4834 34.2657 59.1855C29.9105 62.2813 31.6683 66.5317 28.9923 68.4206C26.7622 70.0209 25.2143 69.0239 23.9288 69.8899C23.0892 70.4146 22.7744 71.4114 23.7189 72.7233ZM47.9608 58.4508C49.876 60.3661 51.319 62.9111 51.66 64.9836C53.7852 64.6427 55.4906 63.6457 57.2744 61.8616C57.5631 61.5992 57.8255 61.3108 58.0879 60.9959C56.9335 54.673 51.66 49.4783 45.4421 48.324C45.1273 48.5863 44.8387 48.8749 44.5501 49.1635C42.7661 50.9475 41.7954 52.7053 41.4543 54.778C43.5007 55.119 46.0718 56.5356 47.9608 58.4508ZM72.7012 27.2566C71.3633 28.2273 56.7759 38.2232 47.8296 46.1202C53.7589 47.9829 58.4028 52.6004 60.2917 58.6085C68.2412 49.662 78.2107 35.1011 79.1814 33.7368C82.2772 29.4079 76.8728 24.1608 72.7012 27.2566Z" fill="white"/>
</g>
<defs>
<clipPath id="clip0_4924_36649">
<rect width="58.062" height="53.4208" fill="white" transform="translate(23.1406 25.6934)"/>
</clipPath>
</defs>
</svg>
