<svg width="105" height="106" viewBox="0 0 105 106" fill="none" xmlns="http://www.w3.org/2000/svg">
<rect x="0.234375" y="0.744141" width="104.49" height="104.49" rx="21.7688" fill="#8D6E63"/>
<rect x="0.234375" y="0.744141" width="104.49" height="104.49" rx="31.347" fill="#8D6E63"/>
<path d="M21.611 87.3713L23.358 85.1689L34.3424 74.4627C34.9765 74.0644 36.5141 75.0338 38.1571 73.9033C41.7449 71.4344 39.6684 66.1347 35.5534 66.6019C32.6452 66.9328 31.4722 70.2306 32.3113 72.7245L18.9766 85.6155L21.0267 61.4619C21.4997 57.8185 22.0225 56.3263 25.4272 54.7345C30.4003 52.4076 36.4555 51.2448 41.4564 48.7715L42.3965 48.8652L58.1958 63.8488L51.7335 83.3779C50.3628 85.453 48.0125 85.5657 45.7705 85.9069L21.6125 87.3713H21.611Z" fill="#FEFDFB"/>
<path d="M46.0025 45.7069C45.0931 44.6115 46.802 41.5846 47.5225 40.52L79.6102 19.0023C81.2254 18.4312 84.0781 20.9646 84.636 22.4495C85.3301 24.2946 84.8308 25.9157 84.0341 27.5411C78.8033 38.2151 70.9659 48.6313 65.2123 59.0855C64.2649 59.664 62.5398 61.0918 61.443 60.5822L46.0025 45.7054V45.7069Z" fill="#FEFDFB"/>
</svg>
