<svg width="30" height="30" viewBox="0 0 30 30" fill="none" xmlns="http://www.w3.org/2000/svg">
<rect width="30" height="30" rx="7" fill="#32ADE6"/>
<path fill-rule="evenodd" clip-rule="evenodd" d="M25 15C25 20.523 20.523 25 15 25C9.477 25 5 20.523 5 15C5 9.477 9.477 5 15 5C20.523 5 25 9.477 25 15ZM17.553 10.24C18.286 10.875 18.75 11.815 18.75 13C18.75 13.885 18.524 14.54 18.1 15.035C17.72 15.48 17.226 15.726 16.875 15.901L16.835 15.921C16.438 16.119 16.205 16.247 16.038 16.441C15.899 16.603 15.75 16.885 15.75 17.5C15.75 17.6989 15.671 17.8897 15.5303 18.0303C15.3897 18.171 15.1989 18.25 15 18.25C14.8011 18.25 14.6103 18.171 14.4697 18.0303C14.329 17.8897 14.25 17.6989 14.25 17.5C14.25 16.615 14.476 15.96 14.9 15.465C15.28 15.02 15.774 14.774 16.125 14.599L16.165 14.579C16.562 14.381 16.795 14.254 16.962 14.059C17.101 13.897 17.25 13.615 17.25 13C17.25 12.236 16.964 11.715 16.572 11.374C16.164 11.021 15.595 10.827 15 10.827C14.405 10.827 13.836 11.021 13.428 11.374C13.036 11.714 12.75 12.236 12.75 13C12.75 13.1989 12.671 13.3897 12.5303 13.5303C12.3897 13.671 12.1989 13.75 12 13.75C11.8011 13.75 11.6103 13.671 11.4697 13.5303C11.329 13.3897 11.25 13.1989 11.25 13C11.25 11.815 11.714 10.875 12.447 10.24C13.164 9.62 14.095 9.327 15 9.327C15.905 9.327 16.836 9.62 17.553 10.241V10.24ZM15 21C15.2215 21 15.4338 20.912 15.5904 20.7554C15.747 20.5988 15.835 20.3865 15.835 20.165C15.835 19.9435 15.747 19.7312 15.5904 19.5746C15.4338 19.418 15.2215 19.33 15 19.33C14.7785 19.33 14.5662 19.418 14.4096 19.5746C14.253 19.7312 14.165 19.9435 14.165 20.165C14.165 20.3865 14.253 20.5988 14.4096 20.7554C14.5662 20.912 14.7785 21 15 21Z" fill="white"/>
</svg>
