<svg width="30" height="31" viewBox="0 0 30 31" fill="none" xmlns="http://www.w3.org/2000/svg">
<rect y="0.333008" width="30" height="30" rx="7" fill="#FFCC00"/>
<path fill-rule="evenodd" clip-rule="evenodd" d="M16.67 21.032C16.48 21.083 16.164 21.083 15.532 21.083H14.467C13.836 21.083 13.52 21.083 13.329 21.032C13.196 20.996 13.134 20.981 13.079 20.955C13.022 20.929 12.971 20.892 12.857 20.812C12.696 20.699 12.323 20.256 11.577 19.369C11.2689 19.0139 10.9476 18.6703 10.614 18.339C9.375 17.079 8 15.679 8 13.333C8 9.33301 9.5 5.58301 15 5.58301C20.5 5.58301 22 9.33301 22 13.333C22 15.678 20.625 17.078 19.386 18.339C19.044 18.687 18.712 19.025 18.423 19.369C17.677 20.256 17.304 20.699 17.143 20.812C17.029 20.892 16.978 20.929 16.922 20.955C16.866 20.981 16.803 20.996 16.67 21.032ZM12.5 23.083C12.5 22.8178 12.6054 22.5634 12.7929 22.3759C12.9804 22.1884 13.2348 22.083 13.5 22.083H16.5C16.7652 22.083 17.0196 22.1884 17.2071 22.3759C17.3946 22.5634 17.5 22.8178 17.5 23.083C17.5 23.6134 17.2893 24.1221 16.9142 24.4972C16.5391 24.8723 16.0304 25.083 15.5 25.083H14.5C13.9696 25.083 13.4609 24.8723 13.0858 24.4972C12.7107 24.1221 12.5 23.6134 12.5 23.083Z" fill="white"/>
</svg>
