<svg width="23" height="23" viewBox="0 0 23 23" fill="none" xmlns="http://www.w3.org/2000/svg">
<circle cx="11.6579" cy="11.4155" r="9.69683" fill="white"/>
<path d="M11.5913 22.3643C17.6317 22.3643 22.6174 17.3786 22.6174 11.3488C22.6174 5.3191 17.621 0.333374 11.5806 0.333374C5.55087 0.333374 0.575806 5.3191 0.575806 11.3488C0.575806 17.3786 5.56153 22.3643 11.5913 22.3643ZM17.8447 8.97316H5.33781V8.50442C5.33781 7.36452 5.93439 6.78924 7.07429 6.78924H16.1082C17.2375 6.78924 17.8447 7.37517 17.8447 8.50442V8.97316ZM5.33781 10.2196H17.8447V14.2039C17.8447 15.3438 17.2375 15.9297 16.1082 15.9297H7.07429C5.93439 15.9297 5.33781 15.3438 5.33781 14.2039V10.2196ZM7.54303 14.2465H8.83208C9.14102 14.2465 9.35409 14.0441 9.35409 13.7458V12.7657C9.35409 12.4674 9.14102 12.265 8.83208 12.265H7.54303C7.24474 12.265 7.02102 12.4674 7.02102 12.7657V13.7458C7.02102 14.0441 7.24474 14.2465 7.54303 14.2465Z" fill="#2EA5FF"/>
</svg>
