<svg width="30" height="31" viewBox="0 0 30 31" fill="none" xmlns="http://www.w3.org/2000/svg">
<rect y="0.667969" width="30" height="30" rx="7" fill="#FF9501"/>
<path fill-rule="evenodd" clip-rule="evenodd" d="M15 6.04883C20.523 6.04883 25 10.1188 25 15.1388C25 20.1608 20.523 24.2308 15 24.2308C14.153 24.2308 13.331 24.1348 12.546 23.9548C12.397 23.9208 12.229 24.0768 11.947 24.3368C11.607 24.6508 11.101 25.1178 10.267 25.5868C9.2 26.1848 7.722 26.1328 7.472 26.0268C7.232 25.9268 7.417 25.7268 7.742 25.3748C7.967 25.1318 8.259 24.8148 8.524 24.4088C9.173 23.4138 8.904 22.2288 8.614 22.0168C6.338 20.3508 5 18.0028 5 15.1388C5 10.1188 9.477 6.04883 15 6.04883ZM10 16.6688C10.3978 16.6688 10.7794 16.5108 11.0607 16.2295C11.342 15.9482 11.5 15.5667 11.5 15.1688C11.5 14.771 11.342 14.3895 11.0607 14.1082C10.7794 13.8269 10.3978 13.6688 10 13.6688C9.60218 13.6688 9.22064 13.8269 8.93934 14.1082C8.65804 14.3895 8.5 14.771 8.5 15.1688C8.5 15.5667 8.65804 15.9482 8.93934 16.2295C9.22064 16.5108 9.60218 16.6688 10 16.6688ZM15 16.6688C15.3978 16.6688 15.7794 16.5108 16.0607 16.2295C16.342 15.9482 16.5 15.5667 16.5 15.1688C16.5 14.771 16.342 14.3895 16.0607 14.1082C15.7794 13.8269 15.3978 13.6688 15 13.6688C14.6022 13.6688 14.2206 13.8269 13.9393 14.1082C13.658 14.3895 13.5 14.771 13.5 15.1688C13.5 15.5667 13.658 15.9482 13.9393 16.2295C14.2206 16.5108 14.6022 16.6688 15 16.6688ZM21.5 15.1688C21.5 15.5667 21.342 15.9482 21.0607 16.2295C20.7794 16.5108 20.3978 16.6688 20 16.6688C19.6022 16.6688 19.2206 16.5108 18.9393 16.2295C18.658 15.9482 18.5 15.5667 18.5 15.1688C18.5 14.771 18.658 14.3895 18.9393 14.1082C19.2206 13.8269 19.6022 13.6688 20 13.6688C20.3978 13.6688 20.7794 13.8269 21.0607 14.1082C21.342 14.3895 21.5 14.771 21.5 15.1688Z" fill="white"/>
</svg>
